{
  "accessors": [
    {
      "bufferView": 1,
      "componentType": 5126,
      "count": 2054,
      "max": [
        0.7513099908828735,
        0.7214300036430359,
        1.4727599620819092
      ],
      "min": [
        -0.7581800222396851,
        -0.7233499884605408,
        -1.285979986190796
      ],
      "type": "VEC3"
    },
    {
      "bufferView": 1,
      "byteOffset": 24648,
      "componentType": 5126,
      "count": 2054,
      "max": [
        1.0,
        0.999932050704956,
        0.9999995827674866
      ],
      "min": [
        -1.0,
        -0.999125599861145,
        -0.9999995827674866
      ],
      "type": "VEC3"
    },
    {
      "bufferView": 0,
      "componentType": 5125,
      "count": 12360,
      "type": "SCALAR"
    },
    {
      "bufferView": 1,
      "byteOffset": 49296,
      "componentType": 5126,
      "count": 293,
      "max": [
        0.8187500238418579,
        0.05624999850988388,
        1.753119945526123
      ],
      "min": [
        -0.831250011920929,
        -0.05624999850988388,
        -1.7531299591064453
      ],
      "type": "VEC3"
    },
    {
      "bufferView": 1,
      "byteOffset": 52812,
      "componentType": 5126,
      "count": 293,
      "max": [
        1.0,
        1.0,
        1.0
      ],
      "min": [
        -1.0,
        -1.0,
        -1.0
      ],
      "type": "VEC3"
    },
    {
      "bufferView": 0,
      "byteOffset": 49440,
      "componentType": 5125,
      "count": 768,
      "type": "SCALAR"
    },
    {
      "bufferView": 1,
      "byteOffset": 56328,
      "componentType": 5126,
      "count": 301,
      "max": [
        0.7437499761581421,
        0.05624999850988388,
        1.753119945526123
      ],
      "min": [
        -0.731249988079071,
        -0.05624999850988388,
        -1.7531299591064453
      ],
      "type": "VEC3"
    },
    {
      "bufferView": 1,
      "byteOffset": 59940,
      "componentType": 5126,
      "count": 301,
      "max": [
        1.0,
        1.0,
        1.0
      ],
      "min": [
        -1.0,
        -1.0,
        -1.0
      ],
      "type": "VEC3"
    },
    {
      "bufferView": 0,
      "byteOffset": 52512,
      "componentType": 5125,
      "count": 768,
      "type": "SCALAR"
    }
  ],
  "asset": {
    "extras": {
      "author": "sleepyjoshua (https://sketchfab.com/sleepyjoshua)",
      "license": "CC-BY-4.0 (http://creativecommons.org/licenses/by/4.0/)",
      "source": "https://sketchfab.com/3d-models/clothes-hamper-46e0b9cebba34f99964b44d6eaa839f3",
      "title": "Clothes Hamper"
    },
    "generator": "Sketchfab-12.68.0",
    "version": "2.0"
  },
  "bufferViews": [
    {
      "buffer": 0,
      "byteLength": 55584,
      "name": "floatBufferViews",
      "target": 34963
    },
    {
      "buffer": 0,
      "byteLength": 63552,
      "byteOffset": 55584,
      "byteStride": 12,
      "name": "floatBufferViews",
      "target": 34962
    }
  ],
  "buffers": [
    {
      "byteLength": 119136,
      "uri": "scene.bin"
    }
  ],
  "extensionsRequired": [
    "KHR_materials_pbrSpecularGlossiness"
  ],
  "extensionsUsed": [
    "KHR_materials_pbrSpecularGlossiness"
  ],
  "materials": [
    {
      "doubleSided": true,
      "extensions": {
        "KHR_materials_pbrSpecularGlossiness": {
          "diffuseFactor": [
            0.6694150227827449,
            0.6361614044644665,
            0.603891882382161,
            1.0
          ],
          "glossinessFactor": 0.0,
          "specularFactor": [
            0.7454042095403872,
            0.7083757798916867,
            0.6724431569576873
          ]
        }
      },
      "name": "Hamper.Cloth"
    },
    {
      "doubleSided": true,
      "extensions": {
        "KHR_materials_pbrSpecularGlossiness": {
          "diffuseFactor": [
            0.5775804404296506,
            0.45641102318040466,
            0.3613067797835095,
            1.0
          ],
          "glossinessFactor": 0.0,
          "specularFactor": [
            0.5775804404296506,
            0.45641102318040466,
            0.3613067797835095
          ]
        }
      },
      "name": "Hamper.Wood"
    }
  ],
  "meshes": [
    {
      "name": "Hamper.Cloth_0",
      "primitives": [
        {
          "attributes": {
            "NORMAL": 1,
            "POSITION": 0
          },
          "indices": 2,
          "material": 0,
          "mode": 4
        }
      ]
    },
    {
      "name": "Hamper.Outside.001_0",
      "primitives": [
        {
          "attributes": {
            "NORMAL": 4,
            "POSITION": 3
          },
          "indices": 5,
          "material": 1,
          "mode": 4
        }
      ]
    },
    {
      "name": "Hamper.Outside.002_0",
      "primitives": [
        {
          "attributes": {
            "NORMAL": 7,
            "POSITION": 6
          },
          "indices": 8,
          "material": 1,
          "mode": 4
        }
      ]
    }
  ],
  "nodes": [
    {
      "children": [
        1
      ],
      "matrix": [
        1.0,
        0.0,
        0.0,
        0.0,
        0.0,
        2.220446049250313e-16,
        -1.0,
        0.0,
        0.0,
        1.0,
        2.220446049250313e-16,
        0.0,
        0.0,
        0.0,
        0.0,
        1.0
      ],
      "name": "Sketchfab_model"
    },
    {
      "children": [
        2,
        4
      ],
      "name": "Root"
    },
    {
      "children": [
        3
      ],
      "matrix": [
        -0.29086000000000006,
        0.9551700000000001,
        -0.05519000000000001,
        0.0,
        -0.7711,
        -0.19988000000000003,
        0.6045200000000001,
        0.0,
        0.5663900000000001,
        0.21839000000000003,
        0.7946700000000001,
        0.0,
        4.076250000000001,
        1.00545,
        5.903860000000001,
        1.0
      ],
      "name": "Lamp"
    },
    {
      "name": "Lamp"
    },
    {
      "children": [
        5,
        6,
        8
      ],
      "matrix": [
        1.0,
        0.0,
        0.0,
        0.0,
        0.0,
        1.0,
        0.0,
        0.0,
        0.0,
        0.0,
        1.0,
        0.0,
        0.0,
        0.0,
        1.62444,
        1.0
      ],
      "name": "Hamper.Cloth"
    },
    {
      "mesh": 0,
      "name": "Hamper.Cloth_0"
    },
    {
      "children": [
        7
      ],
      "matrix": [
        1.0,
        0.0,
        0.0,
        0.0,
        0.0,
        0.91355,
        0.40674,
        0.0,
        0.0,
        -0.40674,
        0.91355,
        0.0,
        0.0,
        0.0,
        -0.0,
        1.0
      ],
      "name": "Hamper.Outside.001"
    },
    {
      "mesh": 1,
      "name": "Hamper.Outside.001_0"
    },
    {
      "children": [
        9
      ],
      "matrix": [
        -1.0,
        0.0,
        0.0,
        0.0,
        -0.0,
        -0.91355,
        0.40674,
        0.0,
        0.0,
        0.40674,
        0.91355,
        0.0,
        0.0,
        0.0,
        0.0,
        1.0
      ],
      "name": "Hamper.Outside.002"
    },
    {
      "mesh": 2,
      "name": "Hamper.Outside.002_0"
    }
  ],
  "scene": 0,
  "scenes": [
    {
      "name": "Sketchfab_Scene",
      "nodes": [
        0
      ]
    }
  ]
}
