{
  "accessors": [
    {
      "bufferView": 2,
      "componentType": 5126,
      "count": 948,
      "max": [
        1.0,
        1.0,
        6.899181842803955
      ],
      "min": [
        -1.0,
        -1.0,
        -0.005610553547739983
      ],
      "type": "VEC3"
    },
    {
      "bufferView": 2,
      "byteOffset": 11376,
      "componentType": 5126,
      "count": 948,
      "max": [
        1.0,
        1.0,
        1.0
      ],
      "min": [
        -1.0,
        -1.0,
        -1.0
      ],
      "type": "VEC3"
    },
    {
      "bufferView": 3,
      "componentType": 5126,
      "count": 948,
      "max": [
        1.0,
        1.0,
        0.9995542764663696,
        1.0
      ],
      "min": [
        -1.0,
        -1.0,
        -0.9995905756950378,
        -1.0
      ],
      "type": "VEC4"
    },
    {
      "bufferView": 1,
      "componentType": 5126,
      "count": 948,
      "max": [
        1.0,
        1.0
      ],
      "min": [
        0.0,
        0.010419964790344238
      ],
      "type": "VEC2"
    },
    {
      "bufferView": 0,
      "componentType": 5125,
      "count": 3252,
      "type": "SCALAR"
    },
    {
      "bufferView": 2,
      "byteOffset": 22752,
      "componentType": 5126,
      "count": 940,
      "max": [
        1.0,
        1.0,
        6.899181842803955
      ],
      "min": [
        -1.0,
        -1.0,
        -0.005610553547739983
      ],
      "type": "VEC3"
    },
    {
      "bufferView": 2,
      "byteOffset": 34032,
      "componentType": 5126,
      "count": 940,
      "max": [
        1.0,
        1.0,
        1.0
      ],
      "min": [
        -1.0,
        -1.0,
        -1.0
      ],
      "type": "VEC3"
    },
    {
      "bufferView": 3,
      "byteOffset": 15168,
      "componentType": 5126,
      "count": 940,
      "max": [
        1.0,
        1.0,
        0.9995542168617249,
        1.0
      ],
      "min": [
        -1.0,
        -1.0,
        -0.9995905756950378,
        -1.0
      ],
      "type": "VEC4"
    },
    {
      "bufferView": 1,
      "byteOffset": 7584,
      "componentType": 5126,
      "count": 940,
      "max": [
        1.0,
        1.0
      ],
      "min": [
        0.0,
        0.008080005645751953
      ],
      "type": "VEC2"
    },
    {
      "bufferView": 0,
      "byteOffset": 13008,
      "componentType": 5125,
      "count": 3252,
      "type": "SCALAR"
    },
    {
      "bufferView": 2,
      "byteOffset": 45312,
      "componentType": 5126,
      "count": 61,
      "max": [
        0.31764739751815796,
        0.2925803065299988,
        1.2077856063842773
      ],
      "min": [
        -0.31764739751815796,
        -0.2925803065299988,
        0.004594607278704643
      ],
      "type": "VEC3"
    },
    {
      "bufferView": 2,
      "byteOffset": 46044,
      "componentType": 5126,
      "count": 61,
      "max": [
        0.9531557559967041,
        0.8890705704689026,
        0.6193840503692627
      ],
      "min": [
        -0.9666122198104858,
        -0.8890706300735474,
        -0.9999542832374573
      ],
      "type": "VEC3"
    },
    {
      "bufferView": 3,
      "byteOffset": 30208,
      "componentType": 5126,
      "count": 61,
      "max": [
        0.9999540448188782,
        0.9820826649665833,
        0.3909147083759308,
        1.0
      ],
      "min": [
        -0.9994615912437439,
        -0.9823869466781616,
        -0.34473559260368347,
        1.0
      ],
      "type": "VEC4"
    },
    {
      "bufferView": 1,
      "byteOffset": 15104,
      "componentType": 5126,
      "count": 61,
      "max": [
        0.9405948519706726,
        0.7403494119644165
      ],
      "min": [
        0.011692900210618973,
        0.5003494024276733
      ],
      "type": "VEC2"
    },
    {
      "bufferView": 0,
      "byteOffset": 26016,
      "componentType": 5125,
      "count": 180,
      "type": "SCALAR"
    },
    {
      "bufferView": 2,
      "byteOffset": 46776,
      "componentType": 5126,
      "count": 1328,
      "max": [
        1.0,
        1.0,
        0.6879483461380005
      ],
      "min": [
        -1.0,
        -1.0,
        -1.0
      ],
      "type": "VEC3"
    },
    {
      "bufferView": 2,
      "byteOffset": 62712,
      "componentType": 5126,
      "count": 1328,
      "max": [
        0.9999166131019592,
        0.9999220371246338,
        1.0
      ],
      "min": [
        -0.9998913407325745,
        -0.9999194741249084,
        -1.0
      ],
      "type": "VEC3"
    },
    {
      "bufferView": 3,
      "byteOffset": 31184,
      "componentType": 5126,
      "count": 1328,
      "max": [
        1.0,
        1.0,
        0.038425151258707047,
        1.0
      ],
      "min": [
        -1.0,
        -1.0,
        -0.04929148405790329,
        -1.0
      ],
      "type": "VEC4"
    },
    {
      "bufferView": 1,
      "byteOffset": 15592,
      "componentType": 5126,
      "count": 1328,
      "max": [
        0.8508549928665161,
        0.8543612360954285
      ],
      "min": [
        0.25262153148651123,
        0.5042113661766052
      ],
      "type": "VEC2"
    },
    {
      "bufferView": 0,
      "byteOffset": 26736,
      "componentType": 5125,
      "count": 3714,
      "type": "SCALAR"
    },
    {
      "bufferView": 2,
      "byteOffset": 78648,
      "componentType": 5126,
      "count": 61,
      "max": [
        0.31764739751815796,
        0.2925803065299988,
        1.2077856063842773
      ],
      "min": [
        -0.31764739751815796,
        -0.2925803065299988,
        0.004594607278704643
      ],
      "type": "VEC3"
    },
    {
      "bufferView": 2,
      "byteOffset": 79380,
      "componentType": 5126,
      "count": 61,
      "max": [
        0.9531557559967041,
        0.8890705704689026,
        0.6193840503692627
      ],
      "min": [
        -0.9666122198104858,
        -0.8890706300735474,
        -0.9999542832374573
      ],
      "type": "VEC3"
    },
    {
      "bufferView": 3,
      "byteOffset": 52432,
      "componentType": 5126,
      "count": 61,
      "max": [
        0.9999540448188782,
        0.9820827841758728,
        0.3909146785736084,
        1.0
      ],
      "min": [
        -0.9994615912437439,
        -0.9823869466781616,
        -0.34473565220832825,
        1.0
      ],
      "type": "VEC4"
    },
    {
      "bufferView": 1,
      "byteOffset": 26216,
      "componentType": 5126,
      "count": 61,
      "max": [
        0.7398271560668945,
        0.7403494119644165
      ],
      "min": [
        0.26169291138648987,
        0.5003494024276733
      ],
      "type": "VEC2"
    },
    {
      "bufferView": 0,
      "byteOffset": 41592,
      "componentType": 5125,
      "count": 180,
      "type": "SCALAR"
    },
    {
      "bufferView": 2,
      "byteOffset": 80112,
      "componentType": 5126,
      "count": 1328,
      "max": [
        1.0,
        1.0,
        0.6879483461380005
      ],
      "min": [
        -1.0,
        -1.0,
        -1.0
      ],
      "type": "VEC3"
    },
    {
      "bufferView": 2,
      "byteOffset": 96048,
      "componentType": 5126,
      "count": 1328,
      "max": [
        0.9999166131019592,
        0.9999220371246338,
        1.0
      ],
      "min": [
        -0.9998913407325745,
        -0.9999194741249084,
        -1.0
      ],
      "type": "VEC3"
    },
    {
      "bufferView": 3,
      "byteOffset": 53408,
      "componentType": 5126,
      "count": 1328,
      "max": [
        1.0,
        1.0,
        0.038425151258707047,
        1.0
      ],
      "min": [
        -1.0,
        -1.0,
        -0.04929148405790329,
        -1.0
      ],
      "type": "VEC4"
    },
    {
      "bufferView": 1,
      "byteOffset": 26704,
      "componentType": 5126,
      "count": 1328,
      "max": [
        0.8508549928665161,
        0.8543612360954285
      ],
      "min": [
        0.25262153148651123,
        0.5042113661766052
      ],
      "type": "VEC2"
    },
    {
      "bufferView": 0,
      "byteOffset": 42312,
      "componentType": 5125,
      "count": 3714,
      "type": "SCALAR"
    }
  ],
  "asset": {
    "extras": {
      "author": "Glitch5970 (https://sketchfab.com/Glitch5970)",
      "license": "CC-BY-4.0 (http://creativecommons.org/licenses/by/4.0/)",
      "source": "https://sketchfab.com/3d-models/ketchup-mayo-salt-pepper-fnaf-e8d78a8d1a5e4d6e95570a2c64e7120b",
      "title": "Ketchup , Mayo & Salt , Pepper - FNaF"
    },
    "generator": "Sketchfab-12.64.0",
    "version": "2.0"
  },
  "bufferViews": [
    {
      "buffer": 0,
      "byteLength": 57168,
      "name": "floatBufferViews",
      "target": 34963
    },
    {
      "buffer": 0,
      "byteLength": 37328,
      "byteOffset": 57168,
      "byteStride": 8,
      "name": "floatBufferViews",
      "target": 34962
    },
    {
      "buffer": 0,
      "byteLength": 111984,
      "byteOffset": 94496,
      "byteStride": 12,
      "name": "floatBufferViews",
      "target": 34962
    },
    {
      "buffer": 0,
      "byteLength": 74656,
      "byteOffset": 206480,
      "byteStride": 16,
      "name": "floatBufferViews",
      "target": 34962
    }
  ],
  "buffers": [
    {
      "byteLength": 281136,
      "uri": "scene.bin"
    }
  ],
  "images": [
    {
      "uri": "textures/Scene_-_Root_baseColor.png"
    },
    {
      "uri": "textures/Scene_-_Root_metallicRoughness.png"
    },
    {
      "uri": "textures/Scene_-_Root_normal.png"
    }
  ],
  "materials": [
    {
      "doubleSided": true,
      "name": "Scene_-_Root",
      "normalTexture": {
        "index": 2
      },
      "pbrMetallicRoughness": {
        "baseColorTexture": {
          "index": 0
        },
        "metallicRoughnessTexture": {
          "index": 1
        }
      }
    }
  ],
  "meshes": [
    {
      "name": "Mayo__0",
      "primitives": [
        {
          "attributes": {
            "NORMAL": 1,
            "POSITION": 0,
            "TANGENT": 2,
            "TEXCOORD_0": 3
          },
          "indices": 4,
          "material": 0,
          "mode": 4
        }
      ]
    },
    {
      "name": "Ketchup__0",
      "primitives": [
        {
          "attributes": {
            "NORMAL": 6,
            "POSITION": 5,
            "TANGENT": 7,
            "TEXCOORD_0": 8
          },
          "indices": 9,
          "material": 0,
          "mode": 4
        }
      ]
    },
    {
      "name": "Pepper__0",
      "primitives": [
        {
          "attributes": {
            "NORMAL": 11,
            "POSITION": 10,
            "TANGENT": 12,
            "TEXCOORD_0": 13
          },
          "indices": 14,
          "material": 0,
          "mode": 4
        }
      ]
    },
    {
      "name": "Top__0",
      "primitives": [
        {
          "attributes": {
            "NORMAL": 16,
            "POSITION": 15,
            "TANGENT": 17,
            "TEXCOORD_0": 18
          },
          "indices": 19,
          "material": 0,
          "mode": 4
        }
      ]
    },
    {
      "name": "Salt__0",
      "primitives": [
        {
          "attributes": {
            "NORMAL": 21,
            "POSITION": 20,
            "TANGENT": 22,
            "TEXCOORD_0": 23
          },
          "indices": 24,
          "material": 0,
          "mode": 4
        }
      ]
    },
    {
      "name": "Top.001__0",
      "primitives": [
        {
          "attributes": {
            "NORMAL": 26,
            "POSITION": 25,
            "TANGENT": 27,
            "TEXCOORD_0": 28
          },
          "indices": 29,
          "material": 0,
          "mode": 4
        }
      ]
    }
  ],
  "nodes": [
    {
      "children": [
        1
      ],
      "matrix": [
        1.0,
        0.0,
        0.0,
        0.0,
        0.0,
        2.220446049250313e-16,
        -1.0,
        0.0,
        0.0,
        1.0,
        2.220446049250313e-16,
        0.0,
        0.0,
        0.0,
        0.0,
        1.0
      ],
      "name": "Sketchfab_model"
    },
    {
      "children": [
        2
      ],
      "matrix": [
        1.0,
        0.0,
        0.0,
        0.0,
        0.0,
        0.0,
        1.0,
        0.0,
        0.0,
        -1.0,
        0.0,
        0.0,
        0.0,
        0.0,
        0.0,
        1.0
      ],
      "name": "b984ccf0c43347d187f9044cc6996015.fbx"
    },
    {
      "children": [
        3,
        5,
        7,
        9,
        11,
        13
      ],
      "name": "RootNode"
    },
    {
      "children": [
        4
      ],
      "matrix": [
        39.22004699707031,
        0.0,
        0.0,
        0.0,
        0.0,
        -6.389756702542253e-06,
        -39.220046997069794,
        0.0,
        0.0,
        39.220046997069794,
        -6.389756702542253e-06,
        0.0,
        100.0,
        0.0,
        -100.0,
        1.0
      ],
      "name": "Mayo"
    },
    {
      "mesh": 0,
      "name": "Mayo__0"
    },
    {
      "children": [
        6
      ],
      "matrix": [
        39.22004699707031,
        0.0,
        0.0,
        0.0,
        0.0,
        -6.389756702542253e-06,
        -39.220046997069794,
        0.0,
        0.0,
        39.220046997069794,
        -6.389756702542253e-06,
        0.0,
        0.0,
        0.0,
        100.0,
        1.0
      ],
      "name": "Ketchup"
    },
    {
      "mesh": 1,
      "name": "Ketchup__0"
    },
    {
      "children": [
        8
      ],
      "matrix": [
        100.0,
        0.0,
        0.0,
        0.0,
        0.0,
        -1.629206793918314e-05,
        -99.99999999999868,
        0.0,
        0.0,
        99.99999999999868,
        -1.629206793918314e-05,
        0.0,
        0.0,
        0.0,
        0.0,
        1.0
      ],
      "name": "Pepper"
    },
    {
      "mesh": 2,
      "name": "Pepper__0"
    },
    {
      "children": [
        10
      ],
      "matrix": [
        22.57049560546875,
        0.0,
        0.0,
        0.0,
        0.0,
        -3.677200478253314e-06,
        -22.57049560546845,
        0.0,
        0.0,
        11.949319839477381,
        -1.9467913065179706e-06,
        0.0,
        0.0,
        128.4696044921875,
        0.0,
        1.0
      ],
      "name": "Top"
    },
    {
      "mesh": 3,
      "name": "Top__0"
    },
    {
      "children": [
        12
      ],
      "matrix": [
        100.0,
        0.0,
        0.0,
        0.0,
        0.0,
        -1.629206793918314e-05,
        -99.99999999999868,
        0.0,
        0.0,
        99.99999999999868,
        -1.629206793918314e-05,
        0.0,
        100.0,
        0.0,
        0.0,
        1.0
      ],
      "name": "Salt"
    },
    {
      "mesh": 4,
      "name": "Salt__0"
    },
    {
      "children": [
        14
      ],
      "matrix": [
        22.57049560546875,
        0.0,
        0.0,
        0.0,
        0.0,
        -3.677200478253314e-06,
        -22.57049560546845,
        0.0,
        0.0,
        11.949319839477381,
        -1.9467913065179706e-06,
        0.0,
        100.0,
        128.4696044921875,
        0.0,
        1.0
      ],
      "name": "Top.001"
    },
    {
      "mesh": 5,
      "name": "Top.001__0"
    }
  ],
  "samplers": [
    {
      "magFilter": 9729,
      "minFilter": 9987,
      "wrapS": 10497,
      "wrapT": 10497
    }
  ],
  "scene": 0,
  "scenes": [
    {
      "name": "Sketchfab_Scene",
      "nodes": [
        0
      ]
    }
  ],
  "textures": [
    {
      "sampler": 0,
      "source": 0
    },
    {
      "sampler": 0,
      "source": 1
    },
    {
      "sampler": 0,
      "source": 2
    }
  ]
}
