{
  "accessors": [
    {
      "bufferView": 2,
      "componentType": 5126,
      "count": 615,
      "max": [
        0.07205965369939804,
        0.07205965369939804,
        0.14056971669197083
      ],
      "min": [
        -0.07205965369939804,
        -0.07205965369939804,
        0.0
      ],
      "type": "VEC3"
    },
    {
      "bufferView": 2,
      "byteOffset": 7380,
      "componentType": 5126,
      "count": 615,
      "max": [
        1.0,
        1.0,
        1.0
      ],
      "min": [
        -1.0,
        -1.0,
        -1.0
      ],
      "type": "VEC3"
    },
    {
      "bufferView": 3,
      "componentType": 5126,
      "count": 615,
      "max": [
        1.0,
        0.9945622682571411,
        0.9971954822540283,
        1.0
      ],
      "min": [
        -1.0,
        -0.9945622682571411,
        -1.0,
        1.0
      ],
      "type": "VEC4"
    },
    {
      "bufferView": 1,
      "componentType": 5126,
      "count": 615,
      "max": [
        0.9997068643569946,
        0.999895453453064
      ],
      "min": [
        -0.0028918832540512085,
        -0.0015504956245422363
      ],
      "type": "VEC2"
    },
    {
      "bufferView": 1,
      "byteOffset": 4920,
      "componentType": 5126,
      "count": 615,
      "max": [
        0.9997068643569946,
        0.999895453453064
      ],
      "min": [
        -0.0028918832540512085,
        -0.0015504956245422363
      ],
      "type": "VEC2"
    },
    {
      "bufferView": 1,
      "byteOffset": 9840,
      "componentType": 5126,
      "count": 615,
      "max": [
        0.9997068643569946,
        0.999895453453064
      ],
      "min": [
        -0.0028918832540512085,
        -0.0015504956245422363
      ],
      "type": "VEC2"
    },
    {
      "bufferView": 0,
      "componentType": 5125,
      "count": 1560,
      "type": "SCALAR"
    },
    {
      "bufferView": 2,
      "byteOffset": 14760,
      "componentType": 5126,
      "count": 4401,
      "max": [
        0.08903486281633377,
        0.06730999797582626,
        0.29152369499206543
      ],
      "min": [
        -0.058068208396434784,
        -0.09142406284809113,
        0.11828979104757309
      ],
      "type": "VEC3"
    },
    {
      "bufferView": 2,
      "byteOffset": 67572,
      "componentType": 5126,
      "count": 4401,
      "max": [
        0.9997559785842896,
        0.9993008375167847,
        0.9999483823776245
      ],
      "min": [
        -0.9998453855514526,
        -0.999988853931427,
        -0.9999173879623413
      ],
      "type": "VEC3"
    },
    {
      "bufferView": 1,
      "byteOffset": 14760,
      "componentType": 5126,
      "count": 4401,
      "max": [
        1.0000001192092896,
        1.0000001192092896
      ],
      "min": [
        0.0,
        0.0
      ],
      "type": "VEC2"
    },
    {
      "bufferView": 0,
      "byteOffset": 6240,
      "componentType": 5125,
      "count": 18450,
      "type": "SCALAR"
    },
    {
      "bufferView": 2,
      "byteOffset": 120384,
      "componentType": 5126,
      "count": 96,
      "max": [
        0.06474996358156204,
        0.06474995613098145,
        0.12440522760152817
      ],
      "min": [
        -0.06474995613098145,
        -0.06474995613098145,
        0.11828979104757309
      ],
      "type": "VEC3"
    },
    {
      "bufferView": 2,
      "byteOffset": 121536,
      "componentType": 5126,
      "count": 96,
      "max": [
        0.15666525065898895,
        0.16237549483776093,
        0.998842716217041
      ],
      "min": [
        -0.15666481852531433,
        -0.16237589716911316,
        0.9850362539291382
      ],
      "type": "VEC3"
    },
    {
      "bufferView": 3,
      "byteOffset": 9840,
      "componentType": 5126,
      "count": 96,
      "max": [
        0.9778451323509216,
        0.9772257804870605,
        0.15076345205307007,
        1.0
      ],
      "min": [
        -0.23969334363937378,
        0.20832456648349762,
        -0.1656789779663086,
        -1.0
      ],
      "type": "VEC4"
    },
    {
      "bufferView": 1,
      "byteOffset": 49968,
      "componentType": 5126,
      "count": 96,
      "max": [
        0.9205706119537354,
        1.8360239267349243
      ],
      "min": [
        -0.41806626319885254,
        -0.6777383089065552
      ],
      "type": "VEC2"
    },
    {
      "bufferView": 1,
      "byteOffset": 50736,
      "componentType": 5126,
      "count": 96,
      "max": [
        0.9205706119537354,
        1.8360239267349243
      ],
      "min": [
        -0.41806626319885254,
        -0.6777383089065552
      ],
      "type": "VEC2"
    },
    {
      "bufferView": 1,
      "byteOffset": 51504,
      "componentType": 5126,
      "count": 96,
      "max": [
        0.9205706119537354,
        1.8360239267349243
      ],
      "min": [
        -0.41806626319885254,
        -0.6777383089065552
      ],
      "type": "VEC2"
    },
    {
      "bufferView": 0,
      "byteOffset": 80040,
      "componentType": 5125,
      "count": 144,
      "type": "SCALAR"
    }
  ],
  "asset": {
    "extras": {
      "author": "whyniero (https://sketchfab.com/whyniero)",
      "license": "CC-BY-4.0 (http://creativecommons.org/licenses/by/4.0/)",
      "source": "https://sketchfab.com/3d-models/plant-1bb0cf7261174670ad1134093875e1d1",
      "title": "Plant"
    },
    "generator": "Sketchfab-12.65.0",
    "version": "2.0"
  },
  "bufferViews": [
    {
      "buffer": 0,
      "byteLength": 80616,
      "name": "floatBufferViews",
      "target": 34963
    },
    {
      "buffer": 0,
      "byteLength": 52272,
      "byteOffset": 80616,
      "byteStride": 8,
      "name": "floatBufferViews",
      "target": 34962
    },
    {
      "buffer": 0,
      "byteLength": 122688,
      "byteOffset": 132888,
      "byteStride": 12,
      "name": "floatBufferViews",
      "target": 34962
    },
    {
      "buffer": 0,
      "byteLength": 11376,
      "byteOffset": 255576,
      "byteStride": 16,
      "name": "floatBufferViews",
      "target": 34962
    }
  ],
  "buffers": [
    {
      "byteLength": 266952,
      "uri": "scene.bin"
    }
  ],
  "images": [
    {
      "uri": "textures/Flower_pot_baseColor.jpeg"
    },
    {
      "uri": "textures/Flower_pot_metallicRoughness.png"
    },
    {
      "uri": "textures/Flower_pot_normal.png"
    },
    {
      "uri": "textures/Material.001_baseColor.png"
    },
    {
      "uri": "textures/Land_baseColor.jpeg"
    },
    {
      "uri": "textures/Land_metallicRoughness.png"
    },
    {
      "uri": "textures/Land_normal.png"
    }
  ],
  "materials": [
    {
      "doubleSided": true,
      "name": "Flower_pot",
      "normalTexture": {
        "index": 2
      },
      "pbrMetallicRoughness": {
        "baseColorTexture": {
          "index": 0
        },
        "metallicFactor": 0.0,
        "metallicRoughnessTexture": {
          "index": 1
        }
      }
    },
    {
      "doubleSided": true,
      "name": "Material.001",
      "pbrMetallicRoughness": {
        "baseColorTexture": {
          "index": 3
        },
        "metallicFactor": 0.0,
        "roughnessFactor": 0.9960933422
      }
    },
    {
      "doubleSided": true,
      "name": "Land",
      "normalTexture": {
        "index": 6
      },
      "pbrMetallicRoughness": {
        "baseColorTexture": {
          "index": 4
        },
        "metallicFactor": 0.0,
        "metallicRoughnessTexture": {
          "index": 5
        }
      }
    }
  ],
  "meshes": [
    {
      "name": "Plant_Flower_pot _0",
      "primitives": [
        {
          "attributes": {
            "NORMAL": 1,
            "POSITION": 0,
            "TANGENT": 2,
            "TEXCOORD_0": 3,
            "TEXCOORD_1": 4,
            "TEXCOORD_2": 5
          },
          "indices": 6,
          "material": 0,
          "mode": 4
        }
      ]
    },
    {
      "name": "Plant_Material.001_0",
      "primitives": [
        {
          "attributes": {
            "NORMAL": 8,
            "POSITION": 7,
            "TEXCOORD_0": 9
          },
          "indices": 10,
          "material": 1,
          "mode": 4
        }
      ]
    },
    {
      "name": "Plant_Land_0",
      "primitives": [
        {
          "attributes": {
            "NORMAL": 12,
            "POSITION": 11,
            "TANGENT": 13,
            "TEXCOORD_0": 14,
            "TEXCOORD_1": 15,
            "TEXCOORD_2": 16
          },
          "indices": 17,
          "material": 2,
          "mode": 4
        }
      ]
    }
  ],
  "nodes": [
    {
      "children": [
        1
      ],
      "matrix": [
        1.0,
        0.0,
        0.0,
        0.0,
        0.0,
        2.220446049250313e-16,
        -1.0,
        0.0,
        0.0,
        1.0,
        2.220446049250313e-16,
        0.0,
        0.0,
        0.0,
        0.0,
        1.0
      ],
      "name": "Sketchfab_model"
    },
    {
      "children": [
        2
      ],
      "matrix": [
        0.009999999776482582,
        0.0,
        0.0,
        0.0,
        0.0,
        0.0,
        0.009999999776482582,
        0.0,
        0.0,
        -0.009999999776482582,
        0.0,
        0.0,
        0.0,
        0.0,
        0.0,
        1.0
      ],
      "name": "254b9f59d1d749aa80a40cf612fbd672.fbx"
    },
    {
      "children": [
        3
      ],
      "name": "RootNode"
    },
    {
      "children": [
        4,
        5,
        6
      ],
      "matrix": [
        100.0,
        0.0,
        0.0,
        0.0,
        0.0,
        -1.629206793918314e-05,
        -99.99999999999868,
        0.0,
        0.0,
        99.99999999999868,
        -1.629206793918314e-05,
        0.0,
        0.0,
        0.0,
        0.0,
        1.0
      ],
      "name": "Plant"
    },
    {
      "mesh": 0,
      "name": "Plant_Flower_pot _0"
    },
    {
      "mesh": 1,
      "name": "Plant_Material.001_0"
    },
    {
      "mesh": 2,
      "name": "Plant_Land_0"
    }
  ],
  "samplers": [
    {
      "magFilter": 9729,
      "minFilter": 9987,
      "wrapS": 10497,
      "wrapT": 10497
    }
  ],
  "scene": 0,
  "scenes": [
    {
      "name": "Sketchfab_Scene",
      "nodes": [
        0
      ]
    }
  ],
  "textures": [
    {
      "sampler": 0,
      "source": 0
    },
    {
      "sampler": 0,
      "source": 1
    },
    {
      "sampler": 0,
      "source": 2
    },
    {
      "sampler": 0,
      "source": 3
    },
    {
      "sampler": 0,
      "source": 4
    },
    {
      "sampler": 0,
      "source": 5
    },
    {
      "sampler": 0,
      "source": 6
    }
  ]
}
