{
  "accessors": [
    {
      "bufferView": 2,
      "componentType": 5126,
      "count": 952,
      "max": [
        59.30203628540039,
        -5.647215366363525,
        130.62696838378906
      ],
      "min": [
        -44.85171890258789,
        -147.1664581298828,
        -129.71978759765625
      ],
      "type": "VEC3"
    },
    {
      "bufferView": 2,
      "byteOffset": 11424,
      "componentType": 5126,
      "count": 952,
      "max": [
        1.0,
        1.0,
        1.0
      ],
      "min": [
        -1.0,
        -1.0,
        -1.0
      ],
      "type": "VEC3"
    },
    {
      "bufferView": 1,
      "componentType": 5126,
      "count": 952,
      "max": [
        1.0,
        1.0
      ],
      "min": [
        0.0,
        0.0
      ],
      "type": "VEC2"
    },
    {
      "bufferView": 0,
      "componentType": 5125,
      "count": 1983,
      "type": "SCALAR"
    },
    {
      "bufferView": 2,
      "byteOffset": 22848,
      "componentType": 5126,
      "count": 346,
      "max": [
        59.69934844970703,
        5.647215366363525,
        130.7159423828125
      ],
      "min": [
        -59.69934844970703,
        -5.647215366363525,
        -130.7159423828125
      ],
      "type": "VEC3"
    },
    {
      "bufferView": 2,
      "byteOffset": 27000,
      "componentType": 5126,
      "count": 346,
      "max": [
        0.9938622713088989,
        0.9930619597434998,
        0.9938626885414124
      ],
      "min": [
        -0.9938622713088989,
        -1.0,
        -0.9938626885414124
      ],
      "type": "VEC3"
    },
    {
      "bufferView": 1,
      "byteOffset": 7616,
      "componentType": 5126,
      "count": 346,
      "max": [
        1.0,
        1.0
      ],
      "min": [
        0.0,
        0.0
      ],
      "type": "VEC2"
    },
    {
      "bufferView": 0,
      "byteOffset": 7932,
      "componentType": 5125,
      "count": 1494,
      "type": "SCALAR"
    },
    {
      "bufferView": 2,
      "byteOffset": 31152,
      "componentType": 5126,
      "count": 1327,
      "max": [
        25.782169342041016,
        12.430492401123047,
        28.3217830657959
      ],
      "min": [
        -25.782169342041016,
        -12.289767265319824,
        -28.3217830657959
      ],
      "type": "VEC3"
    },
    {
      "bufferView": 2,
      "byteOffset": 47076,
      "componentType": 5126,
      "count": 1327,
      "max": [
        1.0,
        1.0,
        1.0
      ],
      "min": [
        -1.0,
        -1.0,
        -1.0
      ],
      "type": "VEC3"
    },
    {
      "bufferView": 1,
      "byteOffset": 10384,
      "componentType": 5126,
      "count": 1327,
      "max": [
        1.0,
        1.0
      ],
      "min": [
        0.0,
        0.0
      ],
      "type": "VEC2"
    },
    {
      "bufferView": 0,
      "byteOffset": 13908,
      "componentType": 5125,
      "count": 6159,
      "type": "SCALAR"
    },
    {
      "bufferView": 2,
      "byteOffset": 63000,
      "componentType": 5126,
      "count": 967,
      "max": [
        21.171972274780273,
        53.2491455078125,
        0.7963851690292358
      ],
      "min": [
        -22.2637882232666,
        -53.2491455078125,
        -2.5788300037384033
      ],
      "type": "VEC3"
    },
    {
      "bufferView": 2,
      "byteOffset": 74604,
      "componentType": 5126,
      "count": 967,
      "max": [
        1.0,
        1.0,
        1.0
      ],
      "min": [
        -1.0,
        -1.0,
        -1.0
      ],
      "type": "VEC3"
    },
    {
      "bufferView": 1,
      "byteOffset": 21000,
      "componentType": 5126,
      "count": 967,
      "max": [
        1.0028297901153564,
        1.2232173681259155
      ],
      "min": [
        0.0,
        0.0
      ],
      "type": "VEC2"
    },
    {
      "bufferView": 0,
      "byteOffset": 38544,
      "componentType": 5125,
      "count": 1956,
      "type": "SCALAR"
    },
    {
      "bufferView": 2,
      "byteOffset": 86208,
      "componentType": 5126,
      "count": 967,
      "max": [
        21.171972274780273,
        53.2491455078125,
        0.7963851690292358
      ],
      "min": [
        -22.2637882232666,
        -53.2491455078125,
        -2.5788300037384033
      ],
      "type": "VEC3"
    },
    {
      "bufferView": 2,
      "byteOffset": 97812,
      "componentType": 5126,
      "count": 967,
      "max": [
        1.0,
        1.0,
        1.0
      ],
      "min": [
        -1.0,
        -1.0,
        -1.0
      ],
      "type": "VEC3"
    },
    {
      "bufferView": 1,
      "byteOffset": 28736,
      "componentType": 5126,
      "count": 967,
      "max": [
        1.0028297901153564,
        1.2232173681259155
      ],
      "min": [
        0.0,
        0.0
      ],
      "type": "VEC2"
    },
    {
      "bufferView": 0,
      "byteOffset": 46368,
      "componentType": 5125,
      "count": 1956,
      "type": "SCALAR"
    },
    {
      "bufferView": 2,
      "byteOffset": 109416,
      "componentType": 5126,
      "count": 1327,
      "max": [
        25.782169342041016,
        12.430492401123047,
        28.3217830657959
      ],
      "min": [
        -25.782169342041016,
        -12.289767265319824,
        -28.3217830657959
      ],
      "type": "VEC3"
    },
    {
      "bufferView": 2,
      "byteOffset": 125340,
      "componentType": 5126,
      "count": 1327,
      "max": [
        1.0,
        1.0,
        1.0
      ],
      "min": [
        -1.0,
        -1.0,
        -1.0
      ],
      "type": "VEC3"
    },
    {
      "bufferView": 1,
      "byteOffset": 36472,
      "componentType": 5126,
      "count": 1327,
      "max": [
        1.0,
        1.0
      ],
      "min": [
        0.0,
        0.0
      ],
      "type": "VEC2"
    },
    {
      "bufferView": 0,
      "byteOffset": 54192,
      "componentType": 5125,
      "count": 6159,
      "type": "SCALAR"
    },
    {
      "bufferView": 2,
      "byteOffset": 141264,
      "componentType": 5126,
      "count": 967,
      "max": [
        21.171972274780273,
        53.2491455078125,
        0.7963851690292358
      ],
      "min": [
        -22.2637882232666,
        -53.2491455078125,
        -2.5788300037384033
      ],
      "type": "VEC3"
    },
    {
      "bufferView": 2,
      "byteOffset": 152868,
      "componentType": 5126,
      "count": 967,
      "max": [
        1.0,
        1.0,
        1.0
      ],
      "min": [
        -1.0,
        -1.0,
        -1.0
      ],
      "type": "VEC3"
    },
    {
      "bufferView": 1,
      "byteOffset": 47088,
      "componentType": 5126,
      "count": 967,
      "max": [
        1.0028297901153564,
        1.2232173681259155
      ],
      "min": [
        0.0,
        0.0
      ],
      "type": "VEC2"
    },
    {
      "bufferView": 0,
      "byteOffset": 78828,
      "componentType": 5125,
      "count": 1956,
      "type": "SCALAR"
    },
    {
      "bufferView": 2,
      "byteOffset": 164472,
      "componentType": 5126,
      "count": 967,
      "max": [
        21.171972274780273,
        53.2491455078125,
        0.7963851690292358
      ],
      "min": [
        -22.2637882232666,
        -53.2491455078125,
        -2.5788300037384033
      ],
      "type": "VEC3"
    },
    {
      "bufferView": 2,
      "byteOffset": 176076,
      "componentType": 5126,
      "count": 967,
      "max": [
        1.0,
        1.0,
        1.0
      ],
      "min": [
        -1.0,
        -1.0,
        -1.0
      ],
      "type": "VEC3"
    },
    {
      "bufferView": 1,
      "byteOffset": 54824,
      "componentType": 5126,
      "count": 967,
      "max": [
        1.0028297901153564,
        1.2232173681259155
      ],
      "min": [
        0.0,
        0.0
      ],
      "type": "VEC2"
    },
    {
      "bufferView": 0,
      "byteOffset": 86652,
      "componentType": 5125,
      "count": 1956,
      "type": "SCALAR"
    },
    {
      "bufferView": 2,
      "byteOffset": 187680,
      "componentType": 5126,
      "count": 1327,
      "max": [
        25.782169342041016,
        12.430492401123047,
        28.3217830657959
      ],
      "min": [
        -25.782169342041016,
        -12.289767265319824,
        -28.3217830657959
      ],
      "type": "VEC3"
    },
    {
      "bufferView": 2,
      "byteOffset": 203604,
      "componentType": 5126,
      "count": 1327,
      "max": [
        1.0,
        1.0,
        1.0
      ],
      "min": [
        -1.0,
        -1.0,
        -1.0
      ],
      "type": "VEC3"
    },
    {
      "bufferView": 1,
      "byteOffset": 62560,
      "componentType": 5126,
      "count": 1327,
      "max": [
        1.0,
        1.0
      ],
      "min": [
        0.0,
        0.0
      ],
      "type": "VEC2"
    },
    {
      "bufferView": 0,
      "byteOffset": 94476,
      "componentType": 5125,
      "count": 6159,
      "type": "SCALAR"
    },
    {
      "bufferView": 2,
      "byteOffset": 219528,
      "componentType": 5126,
      "count": 967,
      "max": [
        21.171972274780273,
        53.2491455078125,
        0.7963851690292358
      ],
      "min": [
        -22.2637882232666,
        -53.2491455078125,
        -2.5788300037384033
      ],
      "type": "VEC3"
    },
    {
      "bufferView": 2,
      "byteOffset": 231132,
      "componentType": 5126,
      "count": 967,
      "max": [
        1.0,
        1.0,
        1.0
      ],
      "min": [
        -1.0,
        -1.0,
        -1.0
      ],
      "type": "VEC3"
    },
    {
      "bufferView": 1,
      "byteOffset": 73176,
      "componentType": 5126,
      "count": 967,
      "max": [
        1.0028297901153564,
        1.2232173681259155
      ],
      "min": [
        0.0,
        0.0
      ],
      "type": "VEC2"
    },
    {
      "bufferView": 0,
      "byteOffset": 119112,
      "componentType": 5125,
      "count": 1956,
      "type": "SCALAR"
    },
    {
      "bufferView": 2,
      "byteOffset": 242736,
      "componentType": 5126,
      "count": 967,
      "max": [
        21.171972274780273,
        53.2491455078125,
        0.7963851690292358
      ],
      "min": [
        -22.2637882232666,
        -53.2491455078125,
        -2.5788300037384033
      ],
      "type": "VEC3"
    },
    {
      "bufferView": 2,
      "byteOffset": 254340,
      "componentType": 5126,
      "count": 967,
      "max": [
        1.0,
        1.0,
        1.0
      ],
      "min": [
        -1.0,
        -1.0,
        -1.0
      ],
      "type": "VEC3"
    },
    {
      "bufferView": 1,
      "byteOffset": 80912,
      "componentType": 5126,
      "count": 967,
      "max": [
        1.0028297901153564,
        1.2232173681259155
      ],
      "min": [
        0.0,
        0.0
      ],
      "type": "VEC2"
    },
    {
      "bufferView": 0,
      "byteOffset": 126936,
      "componentType": 5125,
      "count": 1956,
      "type": "SCALAR"
    }
  ],
  "asset": {
    "extras": {
      "author": "OnOne Supplies (https://sketchfab.com/ononesupplies)",
      "license": "CC-BY-4.0 (http://creativecommons.org/licenses/by/4.0/)",
      "source": "https://sketchfab.com/3d-models/dining-table-lowpoly-389cc90cfc3c45d5b5597e493f06edc3",
      "title": "Dining Table Lowpoly"
    },
    "generator": "Sketchfab-12.66.0",
    "version": "2.0"
  },
  "bufferViews": [
    {
      "buffer": 0,
      "byteLength": 134760,
      "name": "floatBufferViews",
      "target": 34963
    },
    {
      "buffer": 0,
      "byteLength": 88648,
      "byteOffset": 134760,
      "byteStride": 8,
      "name": "floatBufferViews",
      "target": 34962
    },
    {
      "buffer": 0,
      "byteLength": 265944,
      "byteOffset": 223408,
      "byteStride": 12,
      "name": "floatBufferViews",
      "target": 34962
    }
  ],
  "buffers": [
    {
      "byteLength": 489352,
      "uri": "scene.bin"
    }
  ],
  "extensionsUsed": [
    "KHR_materials_clearcoat"
  ],
  "materials": [
    {
      "doubleSided": true,
      "extensions": {
        "KHR_materials_clearcoat": {
          "clearcoatFactor": 1.0,
          "clearcoatRoughnessFactor": 0.04
        }
      },
      "name": "material",
      "pbrMetallicRoughness": {
        "baseColorFactor": [
          0.6238276666119451,
          0.6238276666119451,
          0.6238276666119451,
          1.0
        ],
        "metallicFactor": 0.056431607172172264,
        "roughnessFactor": 0.3300393995220984
      }
    },
    {
      "doubleSided": true,
      "extensions": {
        "KHR_materials_clearcoat": {
          "clearcoatFactor": 1.0,
          "clearcoatRoughnessFactor": 0.04
        }
      },
      "name": "Mat.1",
      "pbrMetallicRoughness": {
        "baseColorFactor": [
          0.25491696003502184,
          0.25491696003502184,
          0.25491696003502184,
          1.0
        ],
        "metallicFactor": 0.2570773215621181,
        "roughnessFactor": 0.4455626896254005
      }
    }
  ],
  "meshes": [
    {
      "name": "Table_Mat_0",
      "primitives": [
        {
          "attributes": {
            "NORMAL": 1,
            "POSITION": 0,
            "TEXCOORD_0": 2
          },
          "indices": 3,
          "material": 0,
          "mode": 4
        }
      ]
    },
    {
      "name": "Table_Mat.1_0",
      "primitives": [
        {
          "attributes": {
            "NORMAL": 5,
            "POSITION": 4,
            "TEXCOORD_0": 6
          },
          "indices": 7,
          "material": 1,
          "mode": 4
        }
      ]
    },
    {
      "name": "Chair_2_Mat_0",
      "primitives": [
        {
          "attributes": {
            "NORMAL": 9,
            "POSITION": 8,
            "TEXCOORD_0": 10
          },
          "indices": 11,
          "material": 0,
          "mode": 4
        }
      ]
    },
    {
      "name": "Leg_3_Mat.1_0",
      "primitives": [
        {
          "attributes": {
            "NORMAL": 13,
            "POSITION": 12,
            "TEXCOORD_0": 14
          },
          "indices": 15,
          "material": 1,
          "mode": 4
        }
      ]
    },
    {
      "name": "Leg_1_2_Mat.1_0",
      "primitives": [
        {
          "attributes": {
            "NORMAL": 17,
            "POSITION": 16,
            "TEXCOORD_0": 18
          },
          "indices": 19,
          "material": 1,
          "mode": 4
        }
      ]
    },
    {
      "name": "Chair_3_Mat_0",
      "primitives": [
        {
          "attributes": {
            "NORMAL": 21,
            "POSITION": 20,
            "TEXCOORD_0": 22
          },
          "indices": 23,
          "material": 0,
          "mode": 4
        }
      ]
    },
    {
      "name": "Leg_6_Mat.1_0",
      "primitives": [
        {
          "attributes": {
            "NORMAL": 25,
            "POSITION": 24,
            "TEXCOORD_0": 26
          },
          "indices": 27,
          "material": 1,
          "mode": 4
        }
      ]
    },
    {
      "name": "Leg_1_4_Mat.1_0",
      "primitives": [
        {
          "attributes": {
            "NORMAL": 29,
            "POSITION": 28,
            "TEXCOORD_0": 30
          },
          "indices": 31,
          "material": 1,
          "mode": 4
        }
      ]
    },
    {
      "name": "Chair_4_Mat_0",
      "primitives": [
        {
          "attributes": {
            "NORMAL": 33,
            "POSITION": 32,
            "TEXCOORD_0": 34
          },
          "indices": 35,
          "material": 0,
          "mode": 4
        }
      ]
    },
    {
      "name": "Leg_9_Mat.1_0",
      "primitives": [
        {
          "attributes": {
            "NORMAL": 37,
            "POSITION": 36,
            "TEXCOORD_0": 38
          },
          "indices": 39,
          "material": 1,
          "mode": 4
        }
      ]
    },
    {
      "name": "Leg_1_6_Mat.1_0",
      "primitives": [
        {
          "attributes": {
            "NORMAL": 41,
            "POSITION": 40,
            "TEXCOORD_0": 42
          },
          "indices": 43,
          "material": 1,
          "mode": 4
        }
      ]
    }
  ],
  "nodes": [
    {
      "children": [
        1
      ],
      "matrix": [
        1.0,
        0.0,
        0.0,
        0.0,
        0.0,
        2.220446049250313e-16,
        -1.0,
        0.0,
        0.0,
        1.0,
        2.220446049250313e-16,
        0.0,
        0.0,
        0.0,
        0.0,
        1.0
      ],
      "name": "Sketchfab_model"
    },
    {
      "children": [
        2
      ],
      "matrix": [
        1.0,
        0.0,
        0.0,
        0.0,
        0.0,
        0.0,
        1.0,
        0.0,
        0.0,
        -1.0,
        0.0,
        0.0,
        0.0,
        0.0,
        0.0,
        1.0
      ],
      "name": "fedde3420489490a9c03d91033aecf50.fbx"
    },
    {
      "children": [
        3,
        5,
        8
      ],
      "name": "RootNode"
    },
    {
      "children": [
        4
      ],
      "matrix": [
        0.46471765112697083,
        -0.587568156445202,
        -0.6624206867713429,
        0.0,
        0.33744666083091035,
        0.8091746792452088,
        -0.48100529057639474,
        0.0,
        0.8186374385679533,
        8.326672684688674e-17,
        0.5743106686932609,
        0.0,
        -401.0802307128906,
        348.7825927734375,
        469.33099365234375,
        1.0
      ],
      "name": "CINEMA_4D_Editor"
    },
    {
      "name": "Object_4"
    },
    {
      "children": [
        6,
        7
      ],
      "matrix": [
        1.0,
        0.0,
        0.0,
        0.0,
        0.0,
        1.0,
        0.0,
        0.0,
        0.0,
        0.0,
        1.0,
        0.0,
        -7.1405510902404785,
        15.190818786621094,
        0.0,
        1.0
      ],
      "name": "Table"
    },
    {
      "mesh": 0,
      "name": "Table_Mat_0"
    },
    {
      "mesh": 1,
      "name": "Table_Mat.1_0"
    },
    {
      "children": [
        9,
        19,
        29
      ],
      "matrix": [
        1.0,
        0.0,
        0.0,
        0.0,
        0.0,
        1.0,
        0.0,
        0.0,
        0.0,
        0.0,
        1.0,
        0.0,
        -40.897369384765625,
        -27.147464752197266,
        85.12908935546875,
        1.0
      ],
      "name": "Chair"
    },
    {
      "children": [
        10,
        12
      ],
      "name": "Chair_0"
    },
    {
      "children": [
        11
      ],
      "matrix": [
        1.0,
        0.0,
        0.0,
        0.0,
        0.0,
        1.0,
        0.0,
        0.0,
        0.0,
        0.0,
        1.0,
        0.0,
        -69.29452514648438,
        13.312901496887207,
        -11.413908004760742,
        1.0
      ],
      "name": "Chair_2"
    },
    {
      "mesh": 2,
      "name": "Chair_2_Mat_0"
    },
    {
      "children": [
        13,
        16
      ],
      "matrix": [
        1.0,
        0.0,
        0.0,
        0.0,
        0.0,
        1.0,
        0.0,
        0.0,
        0.0,
        0.0,
        1.0,
        0.0,
        -68.95611572265625,
        -51.279075622558594,
        11.413908004760742,
        1.0
      ],
      "name": "Leg"
    },
    {
      "children": [
        14
      ],
      "matrix": [
        1.0,
        0.0,
        0.0,
        0.0,
        0.0,
        1.0,
        0.0,
        0.0,
        0.0,
        0.0,
        1.0,
        0.0,
        0.0,
        0.0,
        -45.64860916137695,
        1.0
      ],
      "name": "Leg_2"
    },
    {
      "children": [
        15
      ],
      "name": "Leg_3"
    },
    {
      "mesh": 3,
      "name": "Leg_3_Mat.1_0"
    },
    {
      "children": [
        17
      ],
      "matrix": [
        1.0,
        0.0,
        0.0,
        0.0,
        0.0,
        1.0,
        0.0,
        0.0,
        0.0,
        0.0,
        1.0,
        0.0,
        0.0,
        0.0,
        1.6738038063049316,
        1.0
      ],
      "name": "Leg_1"
    },
    {
      "children": [
        18
      ],
      "name": "Leg_1_2"
    },
    {
      "mesh": 4,
      "name": "Leg_1_2_Mat.1_0"
    },
    {
      "children": [
        20,
        22
      ],
      "matrix": [
        1.0,
        0.0,
        0.0,
        0.0,
        0.0,
        1.0,
        0.0,
        0.0,
        0.0,
        0.0,
        1.0,
        0.0,
        0.0,
        0.0,
        -75.0,
        1.0
      ],
      "name": "Chair_1"
    },
    {
      "children": [
        21
      ],
      "matrix": [
        1.0,
        0.0,
        0.0,
        0.0,
        0.0,
        1.0,
        0.0,
        0.0,
        0.0,
        0.0,
        1.0,
        0.0,
        -69.29452514648438,
        13.312901496887207,
        -11.413908004760742,
        1.0
      ],
      "name": "Chair_3"
    },
    {
      "mesh": 5,
      "name": "Chair_3_Mat_0"
    },
    {
      "children": [
        23,
        26
      ],
      "matrix": [
        1.0,
        0.0,
        0.0,
        0.0,
        0.0,
        1.0,
        0.0,
        0.0,
        0.0,
        0.0,
        1.0,
        0.0,
        -68.95611572265625,
        -51.279075622558594,
        11.413908004760742,
        1.0
      ],
      "name": "Leg_4"
    },
    {
      "children": [
        24
      ],
      "matrix": [
        1.0,
        0.0,
        0.0,
        0.0,
        0.0,
        1.0,
        0.0,
        0.0,
        0.0,
        0.0,
        1.0,
        0.0,
        0.0,
        0.0,
        -45.64860916137695,
        1.0
      ],
      "name": "Leg_5"
    },
    {
      "children": [
        25
      ],
      "name": "Leg_6"
    },
    {
      "mesh": 6,
      "name": "Leg_6_Mat.1_0"
    },
    {
      "children": [
        27
      ],
      "matrix": [
        1.0,
        0.0,
        0.0,
        0.0,
        0.0,
        1.0,
        0.0,
        0.0,
        0.0,
        0.0,
        1.0,
        0.0,
        0.0,
        0.0,
        1.6738038063049316,
        1.0
      ],
      "name": "Leg_1_3"
    },
    {
      "children": [
        28
      ],
      "name": "Leg_1_4"
    },
    {
      "mesh": 7,
      "name": "Leg_1_4_Mat.1_0"
    },
    {
      "children": [
        30,
        32
      ],
      "matrix": [
        1.0,
        0.0,
        0.0,
        0.0,
        0.0,
        1.0,
        0.0,
        0.0,
        0.0,
        0.0,
        1.0,
        0.0,
        0.0,
        0.0,
        -150.0,
        1.0
      ],
      "name": "Chair_2_2"
    },
    {
      "children": [
        31
      ],
      "matrix": [
        1.0,
        0.0,
        0.0,
        0.0,
        0.0,
        1.0,
        0.0,
        0.0,
        0.0,
        0.0,
        1.0,
        0.0,
        -69.29452514648438,
        13.312901496887207,
        -11.413908004760742,
        1.0
      ],
      "name": "Chair_4"
    },
    {
      "mesh": 8,
      "name": "Chair_4_Mat_0"
    },
    {
      "children": [
        33,
        36
      ],
      "matrix": [
        1.0,
        0.0,
        0.0,
        0.0,
        0.0,
        1.0,
        0.0,
        0.0,
        0.0,
        0.0,
        1.0,
        0.0,
        -68.95611572265625,
        -51.279075622558594,
        11.413908004760742,
        1.0
      ],
      "name": "Leg_7"
    },
    {
      "children": [
        34
      ],
      "matrix": [
        1.0,
        0.0,
        0.0,
        0.0,
        0.0,
        1.0,
        0.0,
        0.0,
        0.0,
        0.0,
        1.0,
        0.0,
        0.0,
        0.0,
        -45.64860916137695,
        1.0
      ],
      "name": "Leg_8"
    },
    {
      "children": [
        35
      ],
      "name": "Leg_9"
    },
    {
      "mesh": 9,
      "name": "Leg_9_Mat.1_0"
    },
    {
      "children": [
        37
      ],
      "matrix": [
        1.0,
        0.0,
        0.0,
        0.0,
        0.0,
        1.0,
        0.0,
        0.0,
        0.0,
        0.0,
        1.0,
        0.0,
        0.0,
        0.0,
        1.6738038063049316,
        1.0
      ],
      "name": "Leg_1_5"
    },
    {
      "children": [
        38
      ],
      "name": "Leg_1_6"
    },
    {
      "mesh": 10,
      "name": "Leg_1_6_Mat.1_0"
    }
  ],
  "scene": 0,
  "scenes": [
    {
      "name": "Sketchfab_Scene",
      "nodes": [
        0
      ]
    }
  ]
}
