{
  "accessors": [
    {
      "bufferView": 2,
      "componentType": 5126,
      "count": 518,
      "max": [
        0.019689710810780525,
        0.3122045397758484,
        0.688502848148346
      ],
      "min": [
        -1.3194751739501953,
        -0.2668076157569885,
        0.009950096718966961
      ],
      "type": "VEC3"
    },
    {
      "bufferView": 2,
      "byteOffset": 6216,
      "componentType": 5126,
      "count": 518,
      "max": [
        1.0,
        1.0,
        1.0
      ],
      "min": [
        -1.0,
        -1.0,
        -1.0
      ],
      "type": "VEC3"
    },
    {
      "bufferView": 1,
      "componentType": 5126,
      "count": 518,
      "max": [
        0.4128514230251312,
        0.9351823329925537
      ],
      "min": [
        0.09984108805656433,
        0.5536656975746155
      ],
      "type": "VEC2"
    },
    {
      "bufferView": 0,
      "componentType": 5125,
      "count": 744,
      "type": "SCALAR"
    },
    {
      "bufferView": 2,
      "byteOffset": 12432,
      "componentType": 5126,
      "count": 24,
      "max": [
        0.04216688871383667,
        0.3360976576805115,
        0.7139939069747925
      ],
      "min": [
        -1.3467309474945068,
        -0.2883114218711853,
        0.680237352848053
      ],
      "type": "VEC3"
    },
    {
      "bufferView": 2,
      "byteOffset": 12720,
      "componentType": 5126,
      "count": 24,
      "max": [
        1.0,
        1.0,
        1.0
      ],
      "min": [
        -1.0,
        -1.0,
        -1.0
      ],
      "type": "VEC3"
    },
    {
      "bufferView": 1,
      "byteOffset": 4144,
      "componentType": 5126,
      "count": 24,
      "max": [
        0.9945189356803894,
        1.1593585014343262
      ],
      "min": [
        0.005481064319610596,
        -0.15935856103897095
      ],
      "type": "VEC2"
    },
    {
      "bufferView": 0,
      "byteOffset": 2976,
      "componentType": 5125,
      "count": 36,
      "type": "SCALAR"
    },
    {
      "bufferView": 2,
      "byteOffset": 13008,
      "componentType": 5126,
      "count": 24,
      "max": [
        1.5081164836883545,
        1.0,
        6.0804548263549805
      ],
      "min": [
        -1.512803316116333,
        -1.0,
        4.0804548263549805
      ],
      "type": "VEC3"
    },
    {
      "bufferView": 2,
      "byteOffset": 13296,
      "componentType": 5126,
      "count": 24,
      "max": [
        1.0,
        1.0,
        1.0
      ],
      "min": [
        -1.0,
        -1.0,
        -1.0
      ],
      "type": "VEC3"
    },
    {
      "bufferView": 1,
      "byteOffset": 4336,
      "componentType": 5126,
      "count": 24,
      "max": [
        0.875,
        1.0
      ],
      "min": [
        0.125,
        0.0
      ],
      "type": "VEC2"
    },
    {
      "bufferView": 0,
      "byteOffset": 3120,
      "componentType": 5125,
      "count": 36,
      "type": "SCALAR"
    },
    {
      "bufferView": 2,
      "byteOffset": 13584,
      "componentType": 5126,
      "count": 160,
      "max": [
        1.4560575485229492,
        0.9286308288574219,
        4.0222039222717285
      ],
      "min": [
        -1.4388118982315063,
        -0.9341583847999573,
        -0.04278993606567383
      ],
      "type": "VEC3"
    },
    {
      "bufferView": 2,
      "byteOffset": 15504,
      "componentType": 5126,
      "count": 160,
      "max": [
        0.7866614460945129,
        0.7104740738868713,
        0.584955632686615
      ],
      "min": [
        -0.7866615653038025,
        -0.7104739546775818,
        -0.7255997657775879
      ],
      "type": "VEC3"
    },
    {
      "bufferView": 1,
      "byteOffset": 4528,
      "componentType": 5126,
      "count": 160,
      "max": [
        0.3615853786468506,
        0.949021577835083
      ],
      "min": [
        0.0907769575715065,
        0.542809009552002
      ],
      "type": "VEC2"
    },
    {
      "bufferView": 0,
      "byteOffset": 3264,
      "componentType": 5125,
      "count": 840,
      "type": "SCALAR"
    }
  ],
  "asset": {
    "extras": {
      "author": "Benji Labs (https://sketchfab.com/benjilabs)",
      "license": "CC-BY-4.0 (http://creativecommons.org/licenses/by/4.0/)",
      "source": "https://sketchfab.com/3d-models/home-office-desk-oak-f5edd5998d934268935de5cdeb310b00",
      "title": "Home Office Desk (Oak)"
    },
    "generator": "Sketchfab-12.88.0",
    "version": "2.0"
  },
  "bufferViews": [
    {
      "buffer": 0,
      "byteLength": 6624,
      "name": "floatBufferViews",
      "target": 34963
    },
    {
      "buffer": 0,
      "byteLength": 5808,
      "byteOffset": 6624,
      "byteStride": 8,
      "name": "floatBufferViews",
      "target": 34962
    },
    {
      "buffer": 0,
      "byteLength": 17424,
      "byteOffset": 12432,
      "byteStride": 12,
      "name": "floatBufferViews",
      "target": 34962
    }
  ],
  "buffers": [
    {
      "byteLength": 29856,
      "uri": "scene.bin"
    }
  ],
  "extensionsUsed": [
    "KHR_texture_transform"
  ],
  "images": [
    {
      "uri": "textures/Desk_Oak_baseColor.png"
    },
    {
      "uri": "textures/Desk_Oak_metallicRoughness.png"
    }
  ],
  "materials": [
    {
      "doubleSided": true,
      "name": "Metal_Black",
      "pbrMetallicRoughness": {
        "baseColorFactor": [
          0.025191469456802475,
          0.025191469456802475,
          0.025191469456802475,
          1.0
        ],
        "roughnessFactor": 0.5714285714285714
      }
    },
    {
      "doubleSided": true,
      "name": "Desk_Oak",
      "pbrMetallicRoughness": {
        "baseColorTexture": {
          "extensions": {
            "KHR_texture_transform": {
              "rotation": 1.5707963267948966,
              "scale": [
                4.223482544602492,
                4.223482544602492
              ]
            }
          },
          "index": 0
        },
        "metallicFactor": 0.0,
        "metallicRoughnessTexture": {
          "index": 1
        }
      }
    },
    {
      "doubleSided": true,
      "name": "Desk_Black",
      "pbrMetallicRoughness": {
        "baseColorFactor": [
          0.0271996,
          0.0271996,
          0.0271996,
          1.0
        ],
        "metallicFactor": 0.0,
        "roughnessFactor": 0.997467315917394
      }
    }
  ],
  "meshes": [
    {
      "name": "Desk #2_Metal Black_0",
      "primitives": [
        {
          "attributes": {
            "NORMAL": 1,
            "POSITION": 0,
            "TEXCOORD_0": 2
          },
          "indices": 3,
          "material": 0,
          "mode": 4
        }
      ]
    },
    {
      "name": "Desk #2_Desk Oak_0",
      "primitives": [
        {
          "attributes": {
            "NORMAL": 5,
            "POSITION": 4,
            "TEXCOORD_0": 6
          },
          "indices": 7,
          "material": 1,
          "mode": 4
        }
      ]
    },
    {
      "name": "Monitor Riser_Desk Oak_0",
      "primitives": [
        {
          "attributes": {
            "NORMAL": 9,
            "POSITION": 8,
            "TEXCOORD_0": 10
          },
          "indices": 11,
          "material": 1,
          "mode": 4
        }
      ]
    },
    {
      "name": "Monitor Riser_Desk Black_0",
      "primitives": [
        {
          "attributes": {
            "NORMAL": 13,
            "POSITION": 12,
            "TEXCOORD_0": 14
          },
          "indices": 15,
          "material": 2,
          "mode": 4
        }
      ]
    }
  ],
  "nodes": [
    {
      "children": [
        1
      ],
      "matrix": [
        1.0,
        0.0,
        0.0,
        0.0,
        0.0,
        2.220446049250313e-16,
        -1.0,
        0.0,
        0.0,
        1.0,
        2.220446049250313e-16,
        0.0,
        0.0,
        0.0,
        0.0,
        1.0
      ],
      "name": "Sketchfab_model"
    },
    {
      "children": [
        2
      ],
      "matrix": [
        0.009999999776482582,
        0.0,
        0.0,
        0.0,
        0.0,
        0.0,
        0.009999999776482582,
        0.0,
        0.0,
        -0.009999999776482582,
        0.0,
        0.0,
        0.0,
        0.0,
        0.0,
        1.0
      ],
      "name": "771731cafc164c2783c37e25f2366eb2.fbx"
    },
    {
      "children": [
        3,
        6
      ],
      "name": "RootNode"
    },
    {
      "children": [
        4,
        5
      ],
      "matrix": [
        100.0,
        0.0,
        0.0,
        0.0,
        0.0,
        -1.629206793918314e-05,
        -99.99999999999868,
        0.0,
        0.0,
        99.99999999999868,
        -1.629206793918314e-05,
        0.0,
        65.31481170654297,
        -1.2179046869277954,
        -82.02379608154297,
        1.0
      ],
      "name": "Desk #2"
    },
    {
      "mesh": 0,
      "name": "Desk #2_Metal Black_0"
    },
    {
      "mesh": 1,
      "name": "Desk #2_Desk Oak_0"
    },
    {
      "children": [
        7,
        8
      ],
      "matrix": [
        44.24451446533203,
        0.0,
        0.0,
        0.0,
        -0.0,
        -1.4751529561588804e-06,
        -9.054424285888553,
        0.0,
        0.0,
        1.4050441980361752,
        -2.2891075531960762e-07,
        0.0,
        -0.05183732137084007,
        70.16183471679688,
        -103.05490112304688,
        1.0
      ],
      "name": "Monitor Riser"
    },
    {
      "mesh": 2,
      "name": "Monitor Riser_Desk Oak_0"
    },
    {
      "mesh": 3,
      "name": "Monitor Riser_Desk Black_0"
    }
  ],
  "samplers": [
    {
      "magFilter": 9729,
      "minFilter": 9987,
      "wrapS": 10497,
      "wrapT": 10497
    }
  ],
  "scene": 0,
  "scenes": [
    {
      "name": "Sketchfab_Scene",
      "nodes": [
        0
      ]
    }
  ],
  "textures": [
    {
      "sampler": 0,
      "source": 0
    },
    {
      "sampler": 0,
      "source": 1
    }
  ]
}
