{
  "accessors": [
    {
      "bufferView": 2,
      "componentType": 5126,
      "count": 460,
      "max": [
        0.16894316673278809,
        -0.3344018757343292,
        0.005986988544464111
      ],
      "min": [
        -0.1689431518316269,
        -0.5969994068145752,
        -0.015911132097244263
      ],
      "type": "VEC3"
    },
    {
      "bufferView": 2,
      "byteOffset": 5520,
      "componentType": 5126,
      "count": 460,
      "max": [
        1.0,
        1.0,
        0.9999802112579346
      ],
      "min": [
        -1.0,
        -1.0,
        -0.9999802112579346
      ],
      "type": "VEC3"
    },
    {
      "bufferView": 3,
      "componentType": 5126,
      "count": 460,
      "max": [
        0.9999997019767761,
        0.17840400338172913,
        1.0,
        1.0
      ],
      "min": [
        -0.9999998211860657,
        -0.1997760534286499,
        -1.0,
        1.0
      ],
      "type": "VEC4"
    },
    {
      "bufferView": 1,
      "componentType": 5126,
      "count": 460,
      "max": [
        0.9790893793106079,
        0.9990234375
      ],
      "min": [
        0.0009765625,
        0.0009765625
      ],
      "type": "VEC2"
    },
    {
      "bufferView": 0,
      "componentType": 5125,
      "count": 1008,
      "type": "SCALAR"
    }
  ],
  "asset": {
    "extras": {
      "author": "RubaQewar (https://sketchfab.com/RubaQewar)",
      "license": "CC-BY-4.0 (http://creativecommons.org/licenses/by/4.0/)",
      "source": "https://sketchfab.com/3d-models/bathroom-window-frame-1d02d3763cba479daf34afd669a26f68",
      "title": "Bathroom Window Frame"
    },
    "generator": "Sketchfab-12.65.0",
    "version": "2.0"
  },
  "bufferViews": [
    {
      "buffer": 0,
      "byteLength": 4032,
      "name": "floatBufferViews",
      "target": 34963
    },
    {
      "buffer": 0,
      "byteLength": 3680,
      "byteOffset": 4032,
      "byteStride": 8,
      "name": "floatBufferViews",
      "target": 34962
    },
    {
      "buffer": 0,
      "byteLength": 11040,
      "byteOffset": 7712,
      "byteStride": 12,
      "name": "floatBufferViews",
      "target": 34962
    },
    {
      "buffer": 0,
      "byteLength": 7360,
      "byteOffset": 18752,
      "byteStride": 16,
      "name": "floatBufferViews",
      "target": 34962
    }
  ],
  "buffers": [
    {
      "byteLength": 26112,
      "uri": "scene.bin"
    }
  ],
  "images": [
    {
      "uri": "textures/unwrapChekcerShader10_baseColor.png"
    },
    {
      "uri": "textures/unwrapChekcerShader10_metallicRoughness.png"
    },
    {
      "uri": "textures/unwrapChekcerShader10_normal.png"
    }
  ],
  "materials": [
    {
      "doubleSided": true,
      "name": "unwrapChekcerShader10",
      "normalTexture": {
        "index": 2
      },
      "occlusionTexture": {
        "index": 1
      },
      "pbrMetallicRoughness": {
        "baseColorTexture": {
          "index": 0
        },
        "metallicRoughnessTexture": {
          "index": 1
        }
      }
    }
  ],
  "meshes": [
    {
      "name": "polySurface10_unwrapChekcerShader10_0",
      "primitives": [
        {
          "attributes": {
            "NORMAL": 1,
            "POSITION": 0,
            "TANGENT": 2,
            "TEXCOORD_0": 3
          },
          "indices": 4,
          "material": 0,
          "mode": 4
        }
      ]
    }
  ],
  "nodes": [
    {
      "children": [
        1
      ],
      "matrix": [
        1.0,
        0.0,
        0.0,
        0.0,
        0.0,
        2.220446049250313e-16,
        -1.0,
        0.0,
        0.0,
        1.0,
        2.220446049250313e-16,
        0.0,
        0.0,
        0.0,
        0.0,
        1.0
      ],
      "name": "Sketchfab_model"
    },
    {
      "children": [
        2
      ],
      "matrix": [
        1.0,
        0.0,
        0.0,
        0.0,
        0.0,
        0.0,
        1.0,
        0.0,
        0.0,
        -1.0,
        0.0,
        0.0,
        0.0,
        0.0,
        0.0,
        1.0
      ],
      "name": "9d925eeab99e4773bdccf604992b7d0d.fbx"
    },
    {
      "children": [
        3
      ],
      "name": "RootNode"
    },
    {
      "children": [
        4
      ],
      "matrix": [
        2000.0,
        0.0,
        0.0,
        0.0,
        0.0,
        1000.0,
        0.0,
        0.0,
        0.0,
        0.0,
        2000.0,
        0.0,
        0.0,
        492.0574035644531,
        0.0,
        1.0
      ],
      "name": "pCube1"
    },
    {
      "children": [
        5
      ],
      "matrix": [
        0.9757668972015381,
        0.0,
        0.0,
        0.0,
        0.0,
        1.0,
        0.0,
        0.0,
        0.0,
        0.0,
        0.9757668972015381,
        0.0,
        0.0,
        0.0,
        0.0,
        1.0
      ],
      "name": "polySurface3"
    },
    {
      "children": [
        6
      ],
      "matrix": [
        1.0,
        0.0,
        0.0,
        0.0,
        0.0,
        1.0,
        0.0,
        0.0,
        0.0,
        0.0,
        1.0,
        0.0,
        -2.9127560540666517e-17,
        -0.011827515438199043,
        -0.005986975505948067,
        1.0
      ],
      "name": "polySurface5"
    },
    {
      "children": [
        7
      ],
      "name": "polySurface10"
    },
    {
      "mesh": 0,
      "name": "polySurface10_unwrapChekcerShader10_0"
    }
  ],
  "samplers": [
    {
      "magFilter": 9729,
      "minFilter": 9987,
      "wrapS": 10497,
      "wrapT": 10497
    }
  ],
  "scene": 0,
  "scenes": [
    {
      "name": "Sketchfab_Scene",
      "nodes": [
        0
      ]
    }
  ],
  "textures": [
    {
      "sampler": 0,
      "source": 0
    },
    {
      "sampler": 0,
      "source": 1
    },
    {
      "sampler": 0,
      "source": 2
    }
  ]
}
