{
  "accessors": [
    {
      "bufferView": 2,
      "componentType": 5126,
      "count": 355,
      "max": [
        0.22617359459400177,
        0.25083521008491516,
        0.8700340986251831
      ],
      "min": [
        -0.22229020297527313,
        0.05529356002807617,
        0.41889169812202454
      ],
      "type": "VEC3"
    },
    {
      "bufferView": 2,
      "byteOffset": 4260,
      "componentType": 5126,
      "count": 355,
      "max": [
        0.9999998211860657,
        0.9999181032180786,
        1.0
      ],
      "min": [
        -0.9999998211860657,
        -0.9999176859855652,
        -1.0
      ],
      "type": "VEC3"
    },
    {
      "bufferView": 1,
      "componentType": 5126,
      "count": 355,
      "max": [
        1.0,
        1.0
      ],
      "min": [
        0.0,
        0.0
      ],
      "type": "VEC2"
    },
    {
      "bufferView": 0,
      "componentType": 5125,
      "count": 1524,
      "type": "SCALAR"
    },
    {
      "bufferView": 2,
      "byteOffset": 8520,
      "componentType": 5126,
      "count": 160,
      "max": [
        0.07108502835035324,
        0.33326730132102966,
        0.27378180623054504
      ],
      "min": [
        -0.06720173358917236,
        0.07076501101255417,
        0.017780419439077377
      ],
      "type": "VEC3"
    },
    {
      "bufferView": 2,
      "byteOffset": 10440,
      "componentType": 5126,
      "count": 160,
      "max": [
        1.0,
        1.0,
        0.988480806350708
      ],
      "min": [
        -1.0,
        -1.0,
        -0.988480806350708
      ],
      "type": "VEC3"
    },
    {
      "bufferView": 1,
      "byteOffset": 2840,
      "componentType": 5126,
      "count": 160,
      "max": [
        1.0,
        1.0
      ],
      "min": [
        0.0,
        0.0
      ],
      "type": "VEC2"
    },
    {
      "bufferView": 0,
      "byteOffset": 6096,
      "componentType": 5125,
      "count": 606,
      "type": "SCALAR"
    },
    {
      "bufferView": 2,
      "byteOffset": 12360,
      "componentType": 5126,
      "count": 4,
      "max": [
        0.08151011914014816,
        0.061226118355989456,
        0.3632732033729553
      ],
      "min": [
        -0.07762675732374191,
        0.03604710102081299,
        0.3632732033729553
      ],
      "type": "VEC3"
    },
    {
      "bufferView": 0,
      "byteOffset": 8520,
      "componentType": 5125,
      "count": 4,
      "type": "SCALAR"
    },
    {
      "bufferView": 2,
      "byteOffset": 12408,
      "componentType": 5126,
      "count": 1469,
      "max": [
        0.19842219352722168,
        0.1975574940443039,
        0.45132020115852356
      ],
      "min": [
        -0.19453880190849304,
        -0.4367918074131012,
        -0.006846307776868343
      ],
      "type": "VEC3"
    },
    {
      "bufferView": 2,
      "byteOffset": 30036,
      "componentType": 5126,
      "count": 1469,
      "max": [
        1.0,
        1.0,
        1.0
      ],
      "min": [
        -1.0,
        -1.0,
        -1.0
      ],
      "type": "VEC3"
    },
    {
      "bufferView": 1,
      "byteOffset": 4120,
      "componentType": 5126,
      "count": 1469,
      "max": [
        1.0,
        1.0
      ],
      "min": [
        0.0,
        0.0
      ],
      "type": "VEC2"
    },
    {
      "bufferView": 0,
      "byteOffset": 8536,
      "componentType": 5125,
      "count": 5484,
      "type": "SCALAR"
    }
  ],
  "asset": {
    "extras": {
      "author": "nodelet (https://sketchfab.com/nodelet)",
      "license": "CC-BY-4.0 (http://creativecommons.org/licenses/by/4.0/)",
      "source": "https://sketchfab.com/3d-models/low-poly-toilet-b997255f4299486fa612c455bf3216d7",
      "title": "Low-poly toilet"
    },
    "generator": "Sketchfab-12.67.0",
    "version": "2.0"
  },
  "bufferViews": [
    {
      "buffer": 0,
      "byteLength": 30472,
      "name": "floatBufferViews",
      "target": 34963
    },
    {
      "buffer": 0,
      "byteLength": 15872,
      "byteOffset": 30472,
      "byteStride": 8,
      "name": "floatBufferViews",
      "target": 34962
    },
    {
      "buffer": 0,
      "byteLength": 47664,
      "byteOffset": 46344,
      "byteStride": 12,
      "name": "floatBufferViews",
      "target": 34962
    }
  ],
  "buffers": [
    {
      "byteLength": 94008,
      "uri": "scene.bin"
    }
  ],
  "materials": [
    {
      "doubleSided": true,
      "name": "material_0",
      "pbrMetallicRoughness": {
        "metallicFactor": 0.0,
        "roughnessFactor": 0.6
      }
    },
    {
      "doubleSided": true,
      "name": "toiled",
      "pbrMetallicRoughness": {
        "baseColorFactor": [
          0.8,
          0.8,
          0.8,
          1.0
        ],
        "metallicFactor": 0.0,
        "roughnessFactor": 0.0
      }
    }
  ],
  "meshes": [
    {
      "name": "toiled-material",
      "primitives": [
        {
          "attributes": {
            "NORMAL": 1,
            "POSITION": 0,
            "TEXCOORD_0": 2
          },
          "indices": 3,
          "material": 1,
          "mode": 4
        }
      ]
    },
    {
      "name": "toiled-material",
      "primitives": [
        {
          "attributes": {
            "NORMAL": 5,
            "POSITION": 4,
            "TEXCOORD_0": 6
          },
          "indices": 7,
          "material": 1,
          "mode": 4
        }
      ]
    },
    {
      "name": "Object_2",
      "primitives": [
        {
          "attributes": {
            "POSITION": 8
          },
          "indices": 9,
          "material": 0,
          "mode": 1
        }
      ]
    },
    {
      "name": "toiled-material",
      "primitives": [
        {
          "attributes": {
            "NORMAL": 11,
            "POSITION": 10,
            "TEXCOORD_0": 12
          },
          "indices": 13,
          "material": 1,
          "mode": 4
        }
      ]
    }
  ],
  "nodes": [
    {
      "children": [
        1
      ],
      "matrix": [
        1.0,
        0.0,
        0.0,
        0.0,
        0.0,
        3.828568672208042e-16,
        -1.0,
        0.0,
        0.0,
        1.0,
        3.828568672208042e-16,
        0.0,
        0.0,
        1.5407439555097887e-32,
        -6.938893903907228e-17,
        1.0
      ],
      "name": "Sketchfab_model"
    },
    {
      "children": [
        2,
        4,
        6
      ],
      "name": "Collada visual scene group"
    },
    {
      "children": [
        3
      ],
      "name": "tank"
    },
    {
      "mesh": 0,
      "name": "toiled-material"
    },
    {
      "children": [
        5
      ],
      "name": "pipe"
    },
    {
      "mesh": 1,
      "name": "toiled-material"
    },
    {
      "children": [
        7,
        8
      ],
      "name": "bowl"
    },
    {
      "mesh": 2,
      "name": "Object_7"
    },
    {
      "mesh": 3,
      "name": "toiled-material"
    }
  ],
  "scene": 0,
  "scenes": [
    {
      "name": "Sketchfab_Scene",
      "nodes": [
        0
      ]
    }
  ]
}
