{
  "accessors": [
    {
      "bufferView": 2,
      "componentType": 5126,
      "count": 270,
      "max": [
        0.9903758764266968,
        1.000000238418579,
        1.0103529691696167
      ],
      "min": [
        -1.0096240043640137,
        -1.0000001192092896,
        -1.962506651878357
      ],
      "type": "VEC3"
    },
    {
      "bufferView": 2,
      "byteOffset": 3240,
      "componentType": 5126,
      "count": 270,
      "max": [
        0.9999992847442627,
        1.0,
        1.0
      ],
      "min": [
        -1.0,
        -1.0,
        -1.0
      ],
      "type": "VEC3"
    },
    {
      "bufferView": 1,
      "componentType": 5126,
      "count": 270,
      "max": [
        1.0,
        1.0
      ],
      "min": [
        0.0,
        0.01000000536441803
      ],
      "type": "VEC2"
    },
    {
      "bufferView": 0,
      "componentType": 5125,
      "count": 780,
      "type": "SCALAR"
    },
    {
      "bufferView": 2,
      "byteOffset": 6480,
      "componentType": 5126,
      "count": 192,
      "max": [
        0.4315630793571472,
        1.0,
        0.4488680064678192
      ],
      "min": [
        -0.4481390118598938,
        -1.0000001192092896,
        -0.4281621277332306
      ],
      "type": "VEC3"
    },
    {
      "bufferView": 2,
      "byteOffset": 8784,
      "componentType": 5126,
      "count": 192,
      "max": [
        1.0,
        1.0,
        1.0
      ],
      "min": [
        -0.9988235831260681,
        -1.0,
        -1.0
      ],
      "type": "VEC3"
    },
    {
      "bufferView": 1,
      "byteOffset": 2160,
      "componentType": 5126,
      "count": 192,
      "max": [
        0.8620795011520386,
        0.3552437126636505
      ],
      "min": [
        0.1446983814239502,
        0.1447562277317047
      ],
      "type": "VEC2"
    },
    {
      "bufferView": 0,
      "byteOffset": 3120,
      "componentType": 5125,
      "count": 576,
      "type": "SCALAR"
    },
    {
      "bufferView": 2,
      "byteOffset": 11088,
      "componentType": 5126,
      "count": 4443,
      "max": [
        2.079549551010132,
        1.7189643383026123,
        0.9272233843803406
      ],
      "min": [
        -2.0795738697052,
        -24.740148544311523,
        -1.0758839845657349
      ],
      "type": "VEC3"
    },
    {
      "bufferView": 2,
      "byteOffset": 64404,
      "componentType": 5126,
      "count": 4443,
      "max": [
        0.9999970197677612,
        0.9999372363090515,
        0.9999999403953552
      ],
      "min": [
        -0.9999970197677612,
        -0.9998840093612671,
        -1.0
      ],
      "type": "VEC3"
    },
    {
      "bufferView": 1,
      "byteOffset": 3696,
      "componentType": 5126,
      "count": 4443,
      "max": [
        1.0000001192092896,
        1.000000238418579
      ],
      "min": [
        0.0,
        0.011537185870110989
      ],
      "type": "VEC2"
    },
    {
      "bufferView": 0,
      "byteOffset": 5424,
      "componentType": 5125,
      "count": 19584,
      "type": "SCALAR"
    },
    {
      "bufferView": 2,
      "byteOffset": 117720,
      "componentType": 5126,
      "count": 2071,
      "max": [
        1.2944679260253906,
        0.9999999403953552,
        1.0002717971801758
      ],
      "min": [
        -2.1129117012023926,
        -1.0,
        -0.999728262424469
      ],
      "type": "VEC3"
    },
    {
      "bufferView": 2,
      "byteOffset": 142572,
      "componentType": 5126,
      "count": 2071,
      "max": [
        1.0,
        1.0,
        1.0
      ],
      "min": [
        -1.0,
        -1.0,
        -1.0
      ],
      "type": "VEC3"
    },
    {
      "bufferView": 1,
      "byteOffset": 39240,
      "componentType": 5126,
      "count": 2071,
      "max": [
        1.000096321105957,
        1.0000001192092896
      ],
      "min": [
        -9.654372843215242e-05,
        0.0
      ],
      "type": "VEC2"
    },
    {
      "bufferView": 0,
      "byteOffset": 83760,
      "componentType": 5125,
      "count": 3744,
      "type": "SCALAR"
    },
    {
      "bufferView": 2,
      "byteOffset": 167424,
      "componentType": 5126,
      "count": 2064,
      "max": [
        2.0754594802856445,
        0.4097135066986084,
        0.11470311880111694
      ],
      "min": [
        -0.11263525485992432,
        -1.5948677062988281,
        -0.3914199471473694
      ],
      "type": "VEC3"
    },
    {
      "bufferView": 2,
      "byteOffset": 192192,
      "componentType": 5126,
      "count": 2064,
      "max": [
        1.0,
        1.0,
        1.0
      ],
      "min": [
        -1.0,
        -1.0,
        -1.0
      ],
      "type": "VEC3"
    },
    {
      "bufferView": 1,
      "byteOffset": 55808,
      "componentType": 5126,
      "count": 2064,
      "max": [
        1.0,
        1.0000001192092896
      ],
      "min": [
        0.0,
        0.0
      ],
      "type": "VEC2"
    },
    {
      "bufferView": 0,
      "byteOffset": 98736,
      "componentType": 5125,
      "count": 8061,
      "type": "SCALAR"
    },
    {
      "bufferView": 2,
      "byteOffset": 216960,
      "componentType": 5126,
      "count": 4084,
      "max": [
        1.1398123502731323,
        1.1529583930969238,
        3.2461915016174316
      ],
      "min": [
        -1.1065422296524048,
        -1.1529587507247925,
        -3.2461891174316406
      ],
      "type": "VEC3"
    },
    {
      "bufferView": 2,
      "byteOffset": 265968,
      "componentType": 5126,
      "count": 4084,
      "max": [
        0.995198667049408,
        0.9954766035079956,
        1.0
      ],
      "min": [
        -0.995198667049408,
        -0.9954767227172852,
        -1.0
      ],
      "type": "VEC3"
    },
    {
      "bufferView": 1,
      "byteOffset": 72320,
      "componentType": 5126,
      "count": 4084,
      "max": [
        1.000030279159546,
        1.000000238418579
      ],
      "min": [
        -3.013584137079306e-05,
        0.01000000536441803
      ],
      "type": "VEC2"
    },
    {
      "bufferView": 0,
      "byteOffset": 130980,
      "componentType": 5125,
      "count": 16080,
      "type": "SCALAR"
    }
  ],
  "asset": {
    "extras": {
      "author": "Helindu (https://sketchfab.com/Helindu)",
      "license": "CC-BY-4.0 (http://creativecommons.org/licenses/by/4.0/)",
      "source": "https://sketchfab.com/3d-models/toilet-paper-roll-holder-with-cover-9e36f39d4f4c453d8e9a6506bbc7cc70",
      "title": "Toilet Paper Roll Holder With Cover"
    },
    "generator": "Sketchfab-12.65.0",
    "version": "2.0"
  },
  "bufferViews": [
    {
      "buffer": 0,
      "byteLength": 195300,
      "name": "floatBufferViews",
      "target": 34963
    },
    {
      "buffer": 0,
      "byteLength": 104992,
      "byteOffset": 195300,
      "byteStride": 8,
      "name": "floatBufferViews",
      "target": 34962
    },
    {
      "buffer": 0,
      "byteLength": 314976,
      "byteOffset": 300292,
      "byteStride": 12,
      "name": "floatBufferViews",
      "target": 34962
    }
  ],
  "buffers": [
    {
      "byteLength": 615268,
      "uri": "scene.bin"
    }
  ],
  "images": [
    {
      "uri": "textures/Material_metallicRoughness.png"
    }
  ],
  "materials": [
    {
      "doubleSided": true,
      "name": "Material.001",
      "pbrMetallicRoughness": {
        "baseColorFactor": [
          0.47360804865148487,
          0.47360804865148487,
          0.47360804865148487,
          1.0
        ],
        "metallicFactor": 0.0
      }
    },
    {
      "doubleSided": true,
      "name": "Material.002",
      "pbrMetallicRoughness": {
        "baseColorFactor": [
          0.2582186746356545,
          0.09700463093994777,
          0.0016802496536669849,
          1.0
        ],
        "metallicFactor": 0.0,
        "roughnessFactor": 0.8040408205773457
      }
    },
    {
      "doubleSided": true,
      "name": "Material",
      "pbrMetallicRoughness": {
        "metallicRoughnessTexture": {
          "index": 0
        },
        "roughnessFactor": 0.17161118174020046
      }
    },
    {
      "doubleSided": true,
      "name": "Material.005",
      "pbrMetallicRoughness": {
        "baseColorFactor": [
          0.8,
          0.8,
          0.8,
          1.0
        ],
        "metallicFactor": 0.0,
        "roughnessFactor": 0.8516142680087432
      }
    }
  ],
  "meshes": [
    {
      "name": "Cylinder_Material.001_0",
      "primitives": [
        {
          "attributes": {
            "NORMAL": 1,
            "POSITION": 0,
            "TEXCOORD_0": 2
          },
          "indices": 3,
          "material": 0,
          "mode": 4
        }
      ]
    },
    {
      "name": "Cylinder_Material.002_0",
      "primitives": [
        {
          "attributes": {
            "NORMAL": 5,
            "POSITION": 4,
            "TEXCOORD_0": 6
          },
          "indices": 7,
          "material": 1,
          "mode": 4
        }
      ]
    },
    {
      "name": "Cylinder.001_Material_0",
      "primitives": [
        {
          "attributes": {
            "NORMAL": 9,
            "POSITION": 8,
            "TEXCOORD_0": 10
          },
          "indices": 11,
          "material": 2,
          "mode": 4
        }
      ]
    },
    {
      "name": "Cube_Material_0",
      "primitives": [
        {
          "attributes": {
            "NORMAL": 13,
            "POSITION": 12,
            "TEXCOORD_0": 14
          },
          "indices": 15,
          "material": 2,
          "mode": 4
        }
      ]
    },
    {
      "name": "Plane_Material_0",
      "primitives": [
        {
          "attributes": {
            "NORMAL": 17,
            "POSITION": 16,
            "TEXCOORD_0": 18
          },
          "indices": 19,
          "material": 2,
          "mode": 4
        }
      ]
    },
    {
      "name": "Cylinder.003_Material.005_0",
      "primitives": [
        {
          "attributes": {
            "NORMAL": 21,
            "POSITION": 20,
            "TEXCOORD_0": 22
          },
          "indices": 23,
          "material": 3,
          "mode": 4
        }
      ]
    }
  ],
  "nodes": [
    {
      "children": [
        1
      ],
      "matrix": [
        1.0,
        0.0,
        0.0,
        0.0,
        0.0,
        2.220446049250313e-16,
        -1.0,
        0.0,
        0.0,
        1.0,
        2.220446049250313e-16,
        0.0,
        0.0,
        0.0,
        0.0,
        1.0
      ],
      "name": "Sketchfab_model"
    },
    {
      "children": [
        2
      ],
      "matrix": [
        1.0,
        0.0,
        0.0,
        0.0,
        0.0,
        0.0,
        1.0,
        0.0,
        0.0,
        -1.0,
        0.0,
        0.0,
        0.0,
        0.0,
        0.0,
        1.0
      ],
      "name": "fd50a0db22fb49ff8280803b003fd317.fbx"
    },
    {
      "children": [
        3,
        6,
        8,
        10,
        12
      ],
      "name": "RootNode"
    },
    {
      "children": [
        4,
        5
      ],
      "matrix": [
        77.29432678222656,
        0.0,
        0.0,
        0.0,
        -0.0,
        -1.629206793918314e-05,
        -99.99999999999868,
        0.0,
        0.0,
        77.29432678222554,
        -1.2592844232494582e-05,
        0.0,
        -7.623635768890381,
        241.67408752441406,
        12.055598258972168,
        1.0
      ],
      "name": "Cylinder"
    },
    {
      "mesh": 0,
      "name": "Cylinder_Material.001_0"
    },
    {
      "mesh": 1,
      "name": "Cylinder_Material.002_0"
    },
    {
      "children": [
        7
      ],
      "matrix": [
        4.370793342590332,
        0.0,
        0.0,
        0.0,
        0.0,
        4.370793342590328,
        1.9105346044723245e-07,
        0.0,
        0.0,
        -6.899791443983798e-06,
        157.84881591796858,
        0.0,
        1.0543190240859985,
        366.43670654296875,
        23.025209426879883,
        1.0
      ],
      "name": "Cylinder.001"
    },
    {
      "mesh": 2,
      "name": "Cylinder.001_Material_0"
    },
    {
      "children": [
        9
      ],
      "matrix": [
        45.43255615234375,
        0.0,
        0.0,
        0.0,
        -0.0,
        -7.401902914847374e-06,
        -45.43255615234315,
        0.0,
        0.0,
        45.43255615234315,
        -7.401902914847374e-06,
        0.0,
        -43.221900939941406,
        366.2272644042969,
        11.97710132598877,
        1.0
      ],
      "name": "Cube"
    },
    {
      "mesh": 3,
      "name": "Cube_Material_0"
    },
    {
      "children": [
        11
      ],
      "matrix": [
        48.16409902059635,
        -87.63686191058069,
        -6.63746030360457e-07,
        0.0,
        7.189727639303293e-06,
        4.816178554956637e-06,
        -114.1822586059567,
        0.0,
        87.63686191058046,
        48.16409902059617,
        7.549789959870878e-06,
        0.0,
        1.033848524093628,
        365.92279052734375,
        -55.628395080566406,
        1.0
      ],
      "name": "Plane"
    },
    {
      "mesh": 4,
      "name": "Plane_Material_0"
    },
    {
      "children": [
        13
      ],
      "matrix": [
        10.48507308959961,
        0.0,
        0.0,
        0.0,
        0.0,
        -10.485073089599572,
        9.166342359468358e-07,
        0.0,
        0.0,
        -1.4596251637925332e-06,
        -16.696165084838807,
        0.0,
        1.006845235824585,
        366.2272644042969,
        11.977124214172363,
        1.0
      ],
      "name": "Cylinder.003"
    },
    {
      "mesh": 5,
      "name": "Cylinder.003_Material.005_0"
    }
  ],
  "samplers": [
    {
      "magFilter": 9729,
      "minFilter": 9987,
      "wrapS": 10497,
      "wrapT": 10497
    }
  ],
  "scene": 0,
  "scenes": [
    {
      "name": "Sketchfab_Scene",
      "nodes": [
        0
      ]
    }
  ],
  "textures": [
    {
      "sampler": 0,
      "source": 0
    }
  ]
}
