{
  "accessors": [
    {
      "bufferView": 2,
      "componentType": 5126,
      "count": 65532,
      "max": [
        360.3917236328125,
        505.35345458984375,
        338.6936950683594
      ],
      "min": [
        -358.1566162109375,
        -491.2712707519531,
        -379.0758361816406
      ],
      "type": "VEC3"
    },
    {
      "bufferView": 2,
      "byteOffset": 786384,
      "componentType": 5126,
      "count": 65532,
      "max": [
        0.999998152256012,
        0.999992847442627,
        0.9999874830245972
      ],
      "min": [
        -0.9999985694885254,
        -0.9484068155288696,
        -0.9999994039535522
      ],
      "type": "VEC3"
    },
    {
      "bufferView": 1,
      "componentType": 5126,
      "count": 65532,
      "max": [
        0.9946750402450562,
        0.9995441436767578
      ],
      "min": [
        0.0004543124814517796,
        0.008486568927764893
      ],
      "type": "VEC2"
    },
    {
      "bufferView": 0,
      "componentType": 5125,
      "count": 299796,
      "type": "SCALAR"
    },
    {
      "bufferView": 2,
      "byteOffset": 1572768,
      "componentType": 5126,
      "count": 65532,
      "max": [
        359.99993896484375,
        508.70263671875,
        338.5148010253906
      ],
      "min": [
        -358.1566162109375,
        -491.27740478515625,
        -373.3690490722656
      ],
      "type": "VEC3"
    },
    {
      "bufferView": 2,
      "byteOffset": 2359152,
      "componentType": 5126,
      "count": 65532,
      "max": [
        0.999998927116394,
        0.999998152256012,
        0.9999896883964539
      ],
      "min": [
        -0.9999959468841553,
        -0.9484068155288696,
        -0.9999945163726807
      ],
      "type": "VEC3"
    },
    {
      "bufferView": 1,
      "byteOffset": 524256,
      "componentType": 5126,
      "count": 65532,
      "max": [
        0.9961223602294922,
        0.9991846084594727
      ],
      "min": [
        0.0004603899142239243,
        0.006560564041137695
      ],
      "type": "VEC2"
    },
    {
      "bufferView": 0,
      "byteOffset": 1199184,
      "componentType": 5125,
      "count": 296928,
      "type": "SCALAR"
    },
    {
      "bufferView": 2,
      "byteOffset": 3145536,
      "componentType": 5126,
      "count": 65532,
      "max": [
        359.72216796875,
        507.7232666015625,
        331.2532958984375
      ],
      "min": [
        -356.241455078125,
        -491.26123046875,
        -377.1322021484375
      ],
      "type": "VEC3"
    },
    {
      "bufferView": 2,
      "byteOffset": 3931920,
      "componentType": 5126,
      "count": 65532,
      "max": [
        0.999962568283081,
        0.9999998211860657,
        0.9999896883964539
      ],
      "min": [
        -0.9999959468841553,
        -0.9157183766365051,
        -0.9999994039535522
      ],
      "type": "VEC3"
    },
    {
      "bufferView": 1,
      "byteOffset": 1048512,
      "componentType": 5126,
      "count": 65532,
      "max": [
        0.9970753192901611,
        0.9995474815368652
      ],
      "min": [
        0.0005369384307414293,
        0.003059089183807373
      ],
      "type": "VEC2"
    },
    {
      "bufferView": 0,
      "byteOffset": 2386896,
      "componentType": 5125,
      "count": 288993,
      "type": "SCALAR"
    },
    {
      "bufferView": 2,
      "byteOffset": 4718304,
      "componentType": 5126,
      "count": 65532,
      "max": [
        353.0052795410156,
        507.0524597167969,
        335.8544921875
      ],
      "min": [
        -356.7557067871094,
        -491.27264404296875,
        -379.0758361816406
      ],
      "type": "VEC3"
    },
    {
      "bufferView": 2,
      "byteOffset": 5504688,
      "componentType": 5126,
      "count": 65532,
      "max": [
        0.9999985694885254,
        0.9999927282333374,
        0.9999874830245972
      ],
      "min": [
        -0.9999985694885254,
        -0.9151115417480469,
        -0.9999932646751404
      ],
      "type": "VEC3"
    },
    {
      "bufferView": 1,
      "byteOffset": 1572768,
      "componentType": 5126,
      "count": 65532,
      "max": [
        0.9979291558265686,
        0.9994679689407349
      ],
      "min": [
        0.0004684575542341918,
        0.001100003719329834
      ],
      "type": "VEC2"
    },
    {
      "bufferView": 0,
      "byteOffset": 3542868,
      "componentType": 5125,
      "count": 250713,
      "type": "SCALAR"
    },
    {
      "bufferView": 2,
      "byteOffset": 6291072,
      "componentType": 5126,
      "count": 35880,
      "max": [
        358.2720642089844,
        507.0913391113281,
        338.6936950683594
      ],
      "min": [
        -357.2375183105469,
        -491.29736328125,
        -374.5898742675781
      ],
      "type": "VEC3"
    },
    {
      "bufferView": 2,
      "byteOffset": 6721632,
      "componentType": 5126,
      "count": 35880,
      "max": [
        0.9999985694885254,
        0.9999998211860657,
        0.9999497532844543
      ],
      "min": [
        -0.9999808073043823,
        -0.9989951848983765,
        -0.9999973177909851
      ],
      "type": "VEC3"
    },
    {
      "bufferView": 1,
      "byteOffset": 2097024,
      "componentType": 5126,
      "count": 35880,
      "max": [
        0.9979701042175293,
        0.9995250701904297
      ],
      "min": [
        0.0004589500022120774,
        0.001133561134338379
      ],
      "type": "VEC2"
    },
    {
      "bufferView": 0,
      "byteOffset": 4545720,
      "componentType": 5125,
      "count": 60663,
      "type": "SCALAR"
    }
  ],
  "asset": {
    "extras": {
      "author": "ஜCIHIRISஜ (https://sketchfab.com/crazy4creativity)",
      "license": "CC-BY-4.0 (http://creativecommons.org/licenses/by/4.0/)",
      "source": "https://sketchfab.com/3d-models/brown-wicker-trash-bin-912cc19e1b20479ab14b37f95b97f715",
      "title": "Brown Wicker Trash Bin"
    },
    "generator": "Sketchfab-12.67.0",
    "version": "2.0"
  },
  "bufferViews": [
    {
      "buffer": 0,
      "byteLength": 4788372,
      "name": "floatBufferViews",
      "target": 34963
    },
    {
      "buffer": 0,
      "byteLength": 2384064,
      "byteOffset": 4788372,
      "byteStride": 8,
      "name": "floatBufferViews",
      "target": 34962
    },
    {
      "buffer": 0,
      "byteLength": 7152192,
      "byteOffset": 7172436,
      "byteStride": 12,
      "name": "floatBufferViews",
      "target": 34962
    }
  ],
  "buffers": [
    {
      "byteLength": 14324628,
      "uri": "scene.bin"
    }
  ],
  "images": [
    {
      "uri": "textures/Material0_baseColor.jpeg"
    }
  ],
  "materials": [
    {
      "doubleSided": true,
      "name": "Material0",
      "pbrMetallicRoughness": {
        "baseColorTexture": {
          "index": 0
        },
        "metallicFactor": 0.0
      }
    }
  ],
  "meshes": [
    {
      "name": "Stereo textured mesh_Material0_0",
      "primitives": [
        {
          "attributes": {
            "NORMAL": 1,
            "POSITION": 0,
            "TEXCOORD_0": 2
          },
          "indices": 3,
          "material": 0,
          "mode": 4
        }
      ]
    },
    {
      "name": "Stereo textured mesh_Material0_0",
      "primitives": [
        {
          "attributes": {
            "NORMAL": 5,
            "POSITION": 4,
            "TEXCOORD_0": 6
          },
          "indices": 7,
          "material": 0,
          "mode": 4
        }
      ]
    },
    {
      "name": "Stereo textured mesh_Material0_0",
      "primitives": [
        {
          "attributes": {
            "NORMAL": 9,
            "POSITION": 8,
            "TEXCOORD_0": 10
          },
          "indices": 11,
          "material": 0,
          "mode": 4
        }
      ]
    },
    {
      "name": "Stereo textured mesh_Material0_0",
      "primitives": [
        {
          "attributes": {
            "NORMAL": 13,
            "POSITION": 12,
            "TEXCOORD_0": 14
          },
          "indices": 15,
          "material": 0,
          "mode": 4
        }
      ]
    },
    {
      "name": "Stereo textured mesh_Material0_0",
      "primitives": [
        {
          "attributes": {
            "NORMAL": 17,
            "POSITION": 16,
            "TEXCOORD_0": 18
          },
          "indices": 19,
          "material": 0,
          "mode": 4
        }
      ]
    }
  ],
  "nodes": [
    {
      "children": [
        1
      ],
      "matrix": [
        -0.22769370675086975,
        -4.937678774949845e-16,
        0.9737328290939331,
        0.0,
        0.023790543898940086,
        -0.9997014999389648,
        0.00556308403611161,
        0.0,
        0.9734421372413635,
        0.024432312697172113,
        0.2276257425546646,
        0.0,
        -18.07622718811035,
        10.99795913696289,
        3.0669472217559837,
        1.0
      ],
      "name": "Sketchfab_model"
    },
    {
      "children": [
        2
      ],
      "matrix": [
        1.0,
        0.0,
        0.0,
        0.0,
        0.0,
        -1.0,
        0.0,
        0.0,
        0.0,
        0.0,
        -1.0,
        0.0,
        0.0,
        0.0,
        0.0,
        1.0
      ],
      "name": "sketchfabTemp.obj.fbx"
    },
    {
      "children": [
        3
      ],
      "name": "RootNode"
    },
    {
      "children": [
        4,
        5,
        6,
        7,
        8
      ],
      "name": "Stereo textured mesh"
    },
    {
      "mesh": 0,
      "name": "Stereo textured mesh_Material0_0"
    },
    {
      "mesh": 1,
      "name": "Stereo textured mesh_Material0_0"
    },
    {
      "mesh": 2,
      "name": "Stereo textured mesh_Material0_0"
    },
    {
      "mesh": 3,
      "name": "Stereo textured mesh_Material0_0"
    },
    {
      "mesh": 4,
      "name": "Stereo textured mesh_Material0_0"
    }
  ],
  "samplers": [
    {
      "magFilter": 9729,
      "minFilter": 9987,
      "wrapS": 10497,
      "wrapT": 10497
    }
  ],
  "scene": 0,
  "scenes": [
    {
      "name": "Sketchfab_Scene",
      "nodes": [
        0
      ]
    }
  ],
  "textures": [
    {
      "sampler": 0,
      "source": 0
    }
  ]
}
