{
  "accessors": [
    {
      "bufferView": 2,
      "componentType": 5126,
      "count": 1331,
      "max": [
        0.4364001750946045,
        1.8387999534606934,
        0.18240004777908325
      ],
      "min": [
        -0.43639981746673584,
        0.0,
        -0.18240004777908325
      ],
      "type": "VEC3"
    },
    {
      "bufferView": 2,
      "byteOffset": 15972,
      "componentType": 5126,
      "count": 1331,
      "max": [
        1.0,
        1.0,
        1.0
      ],
      "min": [
        -1.0,
        -1.0,
        -1.0
      ],
      "type": "VEC3"
    },
    {
      "bufferView": 3,
      "componentType": 5126,
      "count": 1331,
      "max": [
        1.0,
        1.0,
        1.0,
        1.0
      ],
      "min": [
        -1.0,
        -1.0,
        -1.0,
        -1.0
      ],
      "type": "VEC4"
    },
    {
      "bufferView": 1,
      "componentType": 5126,
      "count": 1331,
      "max": [
        2.5035977363586426,
        1.4435827732086182
      ],
      "min": [
        -0.5,
        -0.7333108186721802
      ],
      "type": "VEC2"
    },
    {
      "bufferView": 1,
      "byteOffset": 10648,
      "componentType": 5126,
      "count": 1331,
      "max": [
        2.5035977363586426,
        1.4435827732086182
      ],
      "min": [
        -0.5,
        -0.7333108186721802
      ],
      "type": "VEC2"
    },
    {
      "bufferView": 1,
      "byteOffset": 21296,
      "componentType": 5126,
      "count": 1331,
      "max": [
        2.5035977363586426,
        1.4435827732086182
      ],
      "min": [
        -0.5,
        -0.7333108186721802
      ],
      "type": "VEC2"
    },
    {
      "bufferView": 1,
      "byteOffset": 31944,
      "componentType": 5126,
      "count": 1331,
      "max": [
        0.9999542832374573,
        0.999954342842102
      ],
      "min": [
        4.570186138153076e-05,
        0.03101980686187744
      ],
      "type": "VEC2"
    },
    {
      "bufferView": 1,
      "byteOffset": 42592,
      "componentType": 5126,
      "count": 1331,
      "max": [
        2.5035977363586426,
        1.4435827732086182
      ],
      "min": [
        -0.5,
        -0.7333108186721802
      ],
      "type": "VEC2"
    },
    {
      "bufferView": 0,
      "componentType": 5125,
      "count": 2526,
      "type": "SCALAR"
    },
    {
      "bufferView": 2,
      "byteOffset": 31944,
      "componentType": 5126,
      "count": 11666,
      "max": [
        0.13140206038951874,
        1.8733305931091309,
        0.3785058259963989
      ],
      "min": [
        -0.1450599730014801,
        0.11125552654266357,
        -0.3982080817222595
      ],
      "type": "VEC3"
    },
    {
      "bufferView": 2,
      "byteOffset": 171936,
      "componentType": 5126,
      "count": 11666,
      "max": [
        0.9999980330467224,
        0.9999966025352478,
        0.9999971389770508
      ],
      "min": [
        -0.9999968409538269,
        -0.9999980926513672,
        -0.9999940395355225
      ],
      "type": "VEC3"
    },
    {
      "bufferView": 1,
      "byteOffset": 53240,
      "componentType": 5126,
      "count": 11666,
      "max": [
        1.0,
        1.0
      ],
      "min": [
        0.0,
        5.960464477539063e-08
      ],
      "type": "VEC2"
    },
    {
      "bufferView": 1,
      "byteOffset": 146568,
      "componentType": 5126,
      "count": 11666,
      "max": [
        0.9945659637451172,
        0.9950554966926575
      ],
      "min": [
        0.004944503307342529,
        0.004944562911987305
      ],
      "type": "VEC2"
    },
    {
      "bufferView": 0,
      "byteOffset": 10104,
      "componentType": 5125,
      "count": 24546,
      "type": "SCALAR"
    }
  ],
  "asset": {
    "extras": {
      "author": "adadadad5252341 (https://sketchfab.com/adadadad5252341)",
      "license": "CC-BY-4.0 (http://creativecommons.org/licenses/by/4.0/)",
      "source": "https://sketchfab.com/3d-models/cc0-bookshelf-with-books-961af2daa6344e4fba0c7a4c92ff91f8",
      "title": "[CC0] Bookshelf with books"
    },
    "generator": "Sketchfab-12.68.0",
    "version": "2.0"
  },
  "bufferViews": [
    {
      "buffer": 0,
      "byteLength": 108288,
      "name": "floatBufferViews",
      "target": 34963
    },
    {
      "buffer": 0,
      "byteLength": 239896,
      "byteOffset": 108288,
      "byteStride": 8,
      "name": "floatBufferViews",
      "target": 34962
    },
    {
      "buffer": 0,
      "byteLength": 311928,
      "byteOffset": 348184,
      "byteStride": 12,
      "name": "floatBufferViews",
      "target": 34962
    },
    {
      "buffer": 0,
      "byteLength": 21296,
      "byteOffset": 660112,
      "byteStride": 16,
      "name": "floatBufferViews",
      "target": 34962
    }
  ],
  "buffers": [
    {
      "byteLength": 681408,
      "uri": "scene.bin"
    }
  ],
  "extensionsUsed": [
    "KHR_texture_transform"
  ],
  "images": [
    {
      "uri": "textures/WoodLight.007_baseColor.jpeg"
    },
    {
      "uri": "textures/WoodLight.007_metallicRoughness.png"
    },
    {
      "uri": "textures/WoodLight.007_normal.png"
    },
    {
      "uri": "textures/BookSet2_baseColor.png"
    }
  ],
  "materials": [
    {
      "doubleSided": true,
      "name": "WoodLight.007",
      "normalTexture": {
        "extensions": {
          "KHR_texture_transform": {
            "offset": [
              0,
              -1
            ],
            "scale": [
              2,
              2
            ]
          }
        },
        "index": 2,
        "texCoord": 2
      },
      "pbrMetallicRoughness": {
        "baseColorTexture": {
          "extensions": {
            "KHR_texture_transform": {
              "offset": [
                0,
                -1
              ],
              "scale": [
                2,
                2
              ]
            }
          },
          "index": 0
        },
        "metallicFactor": 0.0,
        "metallicRoughnessTexture": {
          "extensions": {
            "KHR_texture_transform": {
              "offset": [
                0,
                -1
              ],
              "scale": [
                2,
                2
              ]
            }
          },
          "index": 1,
          "texCoord": 1
        }
      }
    },
    {
      "doubleSided": true,
      "name": "BookSet2",
      "pbrMetallicRoughness": {
        "baseColorTexture": {
          "index": 3
        },
        "metallicFactor": 0.0,
        "roughnessFactor": 0.931452
      }
    }
  ],
  "meshes": [
    {
      "name": "Object_0",
      "primitives": [
        {
          "attributes": {
            "NORMAL": 1,
            "POSITION": 0,
            "TANGENT": 2,
            "TEXCOORD_0": 3,
            "TEXCOORD_1": 4,
            "TEXCOORD_2": 5,
            "TEXCOORD_3": 6,
            "TEXCOORD_4": 7
          },
          "indices": 8,
          "material": 0,
          "mode": 4
        }
      ]
    },
    {
      "name": "Object_1",
      "primitives": [
        {
          "attributes": {
            "NORMAL": 10,
            "POSITION": 9,
            "TEXCOORD_0": 11,
            "TEXCOORD_1": 12
          },
          "indices": 13,
          "material": 1,
          "mode": 4
        }
      ]
    }
  ],
  "nodes": [
    {
      "children": [
        1
      ],
      "matrix": [
        1.0,
        0.0,
        0.0,
        0.0,
        0.0,
        2.220446049250313e-16,
        -1.0,
        0.0,
        0.0,
        1.0,
        2.220446049250313e-16,
        0.0,
        0.0,
        0.0,
        0.0,
        1.0
      ],
      "name": "Sketchfab_model"
    },
    {
      "children": [
        2
      ],
      "name": "root"
    },
    {
      "children": [
        3,
        5
      ],
      "matrix": [
        1.0,
        0.0,
        0.0,
        0.0,
        0.0,
        2.220446049250313e-16,
        1.0,
        0.0,
        0.0,
        -1.0,
        2.220446049250313e-16,
        0.0,
        0.0,
        0.0,
        0.0,
        1.0
      ],
      "name": "GLTF_SceneRootNode"
    },
    {
      "children": [
        4
      ],
      "matrix": [
        0.0,
        0.0,
        -1.0,
        0.0,
        0.0,
        1.0,
        0.0,
        0.0,
        1.0,
        0.0,
        0.0,
        0.0,
        0.0,
        0.0,
        0.0,
        1.0
      ],
      "name": "FurnituresP1.003_2"
    },
    {
      "mesh": 0,
      "name": "Object_4"
    },
    {
      "children": [
        6
      ],
      "matrix": [
        0.9699587401669684,
        0.0,
        -0.03239191769267492,
        0.0,
        0.0,
        0.9704994559288025,
        0.0,
        0.0,
        0.03239191769267492,
        0.0,
        0.9699587401669684,
        0.0,
        0.0,
        0.0,
        0.0,
        1.0
      ],
      "name": "BookSet2.Optimized_3"
    },
    {
      "mesh": 1,
      "name": "Object_6"
    }
  ],
  "samplers": [
    {
      "magFilter": 9729,
      "minFilter": 9987,
      "wrapS": 10497,
      "wrapT": 10497
    }
  ],
  "scene": 0,
  "scenes": [
    {
      "name": "Sketchfab_Scene",
      "nodes": [
        0
      ]
    }
  ],
  "textures": [
    {
      "sampler": 0,
      "source": 0
    },
    {
      "sampler": 0,
      "source": 1
    },
    {
      "sampler": 0,
      "source": 2
    },
    {
      "sampler": 0,
      "source": 3
    }
  ]
}
