{
  "accessors": [
    {
      "bufferView": 2,
      "componentType": 5126,
      "count": 856,
      "max": [
        0.7812302112579346,
        0.018652454018592834,
        0.8463046550750732
      ],
      "min": [
        -0.7812001705169678,
        -0.5359877943992615,
        -0.01902545429766178
      ],
      "type": "VEC3"
    },
    {
      "bufferView": 2,
      "byteOffset": 10272,
      "componentType": 5126,
      "count": 856,
      "max": [
        0.8962224721908569,
        0.9887583255767822,
        0.9792843461036682
      ],
      "min": [
        -0.6827160716056824,
        -0.9946417212486267,
        -0.9432101249694824
      ],
      "type": "VEC3"
    },
    {
      "bufferView": 1,
      "componentType": 5126,
      "count": 856,
      "max": [
        1.0,
        1.0
      ],
      "min": [
        0.0,
        0.0
      ],
      "type": "VEC2"
    },
    {
      "bufferView": 0,
      "componentType": 5125,
      "count": 1590,
      "type": "SCALAR"
    },
    {
      "bufferView": 2,
      "byteOffset": 20544,
      "componentType": 5126,
      "count": 800,
      "max": [
        0.781460165977478,
        0.01842246949672699,
        0.8455846309661865
      ],
      "min": [
        -0.7814401388168335,
        -0.5354477763175964,
        -0.018795469775795937
      ],
      "type": "VEC3"
    },
    {
      "bufferView": 2,
      "byteOffset": 30144,
      "componentType": 5126,
      "count": 800,
      "max": [
        0.9999969601631165,
        0.991483211517334,
        0.999696671962738
      ],
      "min": [
        -0.9999999403953552,
        -0.9213014245033264,
        -0.9987599849700928
      ],
      "type": "VEC3"
    },
    {
      "bufferView": 1,
      "byteOffset": 6848,
      "componentType": 5126,
      "count": 800,
      "max": [
        1.0,
        1.0
      ],
      "min": [
        0.0,
        0.0
      ],
      "type": "VEC2"
    },
    {
      "bufferView": 0,
      "byteOffset": 6360,
      "componentType": 5125,
      "count": 1272,
      "type": "SCALAR"
    },
    {
      "bufferView": 2,
      "byteOffset": 39744,
      "componentType": 5126,
      "count": 4,
      "max": [
        0.728370189666748,
        -0.0652475506067276,
        0.7989346981048584
      ],
      "min": [
        -0.7288901805877686,
        -0.4988677501678467,
        0.07726453989744186
      ],
      "type": "VEC3"
    },
    {
      "bufferView": 2,
      "byteOffset": 39792,
      "componentType": 5126,
      "count": 4,
      "max": [
        0.0,
        0.857168972492218,
        0.5150355100631714
      ],
      "min": [
        0.0,
        0.8571688532829285,
        0.5150354504585266
      ],
      "type": "VEC3"
    },
    {
      "bufferView": 1,
      "byteOffset": 13248,
      "componentType": 5126,
      "count": 4,
      "max": [
        1.0,
        1.0
      ],
      "min": [
        0.0,
        -5.960464477539063e-08
      ],
      "type": "VEC2"
    },
    {
      "bufferView": 0,
      "byteOffset": 11448,
      "componentType": 5125,
      "count": 6,
      "type": "SCALAR"
    },
    {
      "bufferView": 2,
      "byteOffset": 39840,
      "componentType": 5126,
      "count": 406,
      "max": [
        0.6392759084701538,
        -0.11807819455862045,
        0.200346440076828
      ],
      "min": [
        0.2278251349925995,
        -0.1528453528881073,
        0.14303773641586304
      ],
      "type": "VEC3"
    },
    {
      "bufferView": 2,
      "byteOffset": 44712,
      "componentType": 5126,
      "count": 406,
      "max": [
        0.0038080106023699045,
        -0.8532944321632385,
        -0.5181659460067749
      ],
      "min": [
        -0.006213574204593897,
        -0.8552720546722412,
        -0.5214183330535889
      ],
      "type": "VEC3"
    },
    {
      "bufferView": 1,
      "byteOffset": 13280,
      "componentType": 5126,
      "count": 406,
      "max": [
        1.0,
        1.0
      ],
      "min": [
        0.0,
        0.0
      ],
      "type": "VEC2"
    },
    {
      "bufferView": 0,
      "byteOffset": 11472,
      "componentType": 5125,
      "count": 1176,
      "type": "SCALAR"
    },
    {
      "bufferView": 2,
      "byteOffset": 49584,
      "componentType": 5126,
      "count": 2189,
      "max": [
        0.7812501788139343,
        0.5072951912879944,
        0.01777600310742855
      ],
      "min": [
        -0.7812501788139343,
        -0.49920523166656494,
        -0.024620000272989273
      ],
      "type": "VEC3"
    },
    {
      "bufferView": 2,
      "byteOffset": 75852,
      "componentType": 5126,
      "count": 2189,
      "max": [
        0.9512283802032471,
        0.9576107263565063,
        1.0
      ],
      "min": [
        -0.9926044344902039,
        -0.9914519786834717,
        -0.9999881386756897
      ],
      "type": "VEC3"
    },
    {
      "bufferView": 1,
      "byteOffset": 16528,
      "componentType": 5126,
      "count": 2189,
      "max": [
        1.0,
        1.0
      ],
      "min": [
        0.0,
        0.0
      ],
      "type": "VEC2"
    },
    {
      "bufferView": 0,
      "byteOffset": 16176,
      "componentType": 5125,
      "count": 4065,
      "type": "SCALAR"
    },
    {
      "bufferView": 2,
      "byteOffset": 102120,
      "componentType": 5126,
      "count": 3947,
      "max": [
        0.7819901704788208,
        0.5069750547409058,
        0.024620002135634422
      ],
      "min": [
        -0.7819901704788208,
        -0.5072952508926392,
        -0.023809999227523804
      ],
      "type": "VEC3"
    },
    {
      "bufferView": 2,
      "byteOffset": 149484,
      "componentType": 5126,
      "count": 3947,
      "max": [
        0.9999976754188538,
        1.0,
        0.9999989867210388
      ],
      "min": [
        -0.9999998807907104,
        -0.9999997019767761,
        -0.980837881565094
      ],
      "type": "VEC3"
    },
    {
      "bufferView": 1,
      "byteOffset": 34040,
      "componentType": 5126,
      "count": 3947,
      "max": [
        1.0,
        1.0
      ],
      "min": [
        0.0,
        0.0
      ],
      "type": "VEC2"
    },
    {
      "bufferView": 0,
      "byteOffset": 32436,
      "componentType": 5125,
      "count": 6870,
      "type": "SCALAR"
    },
    {
      "bufferView": 2,
      "byteOffset": 196848,
      "componentType": 5126,
      "count": 841,
      "max": [
        0.7817801833152771,
        -0.19819515943527222,
        0.007230032235383987
      ],
      "min": [
        -0.7817801833152771,
        -0.4432651996612549,
        -0.015059997327625751
      ],
      "type": "VEC3"
    },
    {
      "bufferView": 2,
      "byteOffset": 206940,
      "componentType": 5126,
      "count": 841,
      "max": [
        1.0,
        1.0,
        1.0
      ],
      "min": [
        -1.0,
        -1.0,
        -1.0
      ],
      "type": "VEC3"
    },
    {
      "bufferView": 1,
      "byteOffset": 65616,
      "componentType": 5126,
      "count": 841,
      "max": [
        1.0,
        1.0
      ],
      "min": [
        0.0,
        0.0
      ],
      "type": "VEC2"
    },
    {
      "bufferView": 0,
      "byteOffset": 59916,
      "componentType": 5125,
      "count": 1629,
      "type": "SCALAR"
    },
    {
      "bufferView": 2,
      "byteOffset": 217032,
      "componentType": 5126,
      "count": 11,
      "max": [
        0.20913004875183105,
        0.4504249691963196,
        0.015940112993121147
      ],
      "min": [
        -0.20912006497383118,
        0.13349491357803345,
        0.01580011285841465
      ],
      "type": "VEC3"
    },
    {
      "bufferView": 2,
      "byteOffset": 217164,
      "componentType": 5126,
      "count": 11,
      "max": [
        0.0021067860070616007,
        0.004980545490980148,
        0.9999938011169434
      ],
      "min": [
        -0.06397178024053574,
        -0.7518448829650879,
        0.6588965654373169
      ],
      "type": "VEC3"
    },
    {
      "bufferView": 1,
      "byteOffset": 72344,
      "componentType": 5126,
      "count": 11,
      "max": [
        1.0,
        1.0
      ],
      "min": [
        0.0,
        0.0
      ],
      "type": "VEC2"
    },
    {
      "bufferView": 0,
      "byteOffset": 66432,
      "componentType": 5125,
      "count": 15,
      "type": "SCALAR"
    },
    {
      "bufferView": 2,
      "byteOffset": 217296,
      "componentType": 5126,
      "count": 2674,
      "max": [
        0.6721372008323669,
        0.079804927110672,
        0.018370071426033974
      ],
      "min": [
        -0.6723601222038269,
        -0.43736523389816284,
        0.0183700043708086
      ],
      "type": "VEC3"
    },
    {
      "bufferView": 2,
      "byteOffset": 249384,
      "componentType": 5126,
      "count": 2674,
      "max": [
        3.0494502425426617e-06,
        0.000188565842108801,
        1.0
      ],
      "min": [
        -0.00044073985191062093,
        -3.4447443795215804e-06,
        0.9999999403953552
      ],
      "type": "VEC3"
    },
    {
      "bufferView": 1,
      "byteOffset": 72432,
      "componentType": 5126,
      "count": 2674,
      "max": [
        1.0,
        1.0
      ],
      "min": [
        0.0,
        0.0
      ],
      "type": "VEC2"
    },
    {
      "bufferView": 0,
      "byteOffset": 66492,
      "componentType": 5125,
      "count": 6444,
      "type": "SCALAR"
    },
    {
      "bufferView": 2,
      "byteOffset": 281472,
      "componentType": 5126,
      "count": 1662,
      "max": [
        0.6940948367118835,
        0.08937007188796997,
        0.01801006682217121
      ],
      "min": [
        -0.6858247518539429,
        -0.43804335594177246,
        0.012950005009770393
      ],
      "type": "VEC3"
    },
    {
      "bufferView": 2,
      "byteOffset": 301416,
      "componentType": 5126,
      "count": 1662,
      "max": [
        0.9997174143791199,
        0.9999549388885498,
        1.0
      ],
      "min": [
        -0.9997174143791199,
        -0.9999520182609558,
        0.00949531327933073
      ],
      "type": "VEC3"
    },
    {
      "bufferView": 1,
      "byteOffset": 93824,
      "componentType": 5126,
      "count": 1662,
      "max": [
        1.0,
        1.0
      ],
      "min": [
        0.0,
        0.0
      ],
      "type": "VEC2"
    },
    {
      "bufferView": 0,
      "byteOffset": 92268,
      "componentType": 5125,
      "count": 2472,
      "type": "SCALAR"
    },
    {
      "bufferView": 3,
      "componentType": 5126,
      "count": 398,
      "max": [
        10.416666984558105
      ],
      "min": [
        0.0416666679084301
      ],
      "type": "SCALAR"
    },
    {
      "bufferView": 4,
      "componentType": 5126,
      "count": 398,
      "max": [
        0.9999740719795227,
        1.365431139957121e-16,
        1.9327022072742288e-16,
        0.7071067094802856
      ],
      "min": [
        -0.8626370429992676,
        -1.4557253815300215e-18,
        -1.9329424205241142e-16,
        -0.4986749291419983
      ],
      "type": "VEC4"
    }
  ],
  "animations": [
    {
      "channels": [
        {
          "sampler": 0,
          "target": {
            "node": 4,
            "path": "rotation"
          }
        }
      ],
      "name": "Scene",
      "samplers": [
        {
          "input": 40,
          "interpolation": "LINEAR",
          "output": 41
        }
      ]
    }
  ],
  "asset": {
    "extras": {
      "author": "iSteven (https://sketchfab.com/Steven007)",
      "license": "CC-BY-NC-SA-4.0 (http://creativecommons.org/licenses/by-nc-sa/4.0/)",
      "source": "https://sketchfab.com/3d-models/samsung-ativ-book-9-5e5725666200416cbf650ddce1f84eb4",
      "title": "Samsung Ativ Book 9"
    },
    "generator": "Sketchfab-12.65.0",
    "version": "2.0"
  },
  "bufferViews": [
    {
      "buffer": 0,
      "byteLength": 102156,
      "name": "floatBufferViews",
      "target": 34963
    },
    {
      "buffer": 0,
      "byteLength": 107120,
      "byteOffset": 102156,
      "byteStride": 8,
      "name": "floatBufferViews",
      "target": 34962
    },
    {
      "buffer": 0,
      "byteLength": 321360,
      "byteOffset": 209276,
      "byteStride": 12,
      "name": "floatBufferViews",
      "target": 34962
    },
    {
      "buffer": 0,
      "byteLength": 1592,
      "byteOffset": 530636,
      "name": "floatBufferViews"
    },
    {
      "buffer": 0,
      "byteLength": 6368,
      "byteOffset": 532228,
      "byteStride": 16,
      "name": "floatBufferViews"
    }
  ],
  "buffers": [
    {
      "byteLength": 538596,
      "uri": "scene.bin"
    }
  ],
  "images": [
    {
      "uri": "textures/material_2_baseColor.png"
    }
  ],
  "materials": [
    {
      "doubleSided": true,
      "name": "material",
      "pbrMetallicRoughness": {
        "baseColorFactor": [
          0.013965058094641672,
          0.013965058094641672,
          0.013965058094641672,
          1.0
        ],
        "roughnessFactor": 0.4874728678871304
      }
    },
    {
      "doubleSided": true,
      "name": "alum",
      "pbrMetallicRoughness": {
        "roughnessFactor": 0.0
      }
    },
    {
      "doubleSided": true,
      "name": "material_2",
      "pbrMetallicRoughness": {
        "baseColorTexture": {
          "index": 0
        },
        "metallicFactor": 0.0,
        "roughnessFactor": 0.0
      }
    },
    {
      "doubleSided": true,
      "name": "samsung",
      "pbrMetallicRoughness": {
        "baseColorFactor": [
          0.8,
          0.8,
          0.8,
          1.0
        ],
        "roughnessFactor": 0.0
      }
    },
    {
      "doubleSided": true,
      "name": "flack",
      "pbrMetallicRoughness": {
        "baseColorFactor": [
          0.00901817,
          0.00901817,
          0.00901817,
          1.0
        ],
        "metallicFactor": 0.0,
        "roughnessFactor": 0.8239417257461427
      }
    },
    {
      "doubleSided": true,
      "name": "material_5",
      "pbrMetallicRoughness": {
        "baseColorFactor": [
          0.03084054233895932,
          0.03084054233895932,
          0.03084054233895932,
          1.0
        ],
        "roughnessFactor": 0.3293922102715948
      }
    },
    {
      "doubleSided": true,
      "name": "buton",
      "pbrMetallicRoughness": {
        "baseColorFactor": [
          0.8,
          0.8,
          0.8,
          1.0
        ],
        "metallicFactor": 0.0,
        "roughnessFactor": 0.8239417257461427
      }
    },
    {
      "doubleSided": true,
      "name": "keys",
      "pbrMetallicRoughness": {
        "baseColorFactor": [
          0.0,
          0.0,
          0.0,
          1.0
        ],
        "metallicFactor": 0.0,
        "roughnessFactor": 0.0
      }
    }
  ],
  "meshes": [
    {
      "name": "lid_gun_0",
      "primitives": [
        {
          "attributes": {
            "NORMAL": 1,
            "POSITION": 0,
            "TEXCOORD_0": 2
          },
          "indices": 3,
          "material": 0,
          "mode": 4
        }
      ]
    },
    {
      "name": "lid_alum_0",
      "primitives": [
        {
          "attributes": {
            "NORMAL": 5,
            "POSITION": 4,
            "TEXCOORD_0": 6
          },
          "indices": 7,
          "material": 1,
          "mode": 4
        }
      ]
    },
    {
      "name": "lid_scr_0",
      "primitives": [
        {
          "attributes": {
            "NORMAL": 9,
            "POSITION": 8,
            "TEXCOORD_0": 10
          },
          "indices": 11,
          "material": 2,
          "mode": 4
        }
      ]
    },
    {
      "name": "lid_samsung_0",
      "primitives": [
        {
          "attributes": {
            "NORMAL": 13,
            "POSITION": 12,
            "TEXCOORD_0": 14
          },
          "indices": 15,
          "material": 3,
          "mode": 4
        }
      ]
    },
    {
      "name": "body_gun_0",
      "primitives": [
        {
          "attributes": {
            "NORMAL": 17,
            "POSITION": 16,
            "TEXCOORD_0": 18
          },
          "indices": 19,
          "material": 0,
          "mode": 4
        }
      ]
    },
    {
      "name": "body_alum_0",
      "primitives": [
        {
          "attributes": {
            "NORMAL": 21,
            "POSITION": 20,
            "TEXCOORD_0": 22
          },
          "indices": 23,
          "material": 1,
          "mode": 4
        }
      ]
    },
    {
      "name": "body_flack_0",
      "primitives": [
        {
          "attributes": {
            "NORMAL": 25,
            "POSITION": 24,
            "TEXCOORD_0": 26
          },
          "indices": 27,
          "material": 4,
          "mode": 4
        }
      ]
    },
    {
      "name": "body_tp_0",
      "primitives": [
        {
          "attributes": {
            "NORMAL": 29,
            "POSITION": 28,
            "TEXCOORD_0": 30
          },
          "indices": 31,
          "material": 5,
          "mode": 4
        }
      ]
    },
    {
      "name": "body_buton_0",
      "primitives": [
        {
          "attributes": {
            "NORMAL": 33,
            "POSITION": 32,
            "TEXCOORD_0": 34
          },
          "indices": 35,
          "material": 6,
          "mode": 4
        }
      ]
    },
    {
      "name": "body_keys_0",
      "primitives": [
        {
          "attributes": {
            "NORMAL": 37,
            "POSITION": 36,
            "TEXCOORD_0": 38
          },
          "indices": 39,
          "material": 7,
          "mode": 4
        }
      ]
    }
  ],
  "nodes": [
    {
      "children": [
        1
      ],
      "matrix": [
        1.0,
        0.0,
        0.0,
        0.0,
        0.0,
        2.220446049250313e-16,
        -1.0,
        0.0,
        0.0,
        1.0,
        2.220446049250313e-16,
        0.0,
        0.0,
        0.0,
        0.0,
        1.0
      ],
      "name": "Sketchfab_model"
    },
    {
      "children": [
        2
      ],
      "matrix": [
        1.0,
        0.0,
        0.0,
        0.0,
        0.0,
        0.0,
        1.0,
        0.0,
        0.0,
        -1.0,
        0.0,
        0.0,
        0.0,
        0.0,
        0.0,
        1.0
      ],
      "name": "Samsung 9-Series.fbx"
    },
    {
      "children": [
        3
      ],
      "name": "Object_2"
    },
    {
      "children": [
        4,
        9
      ],
      "name": "RootNode"
    },
    {
      "children": [
        5,
        6,
        7,
        8
      ],
      "name": "lid",
      "rotation": [
        -0.7071068286895752,
        5.17178498345999e-17,
        1.8624704704526385e-16,
        0.7071067094802856
      ],
      "scale": [
        100.0,
        100.0,
        100.0
      ],
      "translation": [
        5.102196978443423e-15,
        2.3795435428619385,
        22.97825050354004
      ]
    },
    {
      "mesh": 0,
      "name": "lid_gun_0"
    },
    {
      "mesh": 1,
      "name": "lid_alum_0"
    },
    {
      "mesh": 2,
      "name": "lid_scr_0"
    },
    {
      "mesh": 3,
      "name": "lid_samsung_0"
    },
    {
      "children": [
        10,
        11,
        12,
        13,
        14,
        15
      ],
      "name": "body",
      "rotation": [
        -0.7071068286895752,
        0.0,
        0.0,
        0.7071067094802856
      ],
      "scale": [
        100.0,
        100.0,
        100.0
      ],
      "translation": [
        0.0,
        1.7169979810714722,
        -25.78951644897461
      ]
    },
    {
      "mesh": 4,
      "name": "body_gun_0"
    },
    {
      "mesh": 5,
      "name": "body_alum_0"
    },
    {
      "mesh": 6,
      "name": "body_flack_0"
    },
    {
      "mesh": 7,
      "name": "body_tp_0"
    },
    {
      "mesh": 8,
      "name": "body_buton_0"
    },
    {
      "mesh": 9,
      "name": "body_keys_0"
    }
  ],
  "samplers": [
    {
      "magFilter": 9729,
      "minFilter": 9987,
      "wrapS": 10497,
      "wrapT": 10497
    }
  ],
  "scene": 0,
  "scenes": [
    {
      "name": "Sketchfab_Scene",
      "nodes": [
        0
      ]
    }
  ],
  "textures": [
    {
      "sampler": 0,
      "source": 0
    }
  ]
}
