{
  "accessors": [
    {
      "bufferView": 2,
      "componentType": 5126,
      "count": 1341,
      "max": [
        1.1959985494613647,
        0.006000000052154064,
        0.8489884734153748
      ],
      "min": [
        -1.172134280204773,
        0.000526734977029264,
        -0.8512319326400757
      ],
      "type": "VEC3"
    },
    {
      "bufferView": 2,
      "byteOffset": 16092,
      "componentType": 5126,
      "count": 1341,
      "max": [
        0.9999989867210388,
        0.5704171657562256,
        1.0
      ],
      "min": [
        -1.0,
        -1.0,
        -1.0
      ],
      "type": "VEC3"
    },
    {
      "bufferView": 1,
      "componentType": 5126,
      "count": 1341,
      "max": [
        0.9669517874717712,
        0.9613723754882813
      ],
      "min": [
        0.040621157735586166,
        0.03991709649562836
      ],
      "type": "VEC2"
    },
    {
      "bufferView": 1,
      "byteOffset": 10728,
      "componentType": 5126,
      "count": 1341,
      "max": [
        0.9669517874717712,
        0.9613723754882813
      ],
      "min": [
        0.040621157735586166,
        0.03991709649562836
      ],
      "type": "VEC2"
    },
    {
      "bufferView": 0,
      "componentType": 5125,
      "count": 2079,
      "type": "SCALAR"
    },
    {
      "bufferView": 2,
      "byteOffset": 32184,
      "componentType": 5126,
      "count": 543,
      "max": [
        1.195730447769165,
        0.001043576980009675,
        0.8487197160720825
      ],
      "min": [
        -1.1718661785125732,
        0.0,
        -0.8509645462036133
      ],
      "type": "VEC3"
    },
    {
      "bufferView": 2,
      "byteOffset": 38700,
      "componentType": 5126,
      "count": 543,
      "max": [
        0.7071492671966553,
        1.0,
        0.7071433663368225
      ],
      "min": [
        -0.7198472023010254,
        0.5435324311256409,
        -0.7188266515731812
      ],
      "type": "VEC3"
    },
    {
      "bufferView": 1,
      "byteOffset": 21456,
      "componentType": 5126,
      "count": 543,
      "max": [
        0.9665607810020447,
        0.9623929858207703
      ],
      "min": [
        0.040621157735586166,
        0.03991709277033806
      ],
      "type": "VEC2"
    },
    {
      "bufferView": 1,
      "byteOffset": 25800,
      "componentType": 5126,
      "count": 543,
      "max": [
        0.9665607810020447,
        0.9623929858207703
      ],
      "min": [
        0.040621157735586166,
        0.03991709277033806
      ],
      "type": "VEC2"
    },
    {
      "bufferView": 0,
      "byteOffset": 8316,
      "componentType": 5125,
      "count": 885,
      "type": "SCALAR"
    },
    {
      "bufferView": 2,
      "byteOffset": 45216,
      "componentType": 5126,
      "count": 65532,
      "max": [
        -1.1473623514175415,
        0.007853589951992035,
        0.8549673557281494
      ],
      "min": [
        -1.1897672414779663,
        -0.003815651638433337,
        -0.8610438704490662
      ],
      "type": "VEC3"
    },
    {
      "bufferView": 2,
      "byteOffset": 831600,
      "componentType": 5126,
      "count": 65532,
      "max": [
        1.0,
        1.0,
        1.0
      ],
      "min": [
        -1.0,
        -1.0,
        -1.0
      ],
      "type": "VEC3"
    },
    {
      "bufferView": 1,
      "byteOffset": 30144,
      "componentType": 5126,
      "count": 65532,
      "max": [
        0.10000000149011612,
        0.09999990463256836
      ],
      "min": [
        0.0,
        0.0
      ],
      "type": "VEC2"
    },
    {
      "bufferView": 0,
      "byteOffset": 11856,
      "componentType": 5125,
      "count": 376539,
      "type": "SCALAR"
    },
    {
      "bufferView": 2,
      "byteOffset": 1617984,
      "componentType": 5126,
      "count": 65532,
      "max": [
        -1.147401213645935,
        0.008128455840051174,
        0.8523404598236084
      ],
      "min": [
        -1.1896047592163086,
        -0.004494006745517254,
        -0.8576964735984802
      ],
      "type": "VEC3"
    },
    {
      "bufferView": 2,
      "byteOffset": 2404368,
      "componentType": 5126,
      "count": 65532,
      "max": [
        1.0,
        1.0,
        1.0
      ],
      "min": [
        -1.0,
        -1.0,
        -1.0
      ],
      "type": "VEC3"
    },
    {
      "bufferView": 1,
      "byteOffset": 554400,
      "componentType": 5126,
      "count": 65532,
      "max": [
        0.10000000149011612,
        0.09999990463256836
      ],
      "min": [
        0.0,
        0.0
      ],
      "type": "VEC2"
    },
    {
      "bufferView": 0,
      "byteOffset": 1518012,
      "componentType": 5125,
      "count": 376857,
      "type": "SCALAR"
    },
    {
      "bufferView": 2,
      "byteOffset": 3190752,
      "componentType": 5126,
      "count": 27066,
      "max": [
        -1.1475059986114502,
        0.008026974275708199,
        0.8529297113418579
      ],
      "min": [
        -1.189224362373352,
        -0.003958971239626408,
        -0.8551351428031921
      ],
      "type": "VEC3"
    },
    {
      "bufferView": 2,
      "byteOffset": 3515544,
      "componentType": 5126,
      "count": 27066,
      "max": [
        1.0,
        1.0,
        1.0
      ],
      "min": [
        -1.0,
        -1.0,
        -1.0
      ],
      "type": "VEC3"
    },
    {
      "bufferView": 1,
      "byteOffset": 1078656,
      "componentType": 5126,
      "count": 27066,
      "max": [
        0.10000000149011612,
        0.09999990463256836
      ],
      "min": [
        0.0,
        0.0
      ],
      "type": "VEC2"
    },
    {
      "bufferView": 0,
      "byteOffset": 3025440,
      "componentType": 5125,
      "count": 146997,
      "type": "SCALAR"
    },
    {
      "bufferView": 2,
      "byteOffset": 3840336,
      "componentType": 5126,
      "count": 65532,
      "max": [
        1.2182633876800537,
        0.00737053481861949,
        0.8433541059494019
      ],
      "min": [
        1.186484694480896,
        -0.0047751194797456264,
        -0.8535428047180176
      ],
      "type": "VEC3"
    },
    {
      "bufferView": 2,
      "byteOffset": 4626720,
      "componentType": 5126,
      "count": 65532,
      "max": [
        1.0,
        1.0,
        1.0
      ],
      "min": [
        -1.0,
        -1.0,
        -1.0
      ],
      "type": "VEC3"
    },
    {
      "bufferView": 1,
      "byteOffset": 1295184,
      "componentType": 5126,
      "count": 65532,
      "max": [
        0.10000000149011612,
        0.09999990463256836
      ],
      "min": [
        0.0,
        0.0
      ],
      "type": "VEC2"
    },
    {
      "bufferView": 0,
      "byteOffset": 3613428,
      "componentType": 5125,
      "count": 376776,
      "type": "SCALAR"
    },
    {
      "bufferView": 2,
      "byteOffset": 5413104,
      "componentType": 5126,
      "count": 65532,
      "max": [
        1.2182338237762451,
        0.00816151313483715,
        0.8412543535232544
      ],
      "min": [
        1.1864604949951172,
        -0.005453513935208321,
        -0.8531253933906555
      ],
      "type": "VEC3"
    },
    {
      "bufferView": 2,
      "byteOffset": 6199488,
      "componentType": 5126,
      "count": 65532,
      "max": [
        1.0,
        1.0,
        1.0
      ],
      "min": [
        -1.0,
        -1.0,
        -1.0
      ],
      "type": "VEC3"
    },
    {
      "bufferView": 1,
      "byteOffset": 1819440,
      "componentType": 5126,
      "count": 65532,
      "max": [
        0.10000000149011612,
        0.09999990463256836
      ],
      "min": [
        0.0,
        0.0
      ],
      "type": "VEC2"
    },
    {
      "bufferView": 0,
      "byteOffset": 5120532,
      "componentType": 5125,
      "count": 376893,
      "type": "SCALAR"
    },
    {
      "bufferView": 2,
      "byteOffset": 6985872,
      "componentType": 5126,
      "count": 26852,
      "max": [
        1.2180207967758179,
        0.007722489535808563,
        0.8376671671867371
      ],
      "min": [
        1.1866962909698486,
        -0.004137794021517038,
        -0.8530869483947754
      ],
      "type": "VEC3"
    },
    {
      "bufferView": 2,
      "byteOffset": 7308096,
      "componentType": 5126,
      "count": 26852,
      "max": [
        1.0,
        1.0,
        1.0
      ],
      "min": [
        -1.0,
        -1.0,
        -1.0
      ],
      "type": "VEC3"
    },
    {
      "bufferView": 1,
      "byteOffset": 2343696,
      "componentType": 5126,
      "count": 26852,
      "max": [
        0.10000000149011612,
        0.09999990463256836
      ],
      "min": [
        0.0,
        0.0
      ],
      "type": "VEC2"
    },
    {
      "bufferView": 0,
      "byteOffset": 6628104,
      "componentType": 5125,
      "count": 146889,
      "type": "SCALAR"
    }
  ],
  "asset": {
    "extras": {
      "author": "mfb64 (https://sketchfab.com/mfb64)",
      "license": "CC-BY-4.0 (http://creativecommons.org/licenses/by/4.0/)",
      "source": "https://sketchfab.com/3d-models/bhadoi-rug-b7274481dcfa4290964cd6e509e51952",
      "title": "Bhadoi Rug"
    },
    "generator": "Sketchfab-12.65.0",
    "version": "2.0"
  },
  "bufferViews": [
    {
      "buffer": 0,
      "byteLength": 7215660,
      "name": "floatBufferViews",
      "target": 34963
    },
    {
      "buffer": 0,
      "byteLength": 2558512,
      "byteOffset": 7215660,
      "byteStride": 8,
      "name": "floatBufferViews",
      "target": 34962
    },
    {
      "buffer": 0,
      "byteLength": 7630320,
      "byteOffset": 9774172,
      "byteStride": 12,
      "name": "floatBufferViews",
      "target": 34962
    }
  ],
  "buffers": [
    {
      "byteLength": 17404492,
      "uri": "scene.bin"
    }
  ],
  "images": [
    {
      "uri": "textures/carpet_baseColor.jpeg"
    },
    {
      "uri": "textures/carpet.back_baseColor.jpeg"
    }
  ],
  "materials": [
    {
      "doubleSided": true,
      "name": "carpet",
      "pbrMetallicRoughness": {
        "baseColorTexture": {
          "index": 0
        },
        "metallicFactor": 0.0,
        "roughnessFactor": 0.8
      }
    },
    {
      "doubleSided": true,
      "name": "carpet.back",
      "pbrMetallicRoughness": {
        "baseColorTexture": {
          "index": 1
        },
        "metallicFactor": 0.0,
        "roughnessFactor": 0.9
      }
    },
    {
      "doubleSided": true,
      "name": "frange",
      "pbrMetallicRoughness": {
        "baseColorFactor": [
          0.646928,
          0.513138,
          0.264981,
          1.0
        ],
        "metallicFactor": 0.0,
        "roughnessFactor": 0.95
      }
    }
  ],
  "meshes": [
    {
      "name": "Object_0",
      "primitives": [
        {
          "attributes": {
            "NORMAL": 1,
            "POSITION": 0,
            "TEXCOORD_0": 2,
            "TEXCOORD_1": 3
          },
          "indices": 4,
          "material": 0,
          "mode": 4
        }
      ]
    },
    {
      "name": "Object_1",
      "primitives": [
        {
          "attributes": {
            "NORMAL": 6,
            "POSITION": 5,
            "TEXCOORD_0": 7,
            "TEXCOORD_1": 8
          },
          "indices": 9,
          "material": 1,
          "mode": 4
        }
      ]
    },
    {
      "name": "Object_2",
      "primitives": [
        {
          "attributes": {
            "NORMAL": 11,
            "POSITION": 10,
            "TEXCOORD_0": 12
          },
          "indices": 13,
          "material": 2,
          "mode": 4
        }
      ]
    },
    {
      "name": "Object_3",
      "primitives": [
        {
          "attributes": {
            "NORMAL": 15,
            "POSITION": 14,
            "TEXCOORD_0": 16
          },
          "indices": 17,
          "material": 2,
          "mode": 4
        }
      ]
    },
    {
      "name": "Object_4",
      "primitives": [
        {
          "attributes": {
            "NORMAL": 19,
            "POSITION": 18,
            "TEXCOORD_0": 20
          },
          "indices": 21,
          "material": 2,
          "mode": 4
        }
      ]
    },
    {
      "name": "Object_5",
      "primitives": [
        {
          "attributes": {
            "NORMAL": 23,
            "POSITION": 22,
            "TEXCOORD_0": 24
          },
          "indices": 25,
          "material": 2,
          "mode": 4
        }
      ]
    },
    {
      "name": "Object_6",
      "primitives": [
        {
          "attributes": {
            "NORMAL": 27,
            "POSITION": 26,
            "TEXCOORD_0": 28
          },
          "indices": 29,
          "material": 2,
          "mode": 4
        }
      ]
    },
    {
      "name": "Object_7",
      "primitives": [
        {
          "attributes": {
            "NORMAL": 31,
            "POSITION": 30,
            "TEXCOORD_0": 32
          },
          "indices": 33,
          "material": 2,
          "mode": 4
        }
      ]
    }
  ],
  "nodes": [
    {
      "children": [
        1
      ],
      "matrix": [
        1.0,
        0.0,
        0.0,
        0.0,
        0.0,
        2.220446049250313e-16,
        -1.0,
        0.0,
        0.0,
        1.0,
        2.220446049250313e-16,
        0.0,
        0.0,
        0.0,
        0.0,
        1.0
      ],
      "name": "Sketchfab_model"
    },
    {
      "children": [
        2
      ],
      "name": "root"
    },
    {
      "children": [
        3
      ],
      "matrix": [
        1.0,
        0.0,
        0.0,
        0.0,
        0.0,
        2.220446049250313e-16,
        1.0,
        0.0,
        0.0,
        -1.0,
        2.220446049250313e-16,
        0.0,
        0.0,
        0.0,
        0.0,
        1.0
      ],
      "name": "GLTF_SceneRootNode"
    },
    {
      "children": [
        4,
        7,
        11
      ],
      "matrix": [
        0.0010000000474974513,
        0.0,
        0.0,
        0.0,
        0.0,
        0.0010000000474974513,
        0.0,
        0.0,
        0.0,
        0.0,
        0.0010000000474974513,
        0.0,
        0.0,
        0.0,
        0.0,
        1.0
      ],
      "name": "BHADOHI rug_3"
    },
    {
      "children": [
        5,
        6
      ],
      "matrix": [
        999.9999389648438,
        0.0,
        0.0,
        0.0,
        0.0,
        999.9999389648438,
        0.0,
        0.0,
        0.0,
        0.0,
        999.9999389648438,
        0.0,
        0.0,
        0.0,
        0.0,
        1.0
      ],
      "name": "carpet_0"
    },
    {
      "mesh": 0,
      "name": "Object_5"
    },
    {
      "mesh": 1,
      "name": "Object_6"
    },
    {
      "children": [
        8,
        9,
        10
      ],
      "matrix": [
        999.9999389648438,
        0.0,
        0.0,
        0.0,
        0.0,
        999.9999389648438,
        0.0,
        0.0,
        0.0,
        0.0,
        999.9999389648438,
        0.0,
        0.0,
        0.0,
        0.0,
        1.0
      ],
      "name": "frange1_1"
    },
    {
      "mesh": 2,
      "name": "Object_8"
    },
    {
      "mesh": 3,
      "name": "Object_9"
    },
    {
      "mesh": 4,
      "name": "Object_10"
    },
    {
      "children": [
        12,
        13,
        14
      ],
      "matrix": [
        999.9999389648438,
        0.0,
        0.0,
        0.0,
        0.0,
        999.9999389648438,
        0.0,
        0.0,
        0.0,
        0.0,
        999.9999389648438,
        0.0,
        0.0,
        0.0,
        0.0,
        1.0
      ],
      "name": "frange2_2"
    },
    {
      "mesh": 5,
      "name": "Object_12"
    },
    {
      "mesh": 6,
      "name": "Object_13"
    },
    {
      "mesh": 7,
      "name": "Object_14"
    }
  ],
  "samplers": [
    {
      "magFilter": 9729,
      "minFilter": 9987,
      "wrapS": 10497,
      "wrapT": 10497
    }
  ],
  "scene": 0,
  "scenes": [
    {
      "name": "Sketchfab_Scene",
      "nodes": [
        0
      ]
    }
  ],
  "textures": [
    {
      "sampler": 0,
      "source": 0
    },
    {
      "sampler": 0,
      "source": 1
    }
  ]
}
