{
  "accessors": [
    {
      "bufferView": 2,
      "componentType": 5126,
      "count": 27,
      "max": [
        1.3710919618606567,
        1.3710919618606567,
        2.392997980117798
      ],
      "min": [
        -1.3710919618606567,
        -1.3710919618606567,
        2.1637589931488037
      ],
      "type": "VEC3"
    },
    {
      "bufferView": 2,
      "byteOffset": 324,
      "componentType": 5126,
      "count": 27,
      "max": [
        0.6021291613578796,
        0.6908019781112671,
        1.0
      ],
      "min": [
        -0.6021291613578796,
        -0.6908019781112671,
        0.6815338134765625
      ],
      "type": "VEC3"
    },
    {
      "bufferView": 1,
      "componentType": 5126,
      "count": 27,
      "max": [
        0.9943100214004517,
        0.9996650218963623
      ],
      "min": [
        9.999999747378752e-05,
        0.0003349999897181988
      ],
      "type": "VEC2"
    },
    {
      "bufferView": 0,
      "componentType": 5125,
      "count": 120,
      "type": "SCALAR"
    },
    {
      "bufferView": 2,
      "byteOffset": 648,
      "componentType": 5126,
      "count": 836,
      "max": [
        1.6142829656600952,
        1.6142829656600952,
        2.704714059829712
      ],
      "min": [
        -1.6142829656600952,
        -1.6142829656600952,
        0.0
      ],
      "type": "VEC3"
    },
    {
      "bufferView": 2,
      "byteOffset": 10680,
      "componentType": 5126,
      "count": 836,
      "max": [
        1.0,
        1.0,
        1.0
      ],
      "min": [
        -1.0,
        -1.0,
        -1.0
      ],
      "type": "VEC3"
    },
    {
      "bufferView": 3,
      "componentType": 5126,
      "count": 836,
      "max": [
        0.9999974370002747,
        0.9996525049209595,
        0.9861035346984863,
        1.0
      ],
      "min": [
        -0.9440615773200989,
        -0.9997898936271667,
        -0.9861037135124207,
        1.0
      ],
      "type": "VEC4"
    },
    {
      "bufferView": 1,
      "byteOffset": 216,
      "componentType": 5126,
      "count": 836,
      "max": [
        0.957617998123169,
        0.9287760257720947
      ],
      "min": [
        0.015564999543130398,
        0.01193699985742569
      ],
      "type": "VEC2"
    },
    {
      "bufferView": 0,
      "byteOffset": 480,
      "componentType": 5125,
      "count": 4416,
      "type": "SCALAR"
    },
    {
      "bufferView": 2,
      "byteOffset": 20712,
      "componentType": 5126,
      "count": 763,
      "max": [
        0.8552460074424744,
        0.5033010244369507,
        6.608994007110596
      ],
      "min": [
        -0.9712309837341309,
        -0.42461898922920227,
        0.8050850033760071
      ],
      "type": "VEC3"
    },
    {
      "bufferView": 2,
      "byteOffset": 29868,
      "componentType": 5126,
      "count": 763,
      "max": [
        0.9994021654129028,
        0.9994670748710632,
        0.9916207790374756
      ],
      "min": [
        -0.9994453191757202,
        -0.9994511008262634,
        -0.8155894875526428
      ],
      "type": "VEC3"
    },
    {
      "bufferView": 3,
      "byteOffset": 13376,
      "componentType": 5126,
      "count": 763,
      "max": [
        0.9998254776000977,
        0.9989158511161804,
        0.9999994039535522,
        1.0
      ],
      "min": [
        -0.999495804309845,
        -0.9998642206192017,
        -1.0,
        -1.0
      ],
      "type": "VEC4"
    },
    {
      "bufferView": 1,
      "byteOffset": 6904,
      "componentType": 5126,
      "count": 763,
      "max": [
        0.9784470200538635,
        0.9546059966087341
      ],
      "min": [
        0.08468999713659286,
        0.0029410000424832106
      ],
      "type": "VEC2"
    },
    {
      "bufferView": 0,
      "byteOffset": 18144,
      "componentType": 5125,
      "count": 3780,
      "type": "SCALAR"
    },
    {
      "bufferView": 2,
      "byteOffset": 39024,
      "componentType": 5126,
      "count": 8284,
      "max": [
        3.5433220863342285,
        2.9988009929656982,
        10.938905715942383
      ],
      "min": [
        -2.8901479244232178,
        -2.196624994277954,
        3.0544259548187256
      ],
      "type": "VEC3"
    },
    {
      "bufferView": 2,
      "byteOffset": 138432,
      "componentType": 5126,
      "count": 8284,
      "max": [
        0.9996634125709534,
        0.9998325705528259,
        0.9998775124549866
      ],
      "min": [
        -0.9990801215171814,
        -0.9985201954841614,
        -0.9995880722999573
      ],
      "type": "VEC3"
    },
    {
      "bufferView": 1,
      "byteOffset": 13008,
      "componentType": 5126,
      "count": 8284,
      "max": [
        0.9968019723892212,
        0.9963189959526062
      ],
      "min": [
        -0.274850994348526,
        0.0031979999039322138
      ],
      "type": "VEC2"
    },
    {
      "bufferView": 0,
      "byteOffset": 33264,
      "componentType": 5125,
      "count": 24570,
      "type": "SCALAR"
    },
    {
      "bufferView": 2,
      "byteOffset": 237840,
      "componentType": 5126,
      "count": 128,
      "max": [
        0.20079000294208527,
        0.3646939992904663,
        8.475406646728516
      ],
      "min": [
        -0.17521600425243378,
        0.014557000249624252,
        6.594613075256348
      ],
      "type": "VEC3"
    },
    {
      "bufferView": 2,
      "byteOffset": 239376,
      "componentType": 5126,
      "count": 128,
      "max": [
        0.9889307618141174,
        0.9886208772659302,
        0.7118438482284546
      ],
      "min": [
        -0.9820938110351563,
        -0.9851556420326233,
        -0.6707123517990112
      ],
      "type": "VEC3"
    },
    {
      "bufferView": 1,
      "byteOffset": 79280,
      "componentType": 5126,
      "count": 128,
      "max": [
        0.9784470200538635,
        0.0572500005364418
      ],
      "min": [
        0.8781139850616455,
        0.0029410000424832106
      ],
      "type": "VEC2"
    },
    {
      "bufferView": 0,
      "byteOffset": 131544,
      "componentType": 5125,
      "count": 756,
      "type": "SCALAR"
    }
  ],
  "asset": {
    "extras": {
      "author": "Asia Matusik (https://sketchfab.com/asiam)",
      "license": "CC-BY-4.0 (http://creativecommons.org/licenses/by/4.0/)",
      "source": "https://sketchfab.com/3d-models/pot-plant-dracena-c2207e3e18ba454f8ceb43f208d0927c",
      "title": "Pot plant - Dracena"
    },
    "generator": "Sketchfab-12.66.0",
    "version": "2.0"
  },
  "bufferViews": [
    {
      "buffer": 0,
      "byteLength": 134568,
      "name": "floatBufferViews",
      "target": 34963
    },
    {
      "buffer": 0,
      "byteLength": 80304,
      "byteOffset": 134568,
      "byteStride": 8,
      "name": "floatBufferViews",
      "target": 34962
    },
    {
      "buffer": 0,
      "byteLength": 240912,
      "byteOffset": 214872,
      "byteStride": 12,
      "name": "floatBufferViews",
      "target": 34962
    },
    {
      "buffer": 0,
      "byteLength": 25584,
      "byteOffset": 455784,
      "byteStride": 16,
      "name": "floatBufferViews",
      "target": 34962
    }
  ],
  "buffers": [
    {
      "byteLength": 481368,
      "uri": "scene.bin"
    }
  ],
  "images": [
    {
      "uri": "textures/PLANT01_baseColor.png"
    },
    {
      "uri": "textures/PLANT01_metallicRoughness.png"
    },
    {
      "uri": "textures/PLANT01_normal.png"
    },
    {
      "uri": "textures/PLANT02_baseColor.png"
    },
    {
      "uri": "textures/PLANT02_metallicRoughness.png"
    },
    {
      "uri": "textures/dirt_baseColor.png"
    },
    {
      "uri": "textures/dirt_metallicRoughness.png"
    },
    {
      "uri": "textures/material_baseColor.png"
    },
    {
      "uri": "textures/material_metallicRoughness.png"
    },
    {
      "uri": "textures/material_normal.png"
    }
  ],
  "materials": [
    {
      "doubleSided": true,
      "name": "PLANT01",
      "normalTexture": {
        "index": 2
      },
      "occlusionTexture": {
        "index": 1
      },
      "pbrMetallicRoughness": {
        "baseColorTexture": {
          "index": 0
        },
        "metallicFactor": 0.0,
        "metallicRoughnessTexture": {
          "index": 1
        }
      }
    },
    {
      "doubleSided": true,
      "name": "PLANT02",
      "occlusionTexture": {
        "index": 4
      },
      "pbrMetallicRoughness": {
        "baseColorTexture": {
          "index": 3
        },
        "metallicRoughnessTexture": {
          "index": 4
        }
      }
    },
    {
      "doubleSided": true,
      "name": "dirt",
      "occlusionTexture": {
        "index": 6
      },
      "pbrMetallicRoughness": {
        "baseColorTexture": {
          "index": 5
        },
        "metallicFactor": 0.0,
        "metallicRoughnessTexture": {
          "index": 6
        },
        "roughnessFactor": 0.6
      }
    },
    {
      "doubleSided": true,
      "name": "material",
      "normalTexture": {
        "index": 9
      },
      "occlusionTexture": {
        "index": 8
      },
      "pbrMetallicRoughness": {
        "baseColorTexture": {
          "index": 7
        },
        "metallicFactor": 0.0,
        "metallicRoughnessTexture": {
          "index": 8
        },
        "roughnessFactor": 0.6
      }
    }
  ],
  "meshes": [
    {
      "name": "Object_0",
      "primitives": [
        {
          "attributes": {
            "NORMAL": 1,
            "POSITION": 0,
            "TEXCOORD_0": 2
          },
          "indices": 3,
          "material": 2,
          "mode": 4
        }
      ]
    },
    {
      "name": "Object_1",
      "primitives": [
        {
          "attributes": {
            "NORMAL": 5,
            "POSITION": 4,
            "TANGENT": 6,
            "TEXCOORD_0": 7
          },
          "indices": 8,
          "material": 3,
          "mode": 4
        }
      ]
    },
    {
      "name": "Object_2",
      "primitives": [
        {
          "attributes": {
            "NORMAL": 10,
            "POSITION": 9,
            "TANGENT": 11,
            "TEXCOORD_0": 12
          },
          "indices": 13,
          "material": 0,
          "mode": 4
        }
      ]
    },
    {
      "name": "Object_3",
      "primitives": [
        {
          "attributes": {
            "NORMAL": 15,
            "POSITION": 14,
            "TEXCOORD_0": 16
          },
          "indices": 17,
          "material": 1,
          "mode": 4
        }
      ]
    },
    {
      "name": "Object_4",
      "primitives": [
        {
          "attributes": {
            "NORMAL": 19,
            "POSITION": 18,
            "TEXCOORD_0": 20
          },
          "indices": 21,
          "material": 1,
          "mode": 4
        }
      ]
    }
  ],
  "nodes": [
    {
      "children": [
        1
      ],
      "matrix": [
        1.0,
        0.0,
        0.0,
        0.0,
        0.0,
        2.220446049250313e-16,
        -1.0,
        0.0,
        0.0,
        1.0,
        2.220446049250313e-16,
        0.0,
        0.0,
        0.0,
        0.0,
        1.0
      ],
      "name": "Sketchfab_model"
    },
    {
      "children": [
        2,
        3,
        4,
        5,
        6
      ],
      "name": "dracena.obj.cleaner.materialmerger.gles"
    },
    {
      "mesh": 0,
      "name": "Object_2"
    },
    {
      "mesh": 1,
      "name": "Object_3"
    },
    {
      "mesh": 2,
      "name": "Object_4"
    },
    {
      "mesh": 3,
      "name": "Object_5"
    },
    {
      "mesh": 4,
      "name": "Object_6"
    }
  ],
  "samplers": [
    {
      "magFilter": 9729,
      "minFilter": 9987,
      "wrapS": 10497,
      "wrapT": 10497
    }
  ],
  "scene": 0,
  "scenes": [
    {
      "name": "Sketchfab_Scene",
      "nodes": [
        0
      ]
    }
  ],
  "textures": [
    {
      "sampler": 0,
      "source": 0
    },
    {
      "sampler": 0,
      "source": 1
    },
    {
      "sampler": 0,
      "source": 2
    },
    {
      "sampler": 0,
      "source": 3
    },
    {
      "sampler": 0,
      "source": 4
    },
    {
      "sampler": 0,
      "source": 5
    },
    {
      "sampler": 0,
      "source": 6
    },
    {
      "sampler": 0,
      "source": 7
    },
    {
      "sampler": 0,
      "source": 8
    },
    {
      "sampler": 0,
      "source": 9
    }
  ]
}
