{
  "accessors": [
    {
      "bufferView": 2,
      "componentType": 5126,
      "count": 78,
      "max": [
        13.62432861328125,
        30.925716400146484,
        5.5788116455078125
      ],
      "min": [
        -13.62432861328125,
        0.26141953468322754,
        -5.5788116455078125
      ],
      "type": "VEC3"
    },
    {
      "bufferView": 2,
      "byteOffset": 936,
      "componentType": 5126,
      "count": 78,
      "max": [
        0.9993388056755066,
        0.9851558208465576,
        0.9989640712738037
      ],
      "min": [
        -0.9999562501907349,
        -0.9999955892562866,
        -0.9999772906303406
      ],
      "type": "VEC3"
    },
    {
      "bufferView": 1,
      "componentType": 5126,
      "count": 78,
      "max": [
        0.9259737133979797,
        0.2783678472042084
      ],
      "min": [
        0.4786328375339508,
        0.006106330547481775
      ],
      "type": "VEC2"
    },
    {
      "bufferView": 1,
      "byteOffset": 624,
      "componentType": 5126,
      "count": 78,
      "max": [
        0.9947307705879211,
        0.6531186699867249
      ],
      "min": [
        0.7912409901618958,
        0.01229405403137207
      ],
      "type": "VEC2"
    },
    {
      "bufferView": 0,
      "componentType": 5125,
      "count": 246,
      "type": "SCALAR"
    }
  ],
  "asset": {
    "extras": {
      "author": "MW (https://sketchfab.com/mw3dart)",
      "license": "CC-BY-4.0 (http://creativecommons.org/licenses/by/4.0/)",
      "source": "https://sketchfab.com/3d-models/chicken-nuggets-f751cf123621413aaf4bac355d944f47",
      "title": "Chicken Nuggets"
    },
    "generator": "Sketchfab-12.67.0",
    "version": "2.0"
  },
  "bufferViews": [
    {
      "buffer": 0,
      "byteLength": 984,
      "name": "floatBufferViews",
      "target": 34963
    },
    {
      "buffer": 0,
      "byteLength": 1248,
      "byteOffset": 984,
      "byteStride": 8,
      "name": "floatBufferViews",
      "target": 34962
    },
    {
      "buffer": 0,
      "byteLength": 1872,
      "byteOffset": 2232,
      "byteStride": 12,
      "name": "floatBufferViews",
      "target": 34962
    }
  ],
  "buffers": [
    {
      "byteLength": 4104,
      "uri": "scene.bin"
    }
  ],
  "images": [
    {
      "uri": "textures/frozen_entrees_002_M_baseColor.png"
    }
  ],
  "materials": [
    {
      "doubleSided": true,
      "name": "frozen_entrees_002_M",
      "pbrMetallicRoughness": {
        "baseColorTexture": {
          "index": 0
        },
        "metallicFactor": 0.0,
        "roughnessFactor": 0.9918032841655798
      }
    }
  ],
  "meshes": [
    {
      "name": "chicken_nuggets_tylers_LOD00_frozen_entrees_002_M_0",
      "primitives": [
        {
          "attributes": {
            "NORMAL": 1,
            "POSITION": 0,
            "TEXCOORD_0": 2,
            "TEXCOORD_1": 3
          },
          "indices": 4,
          "material": 0,
          "mode": 4
        }
      ]
    }
  ],
  "nodes": [
    {
      "children": [
        1
      ],
      "matrix": [
        0.012820512987673283,
        0.0,
        0.0,
        0.0,
        0.0,
        2.846725741284147e-18,
        -0.012820512987673283,
        0.0,
        0.0,
        0.012820512987673283,
        2.846725741284147e-18,
        0.0,
        0.0,
        0.0,
        0.0,
        1.0
      ],
      "name": "Sketchfab_model"
    },
    {
      "children": [
        2
      ],
      "matrix": [
        1.0,
        0.0,
        0.0,
        0.0,
        0.0,
        0.0,
        1.0,
        0.0,
        0.0,
        -1.0,
        0.0,
        0.0,
        0.0,
        0.0,
        0.0,
        1.0
      ],
      "name": "80aa9aa4ac4c4e5a89ef98d40ebfe1cb.fbx"
    },
    {
      "children": [
        3
      ],
      "name": "RootNode"
    },
    {
      "children": [
        4
      ],
      "name": "chicken_nuggets_tylers_LOD00"
    },
    {
      "mesh": 0,
      "name": "chicken_nuggets_tylers_LOD00_frozen_entrees_002_M_0"
    }
  ],
  "samplers": [
    {
      "magFilter": 9729,
      "minFilter": 9987,
      "wrapS": 10497,
      "wrapT": 10497
    }
  ],
  "scene": 0,
  "scenes": [
    {
      "name": "Sketchfab_Scene",
      "nodes": [
        0
      ]
    }
  ],
  "textures": [
    {
      "sampler": 0,
      "source": 0
    }
  ]
}
