{
  "accessors": [
    {
      "bufferView": 2,
      "componentType": 5126,
      "count": 1428,
      "max": [
        50.0,
        110.52850341796875,
        40.405338287353516
      ],
      "min": [
        -50.0,
        7.996548175811768,
        -1.5946849584579468
      ],
      "type": "VEC3"
    },
    {
      "bufferView": 2,
      "byteOffset": 17136,
      "componentType": 5126,
      "count": 1428,
      "max": [
        1.0,
        1.0,
        1.0
      ],
      "min": [
        -1.0,
        -1.0,
        -1.0
      ],
      "type": "VEC3"
    },
    {
      "bufferView": 1,
      "componentType": 5126,
      "count": 1428,
      "max": [
        0.9988219141960144,
        0.9721670746803284
      ],
      "min": [
        0.0005000000237487257,
        0.0005000000237487257
      ],
      "type": "VEC2"
    },
    {
      "bufferView": 1,
      "byteOffset": 11424,
      "componentType": 5126,
      "count": 1428,
      "max": [
        1.020851969718933,
        1.7170779705047607
      ],
      "min": [
        -2.9172840118408203,
        -0.9023867845535278
      ],
      "type": "VEC2"
    },
    {
      "bufferView": 0,
      "componentType": 5125,
      "count": 2166,
      "type": "SCALAR"
    },
    {
      "bufferView": 2,
      "byteOffset": 34272,
      "componentType": 5126,
      "count": 584,
      "max": [
        11.761560440063477,
        108.5990982055664,
        43.21630859375
      ],
      "min": [
        -11.75,
        58.05434036254883,
        38.55738830566406
      ],
      "type": "VEC3"
    },
    {
      "bufferView": 2,
      "byteOffset": 41280,
      "componentType": 5126,
      "count": 584,
      "max": [
        1.0,
        1.0,
        1.0
      ],
      "min": [
        -1.0,
        -1.0,
        -1.0
      ],
      "type": "VEC3"
    },
    {
      "bufferView": 1,
      "byteOffset": 22848,
      "componentType": 5126,
      "count": 584,
      "max": [
        0.8167092800140381,
        0.9452695250511169
      ],
      "min": [
        0.7969205975532532,
        0.8350725173950195
      ],
      "type": "VEC2"
    },
    {
      "bufferView": 1,
      "byteOffset": 27520,
      "componentType": 5126,
      "count": 584,
      "max": [
        0.9767169952392578,
        0.6809275150299072
      ],
      "min": [
        0.6034504771232605,
        0.6060428023338318
      ],
      "type": "VEC2"
    },
    {
      "bufferView": 0,
      "byteOffset": 8664,
      "componentType": 5125,
      "count": 1776,
      "type": "SCALAR"
    },
    {
      "bufferView": 2,
      "byteOffset": 48288,
      "componentType": 5126,
      "count": 2004,
      "max": [
        47.404319763183594,
        8.404775619506836,
        39.72494888305664
      ],
      "min": [
        -47.404319763183594,
        -10.750860214233398,
        -0.9143105149269104
      ],
      "type": "VEC3"
    },
    {
      "bufferView": 2,
      "byteOffset": 72336,
      "componentType": 5126,
      "count": 2004,
      "max": [
        1.0,
        0.9851748943328857,
        1.0
      ],
      "min": [
        -1.0,
        -1.0,
        -1.0
      ],
      "type": "VEC3"
    },
    {
      "bufferView": 1,
      "byteOffset": 32192,
      "componentType": 5126,
      "count": 2004,
      "max": [
        0.9994999766349792,
        0.7516558170318604
      ],
      "min": [
        0.0005000000237487257,
        0.0005000000237487257
      ],
      "type": "VEC2"
    },
    {
      "bufferView": 1,
      "byteOffset": 48224,
      "componentType": 5126,
      "count": 2004,
      "max": [
        0.9994999766349792,
        0.9958261251449585
      ],
      "min": [
        0.0005000000237487257,
        0.0005000000237487257
      ],
      "type": "VEC2"
    },
    {
      "bufferView": 0,
      "byteOffset": 15768,
      "componentType": 5125,
      "count": 3036,
      "type": "SCALAR"
    },
    {
      "bufferView": 2,
      "byteOffset": 96384,
      "componentType": 5126,
      "count": 25,
      "max": [
        250.0,
        250.0,
        0.0
      ],
      "min": [
        -250.0,
        -250.0,
        0.0
      ],
      "type": "VEC3"
    },
    {
      "bufferView": 2,
      "byteOffset": 96684,
      "componentType": 5126,
      "count": 25,
      "max": [
        0.0,
        0.0,
        1.0
      ],
      "min": [
        0.0,
        0.0,
        1.0
      ],
      "type": "VEC3"
    },
    {
      "bufferView": 1,
      "byteOffset": 64256,
      "componentType": 5126,
      "count": 25,
      "max": [
        1.0,
        1.0
      ],
      "min": [
        0.0,
        0.0
      ],
      "type": "VEC2"
    },
    {
      "bufferView": 0,
      "byteOffset": 27912,
      "componentType": 5125,
      "count": 96,
      "type": "SCALAR"
    }
  ],
  "asset": {
    "extras": {
      "author": "MADE.COM (https://sketchfab.com/made-it)",
      "license": "CC-BY-NC-4.0 (http://creativecommons.org/licenses/by-nc/4.0/)",
      "source": "https://sketchfab.com/3d-models/aveiro-cabinet-natural-oak-and-white-ffe67d3da21e473daacd2af1a390e8b2",
      "title": "Aveiro Cabinet, Natural Oak and White"
    },
    "generator": "Sketchfab-12.68.0",
    "version": "2.0"
  },
  "bufferViews": [
    {
      "buffer": 0,
      "byteLength": 28296,
      "name": "floatBufferViews",
      "target": 34963
    },
    {
      "buffer": 0,
      "byteLength": 64456,
      "byteOffset": 28296,
      "byteStride": 8,
      "name": "floatBufferViews",
      "target": 34962
    },
    {
      "buffer": 0,
      "byteLength": 96984,
      "byteOffset": 92752,
      "byteStride": 12,
      "name": "floatBufferViews",
      "target": 34962
    }
  ],
  "buffers": [
    {
      "byteLength": 189736,
      "uri": "scene.bin"
    }
  ],
  "images": [
    {
      "uri": "textures/FLOOR_baseColor.png"
    },
    {
      "uri": "textures/WOOD_baseColor.jpeg"
    }
  ],
  "materials": [
    {
      "alphaMode": "BLEND",
      "doubleSided": true,
      "name": "FLOOR",
      "pbrMetallicRoughness": {
        "baseColorFactor": [
          0.3595449695121951,
          0.3595449695121951,
          0.3595449695121951,
          1.0
        ],
        "baseColorTexture": {
          "index": 0
        },
        "metallicFactor": 0.0
      }
    },
    {
      "doubleSided": true,
      "name": "GREY",
      "pbrMetallicRoughness": {
        "baseColorFactor": [
          0.7926760665,
          0.7926760665,
          0.7926760665,
          1.0
        ],
        "metallicFactor": 0.0,
        "roughnessFactor": 0.40415396341463417
      }
    },
    {
      "doubleSided": true,
      "name": "EnvironmentAmbientLight",
      "pbrMetallicRoughness": {
        "baseColorFactor": [
          0.014139134381343963,
          0.014139134381343963,
          0.014139134381343963,
          1.0
        ],
        "metallicFactor": 0.5139100609756098,
        "roughnessFactor": 0.3858612804878049
      }
    },
    {
      "doubleSided": true,
      "name": "WOOD",
      "pbrMetallicRoughness": {
        "baseColorTexture": {
          "index": 1
        },
        "metallicFactor": 0.0
      }
    }
  ],
  "meshes": [
    {
      "name": "GREY",
      "primitives": [
        {
          "attributes": {
            "NORMAL": 1,
            "POSITION": 0,
            "TEXCOORD_0": 2,
            "TEXCOORD_1": 3
          },
          "indices": 4,
          "material": 1,
          "mode": 4
        }
      ]
    },
    {
      "name": "Material__27_1",
      "primitives": [
        {
          "attributes": {
            "NORMAL": 6,
            "POSITION": 5,
            "TEXCOORD_0": 7,
            "TEXCOORD_1": 8
          },
          "indices": 9,
          "material": 2,
          "mode": 4
        }
      ]
    },
    {
      "name": "WOOD",
      "primitives": [
        {
          "attributes": {
            "NORMAL": 11,
            "POSITION": 10,
            "TEXCOORD_0": 12,
            "TEXCOORD_1": 13
          },
          "indices": 14,
          "material": 3,
          "mode": 4
        }
      ]
    },
    {
      "name": "FLOOR",
      "primitives": [
        {
          "attributes": {
            "NORMAL": 16,
            "POSITION": 15,
            "TEXCOORD_0": 17
          },
          "indices": 18,
          "material": 0,
          "mode": 4
        }
      ]
    }
  ],
  "nodes": [
    {
      "children": [
        1
      ],
      "matrix": [
        1.0,
        0.0,
        0.0,
        0.0,
        0.0,
        2.220446049250313e-16,
        -1.0,
        0.0,
        0.0,
        1.0,
        2.220446049250313e-16,
        0.0,
        0.0,
        0.0,
        0.0,
        1.0
      ],
      "name": "Sketchfab_model"
    },
    {
      "children": [
        2,
        7,
        9
      ],
      "name": "Collada visual scene group"
    },
    {
      "children": [
        3
      ],
      "matrix": [
        1.0,
        0.0,
        0.0,
        0.0,
        0.0,
        -1.62921e-07,
        1.0,
        0.0,
        0.0,
        -1.0,
        -1.62921e-07,
        0.0,
        0.0,
        0.0,
        0.0,
        1.0
      ],
      "name": "Averio_Cabinet_Old_Stain_Oak_and_Grey"
    },
    {
      "children": [
        4,
        5,
        6
      ],
      "matrix": [
        1.0,
        0.0,
        0.0,
        0.0,
        0.0,
        1.0,
        0.0,
        0.0,
        0.0,
        0.0,
        1.0,
        0.0,
        1.90735e-06,
        10.68084,
        -20.81083,
        1.0
      ],
      "name": "Object_3"
    },
    {
      "mesh": 0,
      "name": "GREY"
    },
    {
      "mesh": 1,
      "name": "Material__27_1"
    },
    {
      "mesh": 2,
      "name": "WOOD"
    },
    {
      "children": [
        8
      ],
      "matrix": [
        0.6681156,
        0.0,
        0.0,
        0.0,
        0.0,
        0.6681156,
        0.0,
        0.0,
        0.0,
        0.0,
        1.0,
        0.0,
        0.0,
        0.0,
        0.0,
        1.0
      ],
      "name": "Plane001"
    },
    {
      "mesh": 3,
      "name": "FLOOR"
    },
    {
      "children": [
        10
      ],
      "name": "EnvironmentAmbientLight"
    },
    {
      "name": "EnvironmentAmbientLight"
    }
  ],
  "samplers": [
    {
      "magFilter": 9729,
      "minFilter": 9987,
      "wrapS": 10497,
      "wrapT": 10497
    }
  ],
  "scene": 0,
  "scenes": [
    {
      "name": "Sketchfab_Scene",
      "nodes": [
        0
      ]
    }
  ],
  "textures": [
    {
      "sampler": 0,
      "source": 0
    },
    {
      "sampler": 0,
      "source": 1
    }
  ]
}
