{
  "accessors": [
    {
      "bufferView": 2,
      "componentType": 5126,
      "count": 224,
      "max": [
        12.841972351074219,
        39.71201705932617,
        -0.1048789992928505
      ],
      "min": [
        -12.740484237670898,
        1.1756609678268433,
        -3.3176870346069336
      ],
      "type": "VEC3"
    },
    {
      "bufferView": 2,
      "byteOffset": 2688,
      "componentType": 5126,
      "count": 224,
      "max": [
        0.9499753713607788,
        0.9928431510925293,
        1.0
      ],
      "min": [
        -0.9952539801597595,
        -0.997241199016571,
        -1.0
      ],
      "type": "VEC3"
    },
    {
      "bufferView": 1,
      "componentType": 5126,
      "count": 224,
      "max": [
        0.8751479983329773,
        0.9913809895515442
      ],
      "min": [
        0.15763700008392334,
        0.00880999956279993
      ],
      "type": "VEC2"
    },
    {
      "bufferView": 0,
      "componentType": 5125,
      "count": 924,
      "type": "SCALAR"
    },
    {
      "bufferView": 2,
      "byteOffset": 5376,
      "componentType": 5126,
      "count": 224,
      "max": [
        12.268533706665039,
        39.301856994628906,
        -6.413348197937012
      ],
      "min": [
        -12.268535614013672,
        1.2835359573364258,
        -9.208942413330078
      ],
      "type": "VEC3"
    },
    {
      "bufferView": 2,
      "byteOffset": 8064,
      "componentType": 5126,
      "count": 224,
      "max": [
        0.9701899290084839,
        0.9986085295677185,
        0.9999998807907104
      ],
      "min": [
        -0.9902026057243347,
        -0.9999446272850037,
        -1.0
      ],
      "type": "VEC3"
    },
    {
      "bufferView": 1,
      "byteOffset": 1792,
      "componentType": 5126,
      "count": 224,
      "max": [
        1.1958019733428955,
        1.43048894405365
      ],
      "min": [
        -0.16301700472831726,
        -0.4302990138530731
      ],
      "type": "VEC2"
    },
    {
      "bufferView": 0,
      "byteOffset": 3696,
      "componentType": 5125,
      "count": 924,
      "type": "SCALAR"
    },
    {
      "bufferView": 2,
      "byteOffset": 10752,
      "componentType": 5126,
      "count": 224,
      "max": [
        13.585000991821289,
        39.82676696777344,
        -2.2563750743865967
      ],
      "min": [
        -12.740484237670898,
        1.1756620407104492,
        -6.633382797241211
      ],
      "type": "VEC3"
    },
    {
      "bufferView": 2,
      "byteOffset": 13440,
      "componentType": 5126,
      "count": 224,
      "max": [
        0.9287592768669128,
        0.9909535646438599,
        0.9999940395355225
      ],
      "min": [
        -0.9645034670829773,
        -0.9998021125793457,
        -0.9999969005584717
      ],
      "type": "VEC3"
    },
    {
      "bufferView": 1,
      "byteOffset": 3584,
      "componentType": 5126,
      "count": 224,
      "max": [
        0.8751479983329773,
        0.9913809895515442
      ],
      "min": [
        0.15763700008392334,
        0.00880999956279993
      ],
      "type": "VEC2"
    },
    {
      "bufferView": 0,
      "byteOffset": 7392,
      "componentType": 5125,
      "count": 924,
      "type": "SCALAR"
    },
    {
      "bufferView": 2,
      "byteOffset": 16128,
      "componentType": 5126,
      "count": 235,
      "max": [
        12.5,
        40.501251220703125,
        3.0344789028167725
      ],
      "min": [
        -12.499999046325684,
        0.09431599825620651,
        -0.769743025302887
      ],
      "type": "VEC3"
    },
    {
      "bufferView": 2,
      "byteOffset": 18948,
      "componentType": 5126,
      "count": 235,
      "max": [
        0.9774623513221741,
        0.9808506369590759,
        0.9999964237213135
      ],
      "min": [
        -0.8600122928619385,
        -0.9933692216873169,
        -0.9999973773956299
      ],
      "type": "VEC3"
    },
    {
      "bufferView": 0,
      "byteOffset": 11088,
      "componentType": 5125,
      "count": 1239,
      "type": "SCALAR"
    },
    {
      "bufferView": 2,
      "byteOffset": 21768,
      "componentType": 5126,
      "count": 147,
      "max": [
        7.446866989135742,
        40.397830963134766,
        2.9642961025238037
      ],
      "min": [
        -7.18680477142334,
        28.653345108032227,
        1.3887590169906616
      ],
      "type": "VEC3"
    },
    {
      "bufferView": 2,
      "byteOffset": 23532,
      "componentType": 5126,
      "count": 147,
      "max": [
        0.9798398613929749,
        0.9978645443916321,
        0.9558292627334595
      ],
      "min": [
        -0.9395427703857422,
        -0.9903687834739685,
        -0.9558292627334595
      ],
      "type": "VEC3"
    },
    {
      "bufferView": 0,
      "byteOffset": 16044,
      "componentType": 5125,
      "count": 480,
      "type": "SCALAR"
    },
    {
      "bufferView": 2,
      "byteOffset": 25296,
      "componentType": 5126,
      "count": 480,
      "max": [
        0.4343380033969879,
        31.16802978515625,
        2.9432029724121094
      ],
      "min": [
        -0.8065450191497803,
        3.6429059505462646,
        2.1214940547943115
      ],
      "type": "VEC3"
    },
    {
      "bufferView": 2,
      "byteOffset": 31056,
      "componentType": 5126,
      "count": 480,
      "max": [
        0.9897796511650085,
        0.9807847738265991,
        1.0
      ],
      "min": [
        -0.9897798895835876,
        -0.9807846546173096,
        -1.0
      ],
      "type": "VEC3"
    },
    {
      "bufferView": 0,
      "byteOffset": 17964,
      "componentType": 5125,
      "count": 900,
      "type": "SCALAR"
    }
  ],
  "asset": {
    "extras": {
      "author": "1-3D.com (https://sketchfab.com/1-3D.com)",
      "license": "CC-BY-SA-4.0 (http://creativecommons.org/licenses/by-sa/4.0/)",
      "source": "https://sketchfab.com/3d-models/folded-clothes-ca4932da28ea495db1f9969807d9c107",
      "title": "Folded clothes"
    },
    "generator": "Sketchfab-12.78.0",
    "version": "2.0"
  },
  "bufferViews": [
    {
      "buffer": 0,
      "byteLength": 21564,
      "name": "floatBufferViews",
      "target": 34963
    },
    {
      "buffer": 0,
      "byteLength": 5376,
      "byteOffset": 21564,
      "byteStride": 8,
      "name": "floatBufferViews",
      "target": 34962
    },
    {
      "buffer": 0,
      "byteLength": 36816,
      "byteOffset": 26940,
      "byteStride": 12,
      "name": "floatBufferViews",
      "target": 34962
    }
  ],
  "buffers": [
    {
      "byteLength": 63756,
      "uri": "scene.bin"
    }
  ],
  "images": [
    {
      "uri": "textures/blue-trousers_baseColor.jpeg"
    }
  ],
  "materials": [
    {
      "doubleSided": true,
      "name": "blue",
      "pbrMetallicRoughness": {
        "baseColorFactor": [
          0.568746,
          0.704889,
          0.8,
          1.0
        ],
        "metallicFactor": 0.0
      }
    },
    {
      "doubleSided": true,
      "name": "blue-trousers",
      "pbrMetallicRoughness": {
        "baseColorTexture": {
          "index": 0
        },
        "metallicFactor": 0.0
      }
    },
    {
      "doubleSided": true,
      "name": "dark-red-button",
      "pbrMetallicRoughness": {
        "baseColorFactor": [
          0.078803,
          0.00386,
          0.002454,
          1.0
        ],
        "metallicFactor": 0.0,
        "roughnessFactor": 0.8434915419926713
      }
    },
    {
      "doubleSided": true,
      "name": "green",
      "pbrMetallicRoughness": {
        "baseColorFactor": [
          0.175732,
          0.24,
          0.172435,
          1.0
        ],
        "metallicFactor": 0.0,
        "roughnessFactor": 0.8434915419926713
      }
    },
    {
      "doubleSided": true,
      "name": "red_chamise",
      "pbrMetallicRoughness": {
        "baseColorFactor": [
          0.469231,
          0.049631,
          0.067561,
          1.0
        ],
        "metallicFactor": 0.0
      }
    },
    {
      "doubleSided": true,
      "name": "red_chamise-dark",
      "pbrMetallicRoughness": {
        "baseColorFactor": [
          0.178862,
          0.021708,
          0.028773,
          1.0
        ],
        "metallicFactor": 0.0
      }
    }
  ],
  "meshes": [
    {
      "name": "Object_0",
      "primitives": [
        {
          "attributes": {
            "NORMAL": 1,
            "POSITION": 0,
            "TEXCOORD_0": 2
          },
          "indices": 3,
          "material": 0,
          "mode": 4
        }
      ]
    },
    {
      "name": "Object_1",
      "primitives": [
        {
          "attributes": {
            "NORMAL": 5,
            "POSITION": 4,
            "TEXCOORD_0": 6
          },
          "indices": 7,
          "material": 1,
          "mode": 4
        }
      ]
    },
    {
      "name": "Object_2",
      "primitives": [
        {
          "attributes": {
            "NORMAL": 9,
            "POSITION": 8,
            "TEXCOORD_0": 10
          },
          "indices": 11,
          "material": 3,
          "mode": 4
        }
      ]
    },
    {
      "name": "Object_3",
      "primitives": [
        {
          "attributes": {
            "NORMAL": 13,
            "POSITION": 12
          },
          "indices": 14,
          "material": 4,
          "mode": 4
        }
      ]
    },
    {
      "name": "Object_4",
      "primitives": [
        {
          "attributes": {
            "NORMAL": 16,
            "POSITION": 15
          },
          "indices": 17,
          "material": 5,
          "mode": 4
        }
      ]
    },
    {
      "name": "Object_5",
      "primitives": [
        {
          "attributes": {
            "NORMAL": 19,
            "POSITION": 18
          },
          "indices": 20,
          "material": 2,
          "mode": 4
        }
      ]
    }
  ],
  "nodes": [
    {
      "children": [
        1
      ],
      "matrix": [
        1.0,
        0.0,
        0.0,
        0.0,
        0.0,
        2.220446049250313e-16,
        -1.0,
        0.0,
        0.0,
        1.0,
        2.220446049250313e-16,
        0.0,
        0.0,
        0.0,
        0.0,
        1.0
      ],
      "name": "Sketchfab_model"
    },
    {
      "children": [
        2,
        3,
        4,
        5,
        6,
        7
      ],
      "name": "folded_clothes.obj.cleaner.materialmerger.gles"
    },
    {
      "mesh": 0,
      "name": "Object_2"
    },
    {
      "mesh": 1,
      "name": "Object_3"
    },
    {
      "mesh": 2,
      "name": "Object_4"
    },
    {
      "mesh": 3,
      "name": "Object_5"
    },
    {
      "mesh": 4,
      "name": "Object_6"
    },
    {
      "mesh": 5,
      "name": "Object_7"
    }
  ],
  "samplers": [
    {
      "magFilter": 9729,
      "minFilter": 9987,
      "wrapS": 10497,
      "wrapT": 10497
    }
  ],
  "scene": 0,
  "scenes": [
    {
      "name": "Sketchfab_Scene",
      "nodes": [
        0
      ]
    }
  ],
  "textures": [
    {
      "sampler": 0,
      "source": 0
    }
  ]
}
