{
  "accessors": [
    {
      "bufferView": 2,
      "componentType": 5126,
      "count": 226,
      "max": [
        97.10658264160156,
        6.058374881744385,
        15.693794250488281
      ],
      "min": [
        -97.10658264160156,
        -148.49920654296875,
        -1.939306616783142
      ],
      "type": "VEC3"
    },
    {
      "bufferView": 2,
      "byteOffset": 2712,
      "componentType": 5126,
      "count": 226,
      "max": [
        1.0,
        1.0,
        1.0
      ],
      "min": [
        -1.0,
        -1.0,
        -1.0
      ],
      "type": "VEC3"
    },
    {
      "bufferView": 1,
      "componentType": 5126,
      "count": 226,
      "max": [
        0.7089470028877258,
        0.34285643696784973
      ],
      "min": [
        0.08217129856348038,
        0.0687711089849472
      ],
      "type": "VEC2"
    },
    {
      "bufferView": 0,
      "componentType": 5125,
      "count": 684,
      "type": "SCALAR"
    },
    {
      "bufferView": 2,
      "byteOffset": 5424,
      "componentType": 5126,
      "count": 360,
      "max": [
        18.201248168945313,
        13.376931190490723,
        12.171439170837402
      ],
      "min": [
        -18.201248168945313,
        -13.783364295959473,
        0.0
      ],
      "type": "VEC3"
    },
    {
      "bufferView": 2,
      "byteOffset": 9744,
      "componentType": 5126,
      "count": 360,
      "max": [
        0.9944350719451904,
        0.9944104552268982,
        1.0
      ],
      "min": [
        -0.9944351315498352,
        -0.9944104552268982,
        -1.0
      ],
      "type": "VEC3"
    },
    {
      "bufferView": 1,
      "byteOffset": 1808,
      "componentType": 5126,
      "count": 360,
      "max": [
        0.9577924609184265,
        0.9817489385604858
      ],
      "min": [
        0.030600380152463913,
        0.08862882852554321
      ],
      "type": "VEC2"
    },
    {
      "bufferView": 0,
      "byteOffset": 2736,
      "componentType": 5125,
      "count": 1020,
      "type": "SCALAR"
    },
    {
      "bufferView": 2,
      "byteOffset": 14064,
      "componentType": 5126,
      "count": 68,
      "max": [
        3.6691384315490723,
        11.336610794067383,
        14.999998092651367
      ],
      "min": [
        -3.6691384315490723,
        -11.336610794067383,
        0.0
      ],
      "type": "VEC3"
    },
    {
      "bufferView": 2,
      "byteOffset": 14880,
      "componentType": 5126,
      "count": 68,
      "max": [
        1.0,
        0.9904987812042236,
        0.9302694797515869
      ],
      "min": [
        -1.0,
        -0.9895749092102051,
        -0.9302690029144287
      ],
      "type": "VEC3"
    },
    {
      "bufferView": 1,
      "byteOffset": 4688,
      "componentType": 5126,
      "count": 68,
      "max": [
        0.9911835193634033,
        0.3577372133731842
      ],
      "min": [
        0.9045453667640686,
        0.07329007238149643
      ],
      "type": "VEC2"
    },
    {
      "bufferView": 0,
      "byteOffset": 6816,
      "componentType": 5125,
      "count": 156,
      "type": "SCALAR"
    }
  ],
  "asset": {
    "extras": {
      "author": "comphonia (https://sketchfab.com/comphonia)",
      "license": "CC-BY-4.0 (http://creativecommons.org/licenses/by/4.0/)",
      "source": "https://sketchfab.com/3d-models/projector-set-18428ceaffee47f5b9e90219adbfbefd",
      "title": "Projector Set"
    },
    "generator": "Sketchfab-12.68.0",
    "version": "2.0"
  },
  "bufferViews": [
    {
      "buffer": 0,
      "byteLength": 7440,
      "name": "floatBufferViews",
      "target": 34963
    },
    {
      "buffer": 0,
      "byteLength": 5232,
      "byteOffset": 7440,
      "byteStride": 8,
      "name": "floatBufferViews",
      "target": 34962
    },
    {
      "buffer": 0,
      "byteLength": 15696,
      "byteOffset": 12672,
      "byteStride": 12,
      "name": "floatBufferViews",
      "target": 34962
    }
  ],
  "buffers": [
    {
      "byteLength": 28368,
      "uri": "scene.bin"
    }
  ],
  "images": [
    {
      "uri": "textures/Material_27_baseColor.png"
    }
  ],
  "materials": [
    {
      "doubleSided": true,
      "name": "Material_27",
      "pbrMetallicRoughness": {
        "baseColorTexture": {
          "index": 0
        },
        "metallicFactor": 0.0,
        "roughnessFactor": 0.8929713596497552
      }
    },
    {
      "doubleSided": true,
      "name": "Projector",
      "pbrMetallicRoughness": {
        "baseColorTexture": {
          "index": 0
        },
        "metallicFactor": 0.0,
        "roughnessFactor": 0.8929713596497552
      }
    },
    {
      "doubleSided": true,
      "name": "Projector_0",
      "pbrMetallicRoughness": {
        "baseColorTexture": {
          "index": 0
        },
        "metallicFactor": 0.0,
        "roughnessFactor": 0.8929713596497552
      }
    }
  ],
  "meshes": [
    {
      "name": "Projector Screen_Material #27_0",
      "primitives": [
        {
          "attributes": {
            "NORMAL": 1,
            "POSITION": 0,
            "TEXCOORD_0": 2
          },
          "indices": 3,
          "material": 0,
          "mode": 4
        }
      ]
    },
    {
      "name": "Projector_Projector_0",
      "primitives": [
        {
          "attributes": {
            "NORMAL": 5,
            "POSITION": 4,
            "TEXCOORD_0": 6
          },
          "indices": 7,
          "material": 1,
          "mode": 4
        }
      ]
    },
    {
      "name": "Remote_Projector_0",
      "primitives": [
        {
          "attributes": {
            "NORMAL": 9,
            "POSITION": 8,
            "TEXCOORD_0": 10
          },
          "indices": 11,
          "material": 2,
          "mode": 4
        }
      ]
    }
  ],
  "nodes": [
    {
      "children": [
        1
      ],
      "matrix": [
        1.0,
        0.0,
        0.0,
        0.0,
        0.0,
        2.220446049250313e-16,
        -1.0,
        0.0,
        0.0,
        1.0,
        2.220446049250313e-16,
        0.0,
        0.0,
        0.0,
        0.0,
        1.0
      ],
      "name": "Sketchfab_model"
    },
    {
      "children": [
        2
      ],
      "matrix": [
        1.0,
        0.0,
        0.0,
        0.0,
        0.0,
        0.0,
        1.0,
        0.0,
        0.0,
        -1.0,
        0.0,
        0.0,
        0.0,
        0.0,
        0.0,
        1.0
      ],
      "name": "307e7056c5c24937ab19f2ea100bdc1d.fbx"
    },
    {
      "children": [
        3,
        6,
        8
      ],
      "name": "RootNode"
    },
    {
      "children": [
        4
      ],
      "matrix": [
        1.0,
        0.0,
        0.0,
        0.0,
        0.0,
        0.6903756260871795,
        1.1247647201615841e-07,
        0.0,
        0.0,
        -7.41290123081444e-08,
        0.45500060915946355,
        0.0,
        0.0,
        0.0,
        0.0,
        1.0
      ],
      "name": "Projector Screen"
    },
    {
      "children": [
        5
      ],
      "matrix": [
        1.0,
        0.0,
        -0.0,
        0.0,
        0.0,
        1.0,
        0.0,
        0.0,
        0.0,
        0.0,
        1.0,
        0.0,
        4.865207672119141,
        137.27305603027344,
        -2.288818359375e-05,
        1.0
      ],
      "name": "Object_4"
    },
    {
      "mesh": 0,
      "name": "Projector Screen_Material #27_0"
    },
    {
      "children": [
        7
      ],
      "matrix": [
        0.890056848526001,
        0.0,
        0.0,
        0.0,
        0.0,
        2.0617835433397818e-16,
        -0.9285447597503662,
        0.0,
        0.0,
        0.8689630031585693,
        1.9294854673081326e-16,
        0.0,
        -22.886444091796875,
        0.0,
        40.295265197753906,
        1.0
      ],
      "name": "Projector"
    },
    {
      "mesh": 1,
      "name": "Projector_Projector_0"
    },
    {
      "children": [
        9
      ],
      "matrix": [
        1.0,
        0.0,
        0.0,
        0.0,
        0.0,
        2.220446049250313e-16,
        -1.0,
        0.0,
        0.0,
        0.18558813631534576,
        4.1208844406913806e-17,
        0.0,
        17.601200103759766,
        0.0,
        35.12344741821289,
        1.0
      ],
      "name": "Remote"
    },
    {
      "mesh": 2,
      "name": "Remote_Projector_0"
    }
  ],
  "samplers": [
    {
      "magFilter": 9729,
      "minFilter": 9987,
      "wrapS": 10497,
      "wrapT": 10497
    }
  ],
  "scene": 0,
  "scenes": [
    {
      "name": "Sketchfab_Scene",
      "nodes": [
        0
      ]
    }
  ],
  "textures": [
    {
      "sampler": 0,
      "source": 0
    }
  ]
}
