{
  "accessors": [
    {
      "bufferView": 2,
      "componentType": 5126,
      "count": 636,
      "max": [
        0.4099999964237213,
        0.23499999940395355,
        0.7799999713897705
      ],
      "min": [
        -0.4099999964237213,
        -0.3962399959564209,
        0.0
      ],
      "type": "VEC3"
    },
    {
      "bufferView": 2,
      "byteOffset": 7632,
      "componentType": 5126,
      "count": 636,
      "max": [
        1.0,
        1.0,
        1.0
      ],
      "min": [
        -1.0,
        -1.0,
        -1.0
      ],
      "type": "VEC3"
    },
    {
      "bufferView": 3,
      "componentType": 5126,
      "count": 636,
      "max": [
        1.0,
        1.0,
        1.0,
        1.0
      ],
      "min": [
        -1.0,
        -1.0,
        -1.0,
        -1.0
      ],
      "type": "VEC4"
    },
    {
      "bufferView": 1,
      "componentType": 5126,
      "count": 636,
      "max": [
        0.9985349774360657,
        0.9506840109825134
      ],
      "min": [
        0.0014649999793618917,
        0.0014649999793618917
      ],
      "type": "VEC2"
    },
    {
      "bufferView": 0,
      "componentType": 5125,
      "count": 1356,
      "type": "SCALAR"
    },
    {
      "bufferView": 2,
      "byteOffset": 15264,
      "componentType": 5126,
      "count": 361,
      "max": [
        0.34298399090766907,
        0.20155499875545502,
        0.9259740114212036
      ],
      "min": [
        -0.33921200037002563,
        -0.3410390019416809,
        0.5350000262260437
      ],
      "type": "VEC3"
    },
    {
      "bufferView": 2,
      "byteOffset": 19596,
      "componentType": 5126,
      "count": 361,
      "max": [
        0.9995562434196472,
        0.9967869520187378,
        1.0
      ],
      "min": [
        -0.9646266102790833,
        -0.9989120364189148,
        -1.0
      ],
      "type": "VEC3"
    },
    {
      "bufferView": 3,
      "byteOffset": 10176,
      "componentType": 5126,
      "count": 361,
      "max": [
        0.9524780511856079,
        0.9936839938163757,
        1.0,
        1.0
      ],
      "min": [
        -0.9941489696502686,
        -0.9868712425231934,
        -0.9402548670768738,
        1.0
      ],
      "type": "VEC4"
    },
    {
      "bufferView": 1,
      "byteOffset": 5088,
      "componentType": 5126,
      "count": 361,
      "max": [
        0.9505239725112915,
        0.9916639924049377
      ],
      "min": [
        0.008336000144481659,
        0.008336000144481659
      ],
      "type": "VEC2"
    },
    {
      "bufferView": 0,
      "byteOffset": 5424,
      "componentType": 5125,
      "count": 864,
      "type": "SCALAR"
    },
    {
      "bufferView": 2,
      "byteOffset": 23928,
      "componentType": 5126,
      "count": 331,
      "max": [
        0.44997599720954895,
        0.2699970006942749,
        1.0139729976654053
      ],
      "min": [
        -0.4500240087509155,
        -0.27000299096107483,
        0.7641140222549438
      ],
      "type": "VEC3"
    },
    {
      "bufferView": 2,
      "byteOffset": 27900,
      "componentType": 5126,
      "count": 331,
      "max": [
        1.0,
        1.0,
        1.0
      ],
      "min": [
        -1.0,
        -1.0,
        -1.0
      ],
      "type": "VEC3"
    },
    {
      "bufferView": 3,
      "byteOffset": 15952,
      "componentType": 5126,
      "count": 331,
      "max": [
        1.0,
        1.0,
        1.0,
        1.0
      ],
      "min": [
        -0.9955139756202698,
        -0.9999948740005493,
        -1.0,
        -1.0
      ],
      "type": "VEC4"
    },
    {
      "bufferView": 1,
      "byteOffset": 7976,
      "componentType": 5126,
      "count": 331,
      "max": [
        0.9887700080871582,
        0.9921879768371582
      ],
      "min": [
        0.0078119998797774315,
        0.0078119998797774315
      ],
      "type": "VEC2"
    },
    {
      "bufferView": 0,
      "byteOffset": 8880,
      "componentType": 5125,
      "count": 822,
      "type": "SCALAR"
    },
    {
      "bufferView": 2,
      "byteOffset": 31872,
      "componentType": 5126,
      "count": 315,
      "max": [
        0.41499999165534973,
        0.23600000143051147,
        0.9515900015830994
      ],
      "min": [
        -0.41499999165534973,
        -0.25,
        0.7351229786872864
      ],
      "type": "VEC3"
    },
    {
      "bufferView": 2,
      "byteOffset": 35652,
      "componentType": 5126,
      "count": 315,
      "max": [
        0.9478799104690552,
        0.9241950511932373,
        1.0
      ],
      "min": [
        -0.9478799104690552,
        -0.9234912991523743,
        -1.0
      ],
      "type": "VEC3"
    },
    {
      "bufferView": 3,
      "byteOffset": 21248,
      "componentType": 5126,
      "count": 315,
      "max": [
        0.9483360052108765,
        1.0,
        0.9999898076057434,
        1.0
      ],
      "min": [
        -0.9581236839294434,
        -1.0,
        -0.970450222492218,
        1.0
      ],
      "type": "VEC4"
    },
    {
      "bufferView": 1,
      "byteOffset": 10624,
      "componentType": 5126,
      "count": 315,
      "max": [
        0.8874980211257935,
        0.9909170269966125
      ],
      "min": [
        0.009083000011742115,
        0.009083000011742115
      ],
      "type": "VEC2"
    },
    {
      "bufferView": 0,
      "byteOffset": 12168,
      "componentType": 5125,
      "count": 957,
      "type": "SCALAR"
    },
    {
      "bufferView": 2,
      "byteOffset": 39432,
      "componentType": 5126,
      "count": 636,
      "max": [
        0.4099999964237213,
        0.23499999940395355,
        0.7799999713897705
      ],
      "min": [
        -0.4099999964237213,
        -0.45690301060676575,
        0.0
      ],
      "type": "VEC3"
    },
    {
      "bufferView": 2,
      "byteOffset": 47064,
      "componentType": 5126,
      "count": 636,
      "max": [
        1.0,
        1.0,
        1.0
      ],
      "min": [
        -1.0,
        -1.0,
        -1.0
      ],
      "type": "VEC3"
    },
    {
      "bufferView": 3,
      "byteOffset": 26288,
      "componentType": 5126,
      "count": 636,
      "max": [
        1.0,
        1.0,
        1.0,
        1.0
      ],
      "min": [
        -1.0,
        -1.0,
        -1.0,
        -1.0
      ],
      "type": "VEC4"
    },
    {
      "bufferView": 1,
      "byteOffset": 13144,
      "componentType": 5126,
      "count": 636,
      "max": [
        0.9985349774360657,
        0.9506840109825134
      ],
      "min": [
        0.0014649999793618917,
        0.0014649999793618917
      ],
      "type": "VEC2"
    },
    {
      "bufferView": 0,
      "byteOffset": 15996,
      "componentType": 5125,
      "count": 1356,
      "type": "SCALAR"
    },
    {
      "bufferView": 2,
      "byteOffset": 54696,
      "componentType": 5126,
      "count": 344,
      "max": [
        0.3655799925327301,
        0.2093620002269745,
        0.9486960172653198
      ],
      "min": [
        -0.34070301055908203,
        -0.4227280020713806,
        0.2215380072593689
      ],
      "type": "VEC3"
    },
    {
      "bufferView": 2,
      "byteOffset": 58824,
      "componentType": 5126,
      "count": 344,
      "max": [
        0.9995562434196472,
        1.0,
        1.0
      ],
      "min": [
        -0.9763785600662231,
        -1.0,
        -1.0
      ],
      "type": "VEC3"
    },
    {
      "bufferView": 3,
      "byteOffset": 36464,
      "componentType": 5126,
      "count": 344,
      "max": [
        0.9887298941612244,
        0.98300701379776,
        1.0,
        1.0
      ],
      "min": [
        -0.9916641712188721,
        -0.994577169418335,
        -0.9455549120903015,
        1.0
      ],
      "type": "VEC4"
    },
    {
      "bufferView": 1,
      "byteOffset": 18232,
      "componentType": 5126,
      "count": 344,
      "max": [
        0.9505239725112915,
        0.9916639924049377
      ],
      "min": [
        0.008336000144481659,
        0.008336000144481659
      ],
      "type": "VEC2"
    },
    {
      "bufferView": 0,
      "byteOffset": 21420,
      "componentType": 5125,
      "count": 804,
      "type": "SCALAR"
    },
    {
      "bufferView": 4,
      "componentType": 5126,
      "count": 2,
      "max": [
        10.0
      ],
      "min": [
        0.0
      ],
      "type": "SCALAR"
    },
    {
      "bufferView": 5,
      "componentType": 5126,
      "count": 2,
      "max": [
        1.0,
        1.0,
        1.0
      ],
      "min": [
        1.0,
        1.0,
        1.0
      ],
      "type": "VEC3"
    },
    {
      "bufferView": 4,
      "byteOffset": 8,
      "componentType": 5126,
      "count": 3,
      "max": [
        20.0
      ],
      "min": [
        0.0
      ],
      "type": "SCALAR"
    },
    {
      "bufferView": 5,
      "byteOffset": 24,
      "componentType": 5126,
      "count": 3,
      "max": [
        1.0,
        1.0,
        1.0
      ],
      "min": [
        1.000000013351432e-10,
        1.000000013351432e-10,
        1.000000013351432e-10
      ],
      "type": "VEC3"
    }
  ],
  "animations": [
    {
      "channels": [
        {
          "sampler": 0,
          "target": {
            "node": 7,
            "path": "scale"
          }
        },
        {
          "sampler": 1,
          "target": {
            "node": 2,
            "path": "scale"
          }
        }
      ],
      "name": "Object_0",
      "samplers": [
        {
          "input": 30,
          "interpolation": "LINEAR",
          "output": 31
        },
        {
          "input": 32,
          "interpolation": "LINEAR",
          "output": 33
        }
      ]
    }
  ],
  "asset": {
    "extras": {
      "author": "cirno (https://sketchfab.com/cirnoB)",
      "license": "CC-BY-4.0 (http://creativecommons.org/licenses/by/4.0/)",
      "source": "https://sketchfab.com/3d-models/sink-cabinet-a-3d4824436000452f9d31f5a77fa43e0b",
      "title": "Sink cabinet A"
    },
    "generator": "Sketchfab-12.65.0",
    "version": "2.0"
  },
  "bufferViews": [
    {
      "buffer": 0,
      "byteLength": 24636,
      "name": "floatBufferViews",
      "target": 34963
    },
    {
      "buffer": 0,
      "byteLength": 20984,
      "byteOffset": 24636,
      "byteStride": 8,
      "name": "floatBufferViews",
      "target": 34962
    },
    {
      "buffer": 0,
      "byteLength": 62952,
      "byteOffset": 45620,
      "byteStride": 12,
      "name": "floatBufferViews",
      "target": 34962
    },
    {
      "buffer": 0,
      "byteLength": 41968,
      "byteOffset": 108572,
      "byteStride": 16,
      "name": "floatBufferViews",
      "target": 34962
    },
    {
      "buffer": 0,
      "byteLength": 20,
      "byteOffset": 150540,
      "name": "floatBufferViews"
    },
    {
      "buffer": 0,
      "byteLength": 60,
      "byteOffset": 150560,
      "byteStride": 12,
      "name": "floatBufferViews"
    }
  ],
  "buffers": [
    {
      "byteLength": 150620,
      "uri": "scene.bin"
    }
  ],
  "images": [
    {
      "uri": "textures/Plastic_Contertop_baseColor.png"
    },
    {
      "uri": "textures/Plastic_Contertop_metallicRoughness.png"
    },
    {
      "uri": "textures/Plastic_Contertop_normal.png"
    },
    {
      "uri": "textures/SinkCabinet_baseColor.png"
    },
    {
      "uri": "textures/SinkCabinet_metallicRoughness.png"
    },
    {
      "uri": "textures/SinkCabinet_normal.png"
    },
    {
      "uri": "textures/fillers_baseColor.png"
    },
    {
      "uri": "textures/fillers_metallicRoughness.png"
    },
    {
      "uri": "textures/fillers_normal.png"
    },
    {
      "uri": "textures/CountertopMarble_baseColor.png"
    },
    {
      "uri": "textures/CountertopMarble_metallicRoughness.png"
    },
    {
      "uri": "textures/CountertopMarble_normal.png"
    }
  ],
  "materials": [
    {
      "doubleSided": true,
      "name": "Plastic_Contertop",
      "normalTexture": {
        "index": 2
      },
      "pbrMetallicRoughness": {
        "baseColorTexture": {
          "index": 0
        },
        "metallicFactor": 0.8301272064534633,
        "metallicRoughnessTexture": {
          "index": 1
        },
        "roughnessFactor": 0.4680907205391371
      }
    },
    {
      "doubleSided": true,
      "name": "SinkCabinet",
      "normalTexture": {
        "index": 5
      },
      "occlusionTexture": {
        "index": 4
      },
      "pbrMetallicRoughness": {
        "baseColorTexture": {
          "index": 3
        },
        "metallicFactor": 0.0,
        "metallicRoughnessTexture": {
          "index": 4
        },
        "roughnessFactor": 0.6705857041861331
      }
    },
    {
      "alphaMode": "BLEND",
      "doubleSided": true,
      "name": "fillers",
      "normalTexture": {
        "index": 8
      },
      "occlusionTexture": {
        "index": 7
      },
      "pbrMetallicRoughness": {
        "baseColorTexture": {
          "index": 6
        },
        "metallicRoughnessTexture": {
          "index": 7
        },
        "roughnessFactor": 0.6
      }
    },
    {
      "doubleSided": true,
      "name": "CountertopMarble",
      "normalTexture": {
        "index": 11
      },
      "pbrMetallicRoughness": {
        "baseColorTexture": {
          "index": 9
        },
        "metallicFactor": 0.35150269965147274,
        "metallicRoughnessTexture": {
          "index": 10
        },
        "roughnessFactor": 0.6
      }
    }
  ],
  "meshes": [
    {
      "name": "Object_0",
      "primitives": [
        {
          "attributes": {
            "NORMAL": 1,
            "POSITION": 0,
            "TANGENT": 2,
            "TEXCOORD_0": 3
          },
          "indices": 4,
          "material": 1,
          "mode": 4
        }
      ]
    },
    {
      "name": "Object_1",
      "primitives": [
        {
          "attributes": {
            "NORMAL": 6,
            "POSITION": 5,
            "TANGENT": 7,
            "TEXCOORD_0": 8
          },
          "indices": 9,
          "material": 2,
          "mode": 4
        }
      ]
    },
    {
      "name": "Object_2",
      "primitives": [
        {
          "attributes": {
            "NORMAL": 11,
            "POSITION": 10,
            "TANGENT": 12,
            "TEXCOORD_0": 13
          },
          "indices": 14,
          "material": 3,
          "mode": 4
        }
      ]
    },
    {
      "name": "Object_3",
      "primitives": [
        {
          "attributes": {
            "NORMAL": 16,
            "POSITION": 15,
            "TANGENT": 17,
            "TEXCOORD_0": 18
          },
          "indices": 19,
          "material": 0,
          "mode": 4
        }
      ]
    },
    {
      "name": "Object_4",
      "primitives": [
        {
          "attributes": {
            "NORMAL": 21,
            "POSITION": 20,
            "TANGENT": 22,
            "TEXCOORD_0": 23
          },
          "indices": 24,
          "material": 1,
          "mode": 4
        }
      ]
    },
    {
      "name": "Object_5",
      "primitives": [
        {
          "attributes": {
            "NORMAL": 26,
            "POSITION": 25,
            "TANGENT": 27,
            "TEXCOORD_0": 28
          },
          "indices": 29,
          "material": 2,
          "mode": 4
        }
      ]
    }
  ],
  "nodes": [
    {
      "children": [
        1
      ],
      "matrix": [
        1.0526316165924072,
        0.0,
        0.0,
        0.0,
        0.0,
        2.337311714378581e-16,
        -1.0526316165924072,
        0.0,
        0.0,
        1.0526316165924072,
        2.337311714378581e-16,
        0.0,
        0.0,
        0.0,
        0.0,
        1.0
      ],
      "name": "Sketchfab_model"
    },
    {
      "children": [
        2,
        7
      ],
      "name": "sketchfab.timeframe"
    },
    {
      "children": [
        3
      ],
      "name": "Object_2",
      "scale": [
        1.000000013351432e-10,
        1.000000013351432e-10,
        1.000000013351432e-10
      ]
    },
    {
      "children": [
        4,
        5,
        6
      ],
      "name": "frame_1"
    },
    {
      "mesh": 0,
      "name": "Object_4"
    },
    {
      "mesh": 1,
      "name": "Object_5"
    },
    {
      "mesh": 2,
      "name": "Object_6"
    },
    {
      "children": [
        8
      ],
      "name": "Object_7"
    },
    {
      "children": [
        9,
        10,
        11
      ],
      "name": "frame_0"
    },
    {
      "mesh": 3,
      "name": "Object_9"
    },
    {
      "mesh": 4,
      "name": "Object_10"
    },
    {
      "mesh": 5,
      "name": "Object_11"
    }
  ],
  "samplers": [
    {
      "magFilter": 9729,
      "minFilter": 9987,
      "wrapS": 10497,
      "wrapT": 10497
    }
  ],
  "scene": 0,
  "scenes": [
    {
      "name": "Sketchfab_Scene",
      "nodes": [
        0
      ]
    }
  ],
  "textures": [
    {
      "sampler": 0,
      "source": 0
    },
    {
      "sampler": 0,
      "source": 1
    },
    {
      "sampler": 0,
      "source": 2
    },
    {
      "sampler": 0,
      "source": 3
    },
    {
      "sampler": 0,
      "source": 4
    },
    {
      "sampler": 0,
      "source": 5
    },
    {
      "sampler": 0,
      "source": 6
    },
    {
      "sampler": 0,
      "source": 7
    },
    {
      "sampler": 0,
      "source": 8
    },
    {
      "sampler": 0,
      "source": 9
    },
    {
      "sampler": 0,
      "source": 10
    },
    {
      "sampler": 0,
      "source": 11
    }
  ]
}
