{
  "accessors": [
    {
      "bufferView": 2,
      "componentType": 5126,
      "count": 860,
      "max": [
        0.2627054750919342,
        0.053970832377672195,
        0.44149890542030334
      ],
      "min": [
        -0.2623510956764221,
        -0.06558871269226074,
        0.0010448843240737915
      ],
      "type": "VEC3"
    },
    {
      "bufferView": 2,
      "byteOffset": 10320,
      "componentType": 5126,
      "count": 860,
      "max": [
        1.0,
        0.9951846599578857,
        1.0
      ],
      "min": [
        -1.0,
        -1.0,
        -1.0
      ],
      "type": "VEC3"
    },
    {
      "bufferView": 1,
      "componentType": 5126,
      "count": 860,
      "max": [
        0.9765841960906982,
        0.9753910899162292
      ],
      "min": [
        0.027655035257339478,
        0.02458856999874115
      ],
      "type": "VEC2"
    },
    {
      "bufferView": 0,
      "componentType": 5125,
      "count": 2490,
      "type": "SCALAR"
    },
    {
      "bufferView": 2,
      "byteOffset": 20640,
      "componentType": 5126,
      "count": 4,
      "max": [
        0.24827447533607483,
        0.01539338193833828,
        0.4276801645755768
      ],
      "min": [
        -0.24792006611824036,
        -0.03490300476551056,
        0.1534009873867035
      ],
      "type": "VEC3"
    },
    {
      "bufferView": 2,
      "byteOffset": 20688,
      "componentType": 5126,
      "count": 4,
      "max": [
        2.5647851842336422e-08,
        -0.9835991263389587,
        0.18036845326423645
      ],
      "min": [
        2.1865492527695096e-08,
        -0.9835996031761169,
        0.1803661584854126
      ],
      "type": "VEC3"
    },
    {
      "bufferView": 1,
      "byteOffset": 6880,
      "componentType": 5126,
      "count": 4,
      "max": [
        0.9999039769172668,
        0.9216243028640747
      ],
      "min": [
        9.598705219104886e-05,
        9.598705219104886e-05
      ],
      "type": "VEC2"
    },
    {
      "bufferView": 1,
      "byteOffset": 6912,
      "componentType": 5126,
      "count": 4,
      "max": [
        0.9999039769172668,
        0.9216243028640747
      ],
      "min": [
        9.598705219104886e-05,
        9.598705219104886e-05
      ],
      "type": "VEC2"
    },
    {
      "bufferView": 0,
      "byteOffset": 9960,
      "componentType": 5125,
      "count": 6,
      "type": "SCALAR"
    },
    {
      "bufferView": 2,
      "byteOffset": 20736,
      "componentType": 5126,
      "count": 260,
      "max": [
        0.08887709677219391,
        0.06385274976491928,
        0.006605772767215967
      ],
      "min": [
        -0.0888584703207016,
        -0.06385669857263565,
        -0.004923960193991661
      ],
      "type": "VEC3"
    },
    {
      "bufferView": 2,
      "byteOffset": 23856,
      "componentType": 5126,
      "count": 260,
      "max": [
        0.9985092282295227,
        0.9984315037727356,
        1.0
      ],
      "min": [
        -0.9985092282295227,
        -0.9984314441680908,
        -1.0
      ],
      "type": "VEC3"
    },
    {
      "bufferView": 1,
      "byteOffset": 6944,
      "componentType": 5126,
      "count": 260,
      "max": [
        0.918460488319397,
        0.35415828227996826
      ],
      "min": [
        0.6954172849655151,
        0.05676722526550293
      ],
      "type": "VEC2"
    },
    {
      "bufferView": 0,
      "byteOffset": 9984,
      "componentType": 5125,
      "count": 744,
      "type": "SCALAR"
    },
    {
      "bufferView": 2,
      "byteOffset": 26976,
      "componentType": 5126,
      "count": 258,
      "max": [
        0.08887709677219391,
        0.06385274976491928,
        0.004959835670888424
      ],
      "min": [
        -0.0888584703207016,
        -0.06385669857263565,
        -0.0038638324476778507
      ],
      "type": "VEC3"
    },
    {
      "bufferView": 2,
      "byteOffset": 30072,
      "componentType": 5126,
      "count": 258,
      "max": [
        0.9985092878341675,
        0.9984315037727356,
        0.9991247057914734
      ],
      "min": [
        -0.9985091686248779,
        -0.9984266757965088,
        -1.0
      ],
      "type": "VEC3"
    },
    {
      "bufferView": 1,
      "byteOffset": 9024,
      "componentType": 5126,
      "count": 258,
      "max": [
        0.622029185295105,
        0.27440619468688965
      ],
      "min": [
        0.4585810899734497,
        0.05802828446030617
      ],
      "type": "VEC2"
    },
    {
      "bufferView": 0,
      "byteOffset": 12960,
      "componentType": 5125,
      "count": 756,
      "type": "SCALAR"
    },
    {
      "bufferView": 2,
      "byteOffset": 33168,
      "componentType": 5126,
      "count": 5036,
      "max": [
        0.14866787195205688,
        0.05687473714351654,
        0.0007105402764864266
      ],
      "min": [
        -0.15356586873531342,
        -0.06302884221076965,
        -0.0012312692124396563
      ],
      "type": "VEC3"
    },
    {
      "bufferView": 2,
      "byteOffset": 93600,
      "componentType": 5126,
      "count": 5036,
      "max": [
        1.0,
        1.0,
        1.0
      ],
      "min": [
        -1.0,
        -1.0,
        -1.0
      ],
      "type": "VEC3"
    },
    {
      "bufferView": 1,
      "byteOffset": 11088,
      "componentType": 5126,
      "count": 5036,
      "max": [
        0.9746087789535522,
        0.9355572462081909
      ],
      "min": [
        0.025739796459674835,
        0.06313267350196838
      ],
      "type": "VEC2"
    },
    {
      "bufferView": 0,
      "byteOffset": 15984,
      "componentType": 5125,
      "count": 14160,
      "type": "SCALAR"
    },
    {
      "bufferView": 2,
      "byteOffset": 154032,
      "componentType": 5126,
      "count": 130,
      "max": [
        0.1519901603460312,
        0.060703031718730927,
        -0.0008958023972809315
      ],
      "min": [
        -0.1577143520116806,
        -0.06730818003416061,
        -0.010780158452689648
      ],
      "type": "VEC3"
    },
    {
      "bufferView": 2,
      "byteOffset": 155592,
      "componentType": 5126,
      "count": 130,
      "max": [
        0.9985092282295227,
        0.9975601434707642,
        1.0
      ],
      "min": [
        -0.9985091090202332,
        -0.9975554347038269,
        -0.9991273283958435
      ],
      "type": "VEC3"
    },
    {
      "bufferView": 1,
      "byteOffset": 51376,
      "componentType": 5126,
      "count": 130,
      "max": [
        0.603306770324707,
        0.27273452281951904
      ],
      "min": [
        0.4649018943309784,
        0.08950966596603394
      ],
      "type": "VEC2"
    },
    {
      "bufferView": 0,
      "byteOffset": 72624,
      "componentType": 5125,
      "count": 372,
      "type": "SCALAR"
    },
    {
      "bufferView": 2,
      "byteOffset": 157152,
      "componentType": 5126,
      "count": 130,
      "max": [
        0.15107698738574982,
        0.05948275327682495,
        -0.005462708417326212
      ],
      "min": [
        -0.15680117905139923,
        -0.06654471158981323,
        -0.01180557906627655
      ],
      "type": "VEC3"
    },
    {
      "bufferView": 2,
      "byteOffset": 158712,
      "componentType": 5126,
      "count": 130,
      "max": [
        0.9984266757965088,
        0.9975552558898926,
        0.9991273283958435
      ],
      "min": [
        -0.9984266757965088,
        -0.9975554347038269,
        -0.9991272687911987
      ],
      "type": "VEC3"
    },
    {
      "bufferView": 1,
      "byteOffset": 52416,
      "componentType": 5126,
      "count": 130,
      "max": [
        0.875,
        0.9970441460609436
      ],
      "min": [
        0.125,
        0.0
      ],
      "type": "VEC2"
    },
    {
      "bufferView": 0,
      "byteOffset": 74112,
      "componentType": 5125,
      "count": 372,
      "type": "SCALAR"
    }
  ],
  "asset": {
    "extras": {
      "author": "Benji Labs (https://sketchfab.com/benjilabs)",
      "license": "CC-BY-4.0 (http://creativecommons.org/licenses/by/4.0/)",
      "source": "https://sketchfab.com/3d-models/apple-imac-m1-silver-7c60798464fd47698689038f5587aafa",
      "title": "Apple iMac M1 (Silver)"
    },
    "generator": "Sketchfab-12.87.0",
    "version": "2.0"
  },
  "bufferViews": [
    {
      "buffer": 0,
      "byteLength": 75600,
      "name": "floatBufferViews",
      "target": 34963
    },
    {
      "buffer": 0,
      "byteLength": 53456,
      "byteOffset": 75600,
      "byteStride": 8,
      "name": "floatBufferViews",
      "target": 34962
    },
    {
      "buffer": 0,
      "byteLength": 160272,
      "byteOffset": 129056,
      "byteStride": 12,
      "name": "floatBufferViews",
      "target": 34962
    }
  ],
  "buffers": [
    {
      "byteLength": 289328,
      "uri": "scene.bin"
    }
  ],
  "images": [
    {
      "uri": "textures/iMac_Grey_Shader_baseColor.png"
    },
    {
      "uri": "textures/iMac_Grey_Shader_metallicRoughness.png"
    },
    {
      "uri": "textures/iMac_Screen_baseColor.jpeg"
    },
    {
      "uri": "textures/Keyboard_Keys_baseColor.png"
    }
  ],
  "materials": [
    {
      "doubleSided": true,
      "name": "iMac_Grey_Shader",
      "pbrMetallicRoughness": {
        "baseColorTexture": {
          "index": 0
        },
        "metallicRoughnessTexture": {
          "index": 1
        }
      }
    },
    {
      "doubleSided": true,
      "name": "iMac_Screen",
      "pbrMetallicRoughness": {
        "baseColorTexture": {
          "index": 2
        },
        "metallicFactor": 0.0,
        "roughnessFactor": 0.2301829268292683
      }
    },
    {
      "doubleSided": true,
      "name": "iMac_White_Glass.001",
      "pbrMetallicRoughness": {
        "baseColorFactor": [
          0.8,
          0.8,
          0.8,
          1.0
        ],
        "metallicFactor": 0.0,
        "roughnessFactor": 0.7482858764391636
      }
    },
    {
      "doubleSided": true,
      "name": "iMac_Grey_Aluminium",
      "pbrMetallicRoughness": {
        "baseColorFactor": [
          0.758379,
          0.758379,
          0.758379,
          1.0
        ],
        "metallicRoughnessTexture": {
          "index": 1
        }
      }
    },
    {
      "doubleSided": true,
      "name": "Keyboard_Keys",
      "pbrMetallicRoughness": {
        "baseColorTexture": {
          "index": 3
        },
        "metallicFactor": 0.0
      }
    },
    {
      "doubleSided": true,
      "name": "iMac_White_Glass",
      "pbrMetallicRoughness": {
        "baseColorFactor": [
          0.8,
          0.8,
          0.8,
          1.0
        ],
        "metallicFactor": 0.0,
        "roughnessFactor": 0.7482858764391636
      }
    }
  ],
  "meshes": [
    {
      "name": "iMac Silver_iMac Grey Shader_0",
      "primitives": [
        {
          "attributes": {
            "NORMAL": 1,
            "POSITION": 0,
            "TEXCOORD_0": 2
          },
          "indices": 3,
          "material": 0,
          "mode": 4
        }
      ]
    },
    {
      "name": "iMac Silver_iMac Screen_0",
      "primitives": [
        {
          "attributes": {
            "NORMAL": 5,
            "POSITION": 4,
            "TEXCOORD_0": 6,
            "TEXCOORD_1": 7
          },
          "indices": 8,
          "material": 1,
          "mode": 4
        }
      ]
    },
    {
      "name": "Trackpad_iMac White Glass.001_0",
      "primitives": [
        {
          "attributes": {
            "NORMAL": 10,
            "POSITION": 9,
            "TEXCOORD_0": 11
          },
          "indices": 12,
          "material": 2,
          "mode": 4
        }
      ]
    },
    {
      "name": "Trackpad_iMac Grey Aluminium_0",
      "primitives": [
        {
          "attributes": {
            "NORMAL": 14,
            "POSITION": 13,
            "TEXCOORD_0": 15
          },
          "indices": 16,
          "material": 3,
          "mode": 4
        }
      ]
    },
    {
      "name": "Keyboard_Keyboard Keys_0",
      "primitives": [
        {
          "attributes": {
            "NORMAL": 18,
            "POSITION": 17,
            "TEXCOORD_0": 19
          },
          "indices": 20,
          "material": 4,
          "mode": 4
        }
      ]
    },
    {
      "name": "Keyboard_iMac Grey Aluminium_0",
      "primitives": [
        {
          "attributes": {
            "NORMAL": 22,
            "POSITION": 21,
            "TEXCOORD_0": 23
          },
          "indices": 24,
          "material": 3,
          "mode": 4
        }
      ]
    },
    {
      "name": "Keyboard_iMac White Glass_0",
      "primitives": [
        {
          "attributes": {
            "NORMAL": 26,
            "POSITION": 25,
            "TEXCOORD_0": 27
          },
          "indices": 28,
          "material": 5,
          "mode": 4
        }
      ]
    }
  ],
  "nodes": [
    {
      "children": [
        1
      ],
      "matrix": [
        1.0,
        0.0,
        0.0,
        0.0,
        0.0,
        2.220446049250313e-16,
        -1.0,
        0.0,
        0.0,
        1.0,
        2.220446049250313e-16,
        0.0,
        0.0,
        0.0,
        0.0,
        1.0
      ],
      "name": "Sketchfab_model"
    },
    {
      "children": [
        2
      ],
      "matrix": [
        0.009999999776482582,
        0.0,
        0.0,
        0.0,
        0.0,
        0.0,
        0.009999999776482582,
        0.0,
        0.0,
        -0.009999999776482582,
        0.0,
        0.0,
        0.0,
        0.0,
        0.0,
        1.0
      ],
      "name": "3f1c63d297934aa7acedfea915fdcb5a.fbx"
    },
    {
      "children": [
        3,
        6,
        9
      ],
      "name": "RootNode"
    },
    {
      "children": [
        4,
        5
      ],
      "matrix": [
        102.86743927001953,
        1.4210857703099416e-12,
        -1.8483513032958391e-19,
        0.0,
        4.6689128827164006e-20,
        -1.6759233093169542e-05,
        -102.86743927001817,
        0.0,
        -1.421085770309953e-12,
        102.86743927001817,
        -1.6759233093169542e-05,
        0.0,
        5.491232872009277,
        -0.1074867993593216,
        -17.241500854492188,
        1.0
      ],
      "name": "iMac Silver"
    },
    {
      "mesh": 0,
      "name": "iMac Silver_iMac Grey Shader_0"
    },
    {
      "mesh": 1,
      "name": "iMac Silver_iMac Screen_0"
    },
    {
      "children": [
        7,
        8
      ],
      "matrix": [
        100.0,
        0.0,
        0.0,
        0.0,
        0.0,
        -1.629206793918314e-05,
        -99.99999999999868,
        0.0,
        0.0,
        99.99999999999868,
        -1.629206793918314e-05,
        0.0,
        22.330379486083984,
        0.49239397048950195,
        13.058712005615234,
        1.0
      ],
      "name": "Trackpad"
    },
    {
      "mesh": 2,
      "name": "Trackpad_iMac White Glass.001_0"
    },
    {
      "mesh": 3,
      "name": "Trackpad_iMac Grey Aluminium_0"
    },
    {
      "children": [
        10,
        11,
        12
      ],
      "matrix": [
        100.0,
        -1.015849866244464e-11,
        -3.730153519398982e-07,
        0.0,
        -3.7301529502392256e-07,
        -1.629206545321086e-05,
        -99.99998474120962,
        0.0,
        1.0097726747900354e-11,
        99.99999999999868,
        -1.629206793918314e-05,
        0.0,
        -5.187464714050293,
        1.1805580854415894,
        12.805194854736328,
        1.0
      ],
      "name": "Keyboard"
    },
    {
      "mesh": 4,
      "name": "Keyboard_Keyboard Keys_0"
    },
    {
      "mesh": 5,
      "name": "Keyboard_iMac Grey Aluminium_0"
    },
    {
      "mesh": 6,
      "name": "Keyboard_iMac White Glass_0"
    }
  ],
  "samplers": [
    {
      "magFilter": 9729,
      "minFilter": 9987,
      "wrapS": 10497,
      "wrapT": 10497
    }
  ],
  "scene": 0,
  "scenes": [
    {
      "name": "Sketchfab_Scene",
      "nodes": [
        0
      ]
    }
  ],
  "textures": [
    {
      "sampler": 0,
      "source": 0
    },
    {
      "sampler": 0,
      "source": 1
    },
    {
      "sampler": 0,
      "source": 2
    },
    {
      "sampler": 0,
      "source": 3
    }
  ]
}
