{
  "accessors": [
    {
      "bufferView": 2,
      "componentType": 5126,
      "count": 47591,
      "max": [
        5.952483177185059,
        3.2303614616394043,
        2.26401686668396
      ],
      "min": [
        -7.582183361053467,
        -0.751296877861023,
        -3.5298540592193604
      ],
      "type": "VEC3"
    },
    {
      "bufferView": 2,
      "byteOffset": 571092,
      "componentType": 5126,
      "count": 47591,
      "max": [
        1.0,
        1.0,
        1.0
      ],
      "min": [
        -1.0,
        -1.0,
        -1.0
      ],
      "type": "VEC3"
    },
    {
      "bufferView": 3,
      "componentType": 5126,
      "count": 47591,
      "max": [
        1.0,
        1.0,
        1.0,
        1.0
      ],
      "min": [
        -1.0,
        -1.0,
        -1.0,
        -1.0
      ],
      "type": "VEC4"
    },
    {
      "bufferView": 1,
      "componentType": 5126,
      "count": 47591,
      "max": [
        0.993620753288269,
        0.9967724680900574
      ],
      "min": [
        0.006870312616229057,
        0.007960855960845947
      ],
      "type": "VEC2"
    },
    {
      "bufferView": 0,
      "componentType": 5125,
      "count": 54285,
      "type": "SCALAR"
    }
  ],
  "asset": {
    "extras": {
      "author": "Glowbox 3D (https://sketchfab.com/ra3id)",
      "license": "CC-BY-4.0 (http://creativecommons.org/licenses/by/4.0/)",
      "source": "https://sketchfab.com/3d-models/vintage-stereo-hi-fi-stack-w-speakers-31f5862ac47b436f8db70f8aa47d2b07",
      "title": "Vintage Stereo Hi-Fi Stack w/ Speakers"
    },
    "generator": "Sketchfab-12.67.0",
    "version": "2.0"
  },
  "bufferViews": [
    {
      "buffer": 0,
      "byteLength": 217140,
      "name": "floatBufferViews",
      "target": 34963
    },
    {
      "buffer": 0,
      "byteLength": 380728,
      "byteOffset": 217140,
      "byteStride": 8,
      "name": "floatBufferViews",
      "target": 34962
    },
    {
      "buffer": 0,
      "byteLength": 1142184,
      "byteOffset": 597868,
      "byteStride": 12,
      "name": "floatBufferViews",
      "target": 34962
    },
    {
      "buffer": 0,
      "byteLength": 761456,
      "byteOffset": 1740052,
      "byteStride": 16,
      "name": "floatBufferViews",
      "target": 34962
    }
  ],
  "buffers": [
    {
      "byteLength": 2501508,
      "uri": "scene.bin"
    }
  ],
  "images": [
    {
      "uri": "textures/Material.014_baseColor.png"
    },
    {
      "uri": "textures/Material.014_metallicRoughness.png"
    },
    {
      "uri": "textures/Material.014_normal.png"
    }
  ],
  "materials": [
    {
      "doubleSided": true,
      "name": "Material.014",
      "normalTexture": {
        "index": 2
      },
      "occlusionTexture": {
        "index": 1
      },
      "pbrMetallicRoughness": {
        "baseColorTexture": {
          "index": 0
        },
        "metallicRoughnessTexture": {
          "index": 1
        }
      }
    }
  ],
  "meshes": [
    {
      "name": "Stereo SM_Material.014_0",
      "primitives": [
        {
          "attributes": {
            "NORMAL": 1,
            "POSITION": 0,
            "TANGENT": 2,
            "TEXCOORD_0": 3
          },
          "indices": 4,
          "material": 0,
          "mode": 4
        }
      ]
    }
  ],
  "nodes": [
    {
      "children": [
        1
      ],
      "matrix": [
        0.26226848363876343,
        0.0,
        0.0,
        0.0,
        0.0,
        5.823530183385626e-17,
        -0.26226848363876343,
        0.0,
        0.0,
        0.26226848363876343,
        5.823530183385626e-17,
        0.0,
        0.0,
        0.0,
        0.0,
        1.0
      ],
      "name": "Sketchfab_model"
    },
    {
      "children": [
        2
      ],
      "matrix": [
        1.0,
        0.0,
        0.0,
        0.0,
        0.0,
        0.0,
        1.0,
        0.0,
        0.0,
        -1.0,
        0.0,
        0.0,
        0.0,
        0.0,
        0.0,
        1.0
      ],
      "name": "ef4a6378d11140e490074448eb887ffd.fbx"
    },
    {
      "children": [
        3,
        5
      ],
      "name": "RootNode"
    },
    {
      "children": [
        4
      ],
      "matrix": [
        100.0,
        0.0,
        0.0,
        0.0,
        0.0,
        -1.629206793918314e-05,
        -99.99999999999868,
        0.0,
        0.0,
        99.99999999999868,
        -1.629206793918314e-05,
        0.0,
        34.05439758300781,
        347.30316162109375,
        137.65577697753906,
        1.0
      ],
      "name": "Stereo SM"
    },
    {
      "mesh": 0,
      "name": "Stereo SM_Material.014_0"
    },
    {
      "children": [
        6
      ],
      "matrix": [
        -65.15583280329096,
        -44.52713576570858,
        -61.41703047373549,
        0.0,
        -32.40134137821245,
        89.53957451233616,
        -30.542088974418615,
        0.0,
        68.59205472129975,
        -1.0718647115348782e-05,
        -72.7676336239627,
        0.0,
        625.9978637695313,
        853.704345703125,
        548.7931518554688,
        1.0
      ],
      "name": "Camera"
    },
    {
      "name": "Object_6"
    }
  ],
  "samplers": [
    {
      "magFilter": 9729,
      "minFilter": 9987,
      "wrapS": 10497,
      "wrapT": 10497
    }
  ],
  "scene": 0,
  "scenes": [
    {
      "name": "Sketchfab_Scene",
      "nodes": [
        0
      ]
    }
  ],
  "textures": [
    {
      "sampler": 0,
      "source": 0
    },
    {
      "sampler": 0,
      "source": 1
    },
    {
      "sampler": 0,
      "source": 2
    }
  ]
}
