{
  "accessors": [
    {
      "bufferView": 2,
      "componentType": 5126,
      "count": 860,
      "max": [
        1.249032974243164,
        5.576590538024902,
        1.2501296997070313
      ],
      "min": [
        -1.072216272354126,
        -0.00555872917175293,
        -1.1746201515197754
      ],
      "type": "VEC3"
    },
    {
      "bufferView": 2,
      "byteOffset": 10320,
      "componentType": 5126,
      "count": 860,
      "max": [
        0.9988517761230469,
        0.9998376965522766,
        0.9999406933784485
      ],
      "min": [
        -0.9996532201766968,
        -0.9997729063034058,
        -0.999645471572876
      ],
      "type": "VEC3"
    },
    {
      "bufferView": 3,
      "componentType": 5126,
      "count": 860,
      "max": [
        0.9999407529830933,
        0.9860358834266663,
        0.9998775720596313,
        1.0
      ],
      "min": [
        -0.9998942613601685,
        -0.9900060892105103,
        -0.9998775720596313,
        -1.0
      ],
      "type": "VEC4"
    },
    {
      "bufferView": 1,
      "componentType": 5126,
      "count": 860,
      "max": [
        0.9463419318199158,
        0.9659990668296814
      ],
      "min": [
        0.05657906085252762,
        0.06500065326690674
      ],
      "type": "VEC2"
    },
    {
      "bufferView": 0,
      "componentType": 5125,
      "count": 3390,
      "type": "SCALAR"
    },
    {
      "bufferView": 2,
      "byteOffset": 20640,
      "componentType": 5126,
      "count": 240,
      "max": [
        1.9142653942108154,
        5.483982086181641,
        1.9135150909423828
      ],
      "min": [
        -1.8644697666168213,
        0.707093358039856,
        -1.9144500494003296
      ],
      "type": "VEC3"
    },
    {
      "bufferView": 2,
      "byteOffset": 23520,
      "componentType": 5126,
      "count": 240,
      "max": [
        0.9874396324157715,
        0.7552007436752319,
        0.988217294216156
      ],
      "min": [
        -0.9812642335891724,
        0.029627393931150436,
        -0.9835394024848938
      ],
      "type": "VEC3"
    },
    {
      "bufferView": 3,
      "byteOffset": 13760,
      "componentType": 5126,
      "count": 240,
      "max": [
        0.6719101667404175,
        -0.6480743885040283,
        0.7373181581497192,
        1.0
      ],
      "min": [
        -0.7459589838981628,
        -0.9909998774528503,
        -0.6416010856628418,
        1.0
      ],
      "type": "VEC4"
    },
    {
      "bufferView": 1,
      "byteOffset": 6880,
      "componentType": 5126,
      "count": 240,
      "max": [
        1.0,
        1.0
      ],
      "min": [
        0.0,
        0.0
      ],
      "type": "VEC2"
    },
    {
      "bufferView": 0,
      "byteOffset": 13560,
      "componentType": 5125,
      "count": 810,
      "type": "SCALAR"
    },
    {
      "bufferView": 4,
      "componentType": 5126,
      "count": 1,
      "max": [
        1.0,
        0.0,
        0.0,
        0.0,
        0.0,
        1.0,
        0.0,
        0.0,
        0.0,
        0.0,
        1.0,
        0.0,
        0.0,
        0.0,
        0.0,
        1.0
      ],
      "min": [
        1.0,
        0.0,
        0.0,
        0.0,
        0.0,
        1.0,
        0.0,
        0.0,
        0.0,
        0.0,
        1.0,
        0.0,
        0.0,
        0.0,
        0.0,
        1.0
      ],
      "type": "MAT4"
    }
  ],
  "asset": {
    "extras": {
      "author": "hako (https://sketchfab.com/hako25AI)",
      "license": "CC-BY-NC-4.0 (http://creativecommons.org/licenses/by-nc/4.0/)",
      "source": "https://sketchfab.com/3d-models/indoor-plant-0c1e8c7de0d9477787d8d7c482a10342",
      "title": "Indoor Plant"
    },
    "generator": "Sketchfab-12.67.0",
    "version": "2.0"
  },
  "bufferViews": [
    {
      "buffer": 0,
      "byteLength": 16800,
      "name": "floatBufferViews",
      "target": 34963
    },
    {
      "buffer": 0,
      "byteLength": 8800,
      "byteOffset": 16800,
      "byteStride": 8,
      "name": "floatBufferViews",
      "target": 34962
    },
    {
      "buffer": 0,
      "byteLength": 26400,
      "byteOffset": 25600,
      "byteStride": 12,
      "name": "floatBufferViews",
      "target": 34962
    },
    {
      "buffer": 0,
      "byteLength": 17600,
      "byteOffset": 52000,
      "byteStride": 16,
      "name": "floatBufferViews",
      "target": 34962
    },
    {
      "buffer": 0,
      "byteLength": 64,
      "byteOffset": 69600,
      "name": "floatBufferViews"
    }
  ],
  "buffers": [
    {
      "byteLength": 69664,
      "uri": "scene.bin"
    }
  ],
  "images": [
    {
      "uri": "textures/plant_baseColor.png"
    },
    {
      "uri": "textures/plant_normal.png"
    },
    {
      "uri": "textures/Leaf2_baseColor.png"
    },
    {
      "uri": "textures/Leaf2_normal.png"
    }
  ],
  "materials": [
    {
      "doubleSided": true,
      "name": "plant",
      "normalTexture": {
        "index": 1,
        "scale": 0.9285442073170732
      },
      "pbrMetallicRoughness": {
        "baseColorTexture": {
          "index": 0
        },
        "metallicFactor": 0.0,
        "roughnessFactor": 0.6
      }
    },
    {
      "alphaMode": "BLEND",
      "doubleSided": true,
      "name": "Leaf2",
      "normalTexture": {
        "index": 3,
        "scale": 0.7395198170731707
      },
      "pbrMetallicRoughness": {
        "baseColorTexture": {
          "index": 2
        },
        "metallicFactor": 0.0,
        "roughnessFactor": 0.6
      }
    }
  ],
  "meshes": [
    {
      "name": "Object_0",
      "primitives": [
        {
          "attributes": {
            "NORMAL": 1,
            "POSITION": 0,
            "TANGENT": 2,
            "TEXCOORD_0": 3
          },
          "indices": 4,
          "material": 0,
          "mode": 4
        }
      ]
    },
    {
      "name": "Object_1",
      "primitives": [
        {
          "attributes": {
            "NORMAL": 6,
            "POSITION": 5,
            "TANGENT": 7,
            "TEXCOORD_0": 8
          },
          "indices": 9,
          "material": 1,
          "mode": 4
        }
      ]
    }
  ],
  "nodes": [
    {
      "children": [
        1
      ],
      "matrix": [
        1.0,
        0.0,
        0.0,
        0.0,
        0.0,
        2.220446049250313e-16,
        -1.0,
        0.0,
        0.0,
        1.0,
        2.220446049250313e-16,
        0.0,
        0.0,
        0.0,
        0.0,
        1.0
      ],
      "name": "Sketchfab_model"
    },
    {
      "children": [
        2
      ],
      "matrix": [
        1.0,
        0.0,
        0.0,
        0.0,
        0.0,
        0.0,
        1.0,
        0.0,
        0.0,
        -1.0,
        0.0,
        0.0,
        0.0,
        0.0,
        0.0,
        1.0
      ],
      "name": "e008719f6b504c47b6a752217d44d4e0.fbx"
    },
    {
      "children": [
        3
      ],
      "name": "RootNode"
    },
    {
      "children": [
        4,
        5,
        6
      ],
      "name": "Object_3"
    },
    {
      "name": "_rootJoint"
    },
    {
      "mesh": 0,
      "name": "Object_5"
    },
    {
      "mesh": 1,
      "name": "Object_6"
    }
  ],
  "samplers": [
    {
      "magFilter": 9729,
      "minFilter": 9987,
      "wrapS": 10497,
      "wrapT": 10497
    }
  ],
  "scene": 0,
  "scenes": [
    {
      "name": "Sketchfab_Scene",
      "nodes": [
        0
      ]
    }
  ],
  "skins": [
    {
      "inverseBindMatrices": 10,
      "joints": [
        4
      ],
      "skeleton": 4
    }
  ],
  "textures": [
    {
      "sampler": 0,
      "source": 0
    },
    {
      "sampler": 0,
      "source": 1
    },
    {
      "sampler": 0,
      "source": 2
    },
    {
      "sampler": 0,
      "source": 3
    }
  ]
}
