{
  "accessors": [
    {
      "bufferView": 2,
      "componentType": 5126,
      "count": 2760,
      "max": [
        26.75,
        29.0,
        53.5
      ],
      "min": [
        -26.75,
        -29.0,
        0.0
      ],
      "type": "VEC3"
    },
    {
      "bufferView": 2,
      "byteOffset": 33120,
      "componentType": 5126,
      "count": 2760,
      "max": [
        1.0,
        0.9986763596534729,
        1.0
      ],
      "min": [
        -1.0,
        -1.0,
        -1.0
      ],
      "type": "VEC3"
    },
    {
      "bufferView": 1,
      "componentType": 5126,
      "count": 2760,
      "max": [
        1.2042161226272583,
        1.25455904006958
      ],
      "min": [
        -0.27678966522216797,
        0.0
      ],
      "type": "VEC2"
    },
    {
      "bufferView": 0,
      "componentType": 5125,
      "count": 9732,
      "type": "SCALAR"
    },
    {
      "bufferView": 2,
      "byteOffset": 66240,
      "componentType": 5126,
      "count": 2030,
      "max": [
        27.0,
        27.0,
        102.39285278320313
      ],
      "min": [
        -27.0,
        -27.0,
        0.0
      ],
      "type": "VEC3"
    },
    {
      "bufferView": 2,
      "byteOffset": 90600,
      "componentType": 5126,
      "count": 2030,
      "max": [
        1.0,
        1.0,
        1.0
      ],
      "min": [
        -1.0,
        -1.0,
        -1.0
      ],
      "type": "VEC3"
    },
    {
      "bufferView": 1,
      "byteOffset": 22080,
      "componentType": 5126,
      "count": 2030,
      "max": [
        0.8702476024627686,
        0.9942927956581116
      ],
      "min": [
        0.019788997247815132,
        0.024469587951898575
      ],
      "type": "VEC2"
    },
    {
      "bufferView": 0,
      "byteOffset": 38928,
      "componentType": 5125,
      "count": 6978,
      "type": "SCALAR"
    },
    {
      "bufferView": 2,
      "byteOffset": 114960,
      "componentType": 5126,
      "count": 3105,
      "max": [
        12.27928352355957,
        31.922948837280273,
        41.723392486572266
      ],
      "min": [
        -12.27928638458252,
        -12.279281616210938,
        -15.072113037109375
      ],
      "type": "VEC3"
    },
    {
      "bufferView": 2,
      "byteOffset": 152220,
      "componentType": 5126,
      "count": 3105,
      "max": [
        1.0,
        1.0,
        1.0
      ],
      "min": [
        -1.0,
        -1.0,
        -1.0
      ],
      "type": "VEC3"
    },
    {
      "bufferView": 1,
      "byteOffset": 38320,
      "componentType": 5126,
      "count": 3105,
      "max": [
        0.997766375541687,
        0.9992499947547913
      ],
      "min": [
        0.0017662910977378488,
        0.0020000000949949026
      ],
      "type": "VEC2"
    },
    {
      "bufferView": 0,
      "byteOffset": 66840,
      "componentType": 5125,
      "count": 13440,
      "type": "SCALAR"
    }
  ],
  "asset": {
    "extras": {
      "author": "sara3dbear (https://sketchfab.com/sara3dbear)",
      "license": "CC-BY-4.0 (http://creativecommons.org/licenses/by/4.0/)",
      "source": "https://sketchfab.com/3d-models/il-gele-shampoo-2b4ac2c020c7437ea7149ea53d2786dd",
      "title": "Il Gele Shampoo"
    },
    "generator": "Sketchfab-12.68.0",
    "version": "2.0"
  },
  "bufferViews": [
    {
      "buffer": 0,
      "byteLength": 120600,
      "name": "floatBufferViews",
      "target": 34963
    },
    {
      "buffer": 0,
      "byteLength": 63160,
      "byteOffset": 120600,
      "byteStride": 8,
      "name": "floatBufferViews",
      "target": 34962
    },
    {
      "buffer": 0,
      "byteLength": 189480,
      "byteOffset": 183760,
      "byteStride": 12,
      "name": "floatBufferViews",
      "target": 34962
    }
  ],
  "buffers": [
    {
      "byteLength": 373240,
      "uri": "scene.bin"
    }
  ],
  "images": [
    {
      "uri": "textures/03_-_Default_baseColor.png"
    },
    {
      "uri": "textures/01_-_Default_baseColor.png"
    }
  ],
  "materials": [
    {
      "alphaMode": "BLEND",
      "doubleSided": true,
      "name": "03_-_Default",
      "pbrMetallicRoughness": {
        "baseColorFactor": [
          1.0,
          1.0,
          1.0,
          0.1
        ],
        "baseColorTexture": {
          "index": 0
        },
        "metallicFactor": 0.666,
        "roughnessFactor": 0.6
      }
    },
    {
      "doubleSided": true,
      "name": "01_-_Default",
      "pbrMetallicRoughness": {
        "baseColorTexture": {
          "index": 1
        },
        "metallicFactor": 0.0,
        "roughnessFactor": 0.6
      }
    },
    {
      "doubleSided": true,
      "name": "04_-_Default",
      "pbrMetallicRoughness": {
        "baseColorFactor": [
          0.000607054,
          0.0822827,
          0.215861,
          1.0
        ],
        "metallicFactor": 0.666,
        "roughnessFactor": 0.6
      }
    }
  ],
  "meshes": [
    {
      "name": "Object_0",
      "primitives": [
        {
          "attributes": {
            "NORMAL": 1,
            "POSITION": 0,
            "TEXCOORD_0": 2
          },
          "indices": 3,
          "material": 0,
          "mode": 4
        }
      ]
    },
    {
      "name": "Object_1",
      "primitives": [
        {
          "attributes": {
            "NORMAL": 5,
            "POSITION": 4,
            "TEXCOORD_0": 6
          },
          "indices": 7,
          "material": 1,
          "mode": 4
        }
      ]
    },
    {
      "name": "Object_2",
      "primitives": [
        {
          "attributes": {
            "NORMAL": 9,
            "POSITION": 8,
            "TEXCOORD_0": 10
          },
          "indices": 11,
          "material": 2,
          "mode": 4
        }
      ]
    }
  ],
  "nodes": [
    {
      "children": [
        1
      ],
      "matrix": [
        1.0,
        0.0,
        0.0,
        0.0,
        0.0,
        2.220446049250313e-16,
        -1.0,
        0.0,
        0.0,
        1.0,
        2.220446049250313e-16,
        0.0,
        0.0,
        0.0,
        0.0,
        1.0
      ],
      "name": "Sketchfab_model"
    },
    {
      "children": [
        2
      ],
      "name": "root"
    },
    {
      "children": [
        3
      ],
      "matrix": [
        1.0,
        0.0,
        0.0,
        0.0,
        0.0,
        2.220446049250313e-16,
        1.0,
        0.0,
        0.0,
        -1.0,
        2.220446049250313e-16,
        0.0,
        0.0,
        0.0,
        0.0,
        1.0
      ],
      "name": "GLTF_SceneRootNode"
    },
    {
      "children": [
        4
      ],
      "matrix": [
        1.0,
        0.0,
        -0.0,
        0.0,
        -0.0,
        0.0,
        -1.0,
        0.0,
        0.0,
        1.0,
        0.0,
        0.0,
        0.0,
        0.0,
        0.0,
        1.0
      ],
      "name": "RootNode (gltf orientation matrix)_0"
    },
    {
      "children": [
        5
      ],
      "name": "RootNode (model correction matrix)_1"
    },
    {
      "children": [
        6
      ],
      "matrix": [
        1.0,
        0.0,
        0.0,
        0.0,
        0.0,
        0.0,
        1.0,
        0.0,
        0.0,
        -1.0,
        0.0,
        0.0,
        0.0,
        0.0,
        0.0,
        1.0
      ],
      "name": "a3d748c166084040905c7315799e4d63.fbx_2"
    },
    {
      "children": [
        7
      ],
      "name": "RootNode_3"
    },
    {
      "children": [
        8,
        11,
        14
      ],
      "matrix": [
        1.0,
        0.0,
        0.0,
        0.0,
        0.0,
        2.220446049250313e-16,
        -1.0,
        0.0,
        0.0,
        1.0,
        2.220446049250313e-16,
        0.0,
        0.3070487976074219,
        76.6003189086914,
        -0.00531768798828125,
        1.0
      ],
      "name": "Group001_4"
    },
    {
      "children": [
        9
      ],
      "matrix": [
        -1.6292068494294654e-07,
        -1.0,
        0.0,
        0.0,
        -1.6292068494294654e-07,
        2.6423307986078726e-14,
        1.0,
        0.0,
        -1.0,
        1.6292068494294654e-07,
        -1.6292068494294654e-07,
        0.0,
        26.75,
        -7.62939453125e-06,
        47.600311279296875,
        1.0
      ],
      "name": "Box004_5"
    },
    {
      "children": [
        10
      ],
      "name": "Box004_03 - Default_0_6"
    },
    {
      "mesh": 0,
      "name": "Object_10"
    },
    {
      "children": [
        12
      ],
      "matrix": [
        1.0,
        0.0,
        0.0,
        0.0,
        0.0,
        1.0,
        0.0,
        0.0,
        0.0,
        0.0,
        1.0,
        0.0,
        9.5367431640625e-07,
        0.0,
        -76.6003189086914,
        1.0
      ],
      "name": "Box003_7"
    },
    {
      "children": [
        13
      ],
      "name": "Box003_01 - Default_0_8"
    },
    {
      "mesh": 1,
      "name": "Object_13"
    },
    {
      "children": [
        15
      ],
      "matrix": [
        0.6622557044029236,
        -0.6622555255889893,
        0.0,
        0.0,
        0.6622555255889893,
        0.6622557044029236,
        0.0,
        0.0,
        0.0,
        0.0,
        0.7014681696891785,
        0.0,
        0.0,
        -3.2391399145126343e-06,
        62.04882049560547,
        1.0
      ],
      "name": "Object_9"
    },
    {
      "children": [
        16
      ],
      "matrix": [
        1.0,
        0.0,
        0.0,
        0.0,
        0.0,
        1.0,
        0.0,
        0.0,
        0.0,
        0.0,
        1.0,
        0.0,
        0.0,
        1.1473405265860492e-06,
        -38.306854248046875,
        1.0
      ],
      "name": "_10"
    },
    {
      "children": [
        17
      ],
      "name": "Object_04 - Default_0_11"
    },
    {
      "mesh": 2,
      "name": "Object_17"
    }
  ],
  "samplers": [
    {
      "magFilter": 9729,
      "minFilter": 9987,
      "wrapS": 10497,
      "wrapT": 10497
    }
  ],
  "scene": 0,
  "scenes": [
    {
      "name": "Sketchfab_Scene",
      "nodes": [
        0
      ]
    }
  ],
  "textures": [
    {
      "sampler": 0,
      "source": 0
    },
    {
      "sampler": 0,
      "source": 1
    }
  ]
}
