{
  "accessors": [
    {
      "bufferView": 2,
      "componentType": 5126,
      "count": 5537,
      "max": [
        1.2782609462738037,
        0.051931049674749374,
        0.9747940897941589
      ],
      "min": [
        -1.002175211906433,
        -0.013022581115365028,
        -0.969581663608551
      ],
      "type": "VEC3"
    },
    {
      "bufferView": 2,
      "byteOffset": 66444,
      "componentType": 5126,
      "count": 5537,
      "max": [
        0.34700098633766174,
        1.0,
        0.9983766078948975
      ],
      "min": [
        -0.37519678473472595,
        -1.0,
        -0.9547265768051147
      ],
      "type": "VEC3"
    },
    {
      "bufferView": 3,
      "componentType": 5126,
      "count": 5537,
      "max": [
        1.0,
        0.37096554040908813,
        0.6860803365707397,
        1.0
      ],
      "min": [
        0.7275258302688599,
        -0.3699529767036438,
        -0.41757866740226746,
        1.0
      ],
      "type": "VEC4"
    },
    {
      "bufferView": 1,
      "componentType": 5126,
      "count": 5537,
      "max": [
        0.9999233484268188,
        0.9936521649360657
      ],
      "min": [
        7.677078247070313e-05,
        0.0010435718577355146
      ],
      "type": "VEC2"
    },
    {
      "bufferView": 1,
      "byteOffset": 44296,
      "componentType": 5126,
      "count": 5537,
      "max": [
        0.9999233484268188,
        0.9936521649360657
      ],
      "min": [
        7.677078247070313e-05,
        0.0010435718577355146
      ],
      "type": "VEC2"
    },
    {
      "bufferView": 1,
      "byteOffset": 88592,
      "componentType": 5126,
      "count": 5537,
      "max": [
        0.9999233484268188,
        0.9936521649360657
      ],
      "min": [
        7.677078247070313e-05,
        0.0010435718577355146
      ],
      "type": "VEC2"
    },
    {
      "bufferView": 1,
      "byteOffset": 132888,
      "componentType": 5126,
      "count": 5537,
      "max": [
        0.9999233484268188,
        0.9936521649360657
      ],
      "min": [
        7.677078247070313e-05,
        0.0010435718577355146
      ],
      "type": "VEC2"
    },
    {
      "bufferView": 0,
      "componentType": 5125,
      "count": 32256,
      "type": "SCALAR"
    }
  ],
  "asset": {
    "extras": {
      "author": "martin.constable (https://sketchfab.com/martin.constable)",
      "license": "CC-BY-4.0 (http://creativecommons.org/licenses/by/4.0/)",
      "source": "https://sketchfab.com/3d-models/rug-4d58e0e3adad4e37859e35885283184a",
      "title": "Rug"
    },
    "generator": "Sketchfab-12.66.0",
    "version": "2.0"
  },
  "bufferViews": [
    {
      "buffer": 0,
      "byteLength": 129024,
      "name": "floatBufferViews",
      "target": 34963
    },
    {
      "buffer": 0,
      "byteLength": 177184,
      "byteOffset": 129024,
      "byteStride": 8,
      "name": "floatBufferViews",
      "target": 34962
    },
    {
      "buffer": 0,
      "byteLength": 132888,
      "byteOffset": 306208,
      "byteStride": 12,
      "name": "floatBufferViews",
      "target": 34962
    },
    {
      "buffer": 0,
      "byteLength": 88592,
      "byteOffset": 439096,
      "byteStride": 16,
      "name": "floatBufferViews",
      "target": 34962
    }
  ],
  "buffers": [
    {
      "byteLength": 527688,
      "uri": "scene.bin"
    }
  ],
  "images": [
    {
      "uri": "textures/Rug.001_baseColor.png"
    },
    {
      "uri": "textures/Rug.001_metallicRoughness.png"
    },
    {
      "uri": "textures/Rug.001_normal.jpeg"
    }
  ],
  "materials": [
    {
      "alphaMode": "BLEND",
      "doubleSided": true,
      "name": "Rug.001",
      "normalTexture": {
        "index": 2,
        "scale": 0.3
      },
      "pbrMetallicRoughness": {
        "baseColorTexture": {
          "index": 0
        },
        "metallicFactor": 0.0,
        "metallicRoughnessTexture": {
          "index": 1
        }
      }
    }
  ],
  "meshes": [
    {
      "name": "Object_0",
      "primitives": [
        {
          "attributes": {
            "NORMAL": 1,
            "POSITION": 0,
            "TANGENT": 2,
            "TEXCOORD_0": 3,
            "TEXCOORD_1": 4,
            "TEXCOORD_2": 5,
            "TEXCOORD_3": 6
          },
          "indices": 7,
          "material": 0,
          "mode": 4
        }
      ]
    }
  ],
  "nodes": [
    {
      "children": [
        1
      ],
      "matrix": [
        1.0,
        0.0,
        0.0,
        0.0,
        0.0,
        2.220446049250313e-16,
        -1.0,
        0.0,
        0.0,
        1.0,
        2.220446049250313e-16,
        0.0,
        0.0,
        0.0,
        0.0,
        1.0
      ],
      "name": "Sketchfab_model"
    },
    {
      "children": [
        2
      ],
      "name": "root"
    },
    {
      "children": [
        3
      ],
      "matrix": [
        1.0,
        0.0,
        0.0,
        0.0,
        0.0,
        2.220446049250313e-16,
        1.0,
        0.0,
        0.0,
        -1.0,
        2.220446049250313e-16,
        0.0,
        0.0,
        0.0,
        0.0,
        1.0
      ],
      "name": "GLTF_SceneRootNode"
    },
    {
      "children": [
        4
      ],
      "matrix": [
        0.5,
        0.0,
        0.0,
        0.0,
        0.0,
        1.0,
        0.0,
        0.0,
        0.0,
        0.0,
        0.9549999833106995,
        0.0,
        -0.11715507507324219,
        0.01302257925271988,
        -0.031621456146240234,
        1.0
      ],
      "name": "Rug_2"
    },
    {
      "mesh": 0,
      "name": "Object_4"
    }
  ],
  "samplers": [
    {
      "magFilter": 9729,
      "minFilter": 9987,
      "wrapS": 10497,
      "wrapT": 10497
    }
  ],
  "scene": 0,
  "scenes": [
    {
      "name": "Sketchfab_Scene",
      "nodes": [
        0
      ]
    }
  ],
  "textures": [
    {
      "sampler": 0,
      "source": 0
    },
    {
      "sampler": 0,
      "source": 1
    },
    {
      "sampler": 0,
      "source": 2
    }
  ]
}
