{
  "accessors": [
    {
      "bufferView": 2,
      "componentType": 5126,
      "count": 7531,
      "max": [
        234.62448120117188,
        26.756547927856445,
        414.393310546875
      ],
      "min": [
        -164.162109375,
        -18.273488998413086,
        15.606735229492188
      ],
      "type": "VEC3"
    },
    {
      "bufferView": 2,
      "byteOffset": 90372,
      "componentType": 5126,
      "count": 7531,
      "max": [
        1.0,
        0.9983920454978943,
        1.0
      ],
      "min": [
        -1.0,
        -0.9983919858932495,
        -1.0
      ],
      "type": "VEC3"
    },
    {
      "bufferView": 1,
      "componentType": 5126,
      "count": 7531,
      "max": [
        0.9950000047683716,
        0.993791401386261
      ],
      "min": [
        0.004999999888241291,
        0.004999999888241291
      ],
      "type": "VEC2"
    },
    {
      "bufferView": 1,
      "byteOffset": 60248,
      "componentType": 5126,
      "count": 7531,
      "max": [
        0.9950000047683716,
        0.993791401386261
      ],
      "min": [
        0.004999999888241291,
        0.004999999888241291
      ],
      "type": "VEC2"
    },
    {
      "bufferView": 0,
      "componentType": 5125,
      "count": 33336,
      "type": "SCALAR"
    },
    {
      "bufferView": 2,
      "byteOffset": 180744,
      "componentType": 5126,
      "count": 65532,
      "max": [
        249.76507568359375,
        26.75667953491211,
        759.3035278320313
      ],
      "min": [
        -179.302734375,
        -18.242977142333984,
        0.46612548828125
      ],
      "type": "VEC3"
    },
    {
      "bufferView": 2,
      "byteOffset": 967128,
      "componentType": 5126,
      "count": 65532,
      "max": [
        1.0,
        1.0,
        1.0
      ],
      "min": [
        -1.0,
        -1.0,
        -1.0
      ],
      "type": "VEC3"
    },
    {
      "bufferView": 1,
      "byteOffset": 120496,
      "componentType": 5126,
      "count": 65532,
      "max": [
        0.9950000047683716,
        0.993986189365387
      ],
      "min": [
        0.004999999888241291,
        0.004999999888241291
      ],
      "type": "VEC2"
    },
    {
      "bufferView": 1,
      "byteOffset": 644752,
      "componentType": 5126,
      "count": 65532,
      "max": [
        0.9950000047683716,
        0.993986189365387
      ],
      "min": [
        0.004999999888241291,
        0.004999999888241291
      ],
      "type": "VEC2"
    },
    {
      "bufferView": 0,
      "byteOffset": 133344,
      "componentType": 5125,
      "count": 297444,
      "type": "SCALAR"
    },
    {
      "bufferView": 2,
      "byteOffset": 1753512,
      "componentType": 5126,
      "count": 966,
      "max": [
        141.24012756347656,
        10.80270767211914,
        429.533935546875
      ],
      "min": [
        -67.34928131103516,
        -2.3500583171844482,
        388.953857421875
      ],
      "type": "VEC3"
    },
    {
      "bufferView": 2,
      "byteOffset": 1765104,
      "componentType": 5126,
      "count": 966,
      "max": [
        0.4310626983642578,
        0.8662065863609314,
        1.0
      ],
      "min": [
        -0.430971622467041,
        -0.8662064075469971,
        -1.0
      ],
      "type": "VEC3"
    },
    {
      "bufferView": 1,
      "byteOffset": 1169008,
      "componentType": 5126,
      "count": 966,
      "max": [
        0.9616311192512512,
        0.8580262660980225
      ],
      "min": [
        0.004999999888241291,
        0.35224834084510803
      ],
      "type": "VEC2"
    },
    {
      "bufferView": 1,
      "byteOffset": 1176736,
      "componentType": 5126,
      "count": 966,
      "max": [
        0.9616311192512512,
        0.8580262660980225
      ],
      "min": [
        0.004999999888241291,
        0.35224834084510803
      ],
      "type": "VEC2"
    },
    {
      "bufferView": 0,
      "byteOffset": 1323120,
      "componentType": 5125,
      "count": 3468,
      "type": "SCALAR"
    },
    {
      "bufferView": 2,
      "byteOffset": 1776696,
      "componentType": 5126,
      "count": 65532,
      "max": [
        222.3909912109375,
        28.013139724731445,
        428.11761474609375
      ],
      "min": [
        -179.302734375,
        -19.42671012878418,
        0.71881103515625
      ],
      "type": "VEC3"
    },
    {
      "bufferView": 2,
      "byteOffset": 2563080,
      "componentType": 5126,
      "count": 65532,
      "max": [
        1.0,
        1.0,
        1.0
      ],
      "min": [
        -1.0,
        -1.0,
        -1.0
      ],
      "type": "VEC3"
    },
    {
      "bufferView": 1,
      "byteOffset": 1184464,
      "componentType": 5126,
      "count": 65532,
      "max": [
        0.9580668807029724,
        0.9950000047683716
      ],
      "min": [
        0.004999999888241291,
        0.004999999888241291
      ],
      "type": "VEC2"
    },
    {
      "bufferView": 1,
      "byteOffset": 1708720,
      "componentType": 5126,
      "count": 65532,
      "max": [
        0.9580668807029724,
        0.9950000047683716
      ],
      "min": [
        0.004999999888241291,
        0.004999999888241291
      ],
      "type": "VEC2"
    },
    {
      "bufferView": 0,
      "byteOffset": 1336992,
      "componentType": 5125,
      "count": 159489,
      "type": "SCALAR"
    },
    {
      "bufferView": 2,
      "byteOffset": 3349464,
      "componentType": 5126,
      "count": 49181,
      "max": [
        199.134033203125,
        28.013158798217773,
        429.17047119140625
      ],
      "min": [
        -178.658203125,
        -19.426652908325195,
        3.2030029296875
      ],
      "type": "VEC3"
    },
    {
      "bufferView": 2,
      "byteOffset": 3939636,
      "componentType": 5126,
      "count": 49181,
      "max": [
        1.0,
        1.0,
        1.0
      ],
      "min": [
        -1.0,
        -1.0,
        -1.0
      ],
      "type": "VEC3"
    },
    {
      "bufferView": 1,
      "byteOffset": 2232976,
      "componentType": 5126,
      "count": 49181,
      "max": [
        0.9494606852531433,
        0.9950000047683716
      ],
      "min": [
        0.004999999888241291,
        0.47907936573028564
      ],
      "type": "VEC2"
    },
    {
      "bufferView": 1,
      "byteOffset": 2626424,
      "componentType": 5126,
      "count": 49181,
      "max": [
        0.9494606852531433,
        0.9950000047683716
      ],
      "min": [
        0.004999999888241291,
        0.47907936573028564
      ],
      "type": "VEC2"
    },
    {
      "bufferView": 0,
      "byteOffset": 1974948,
      "componentType": 5125,
      "count": 99822,
      "type": "SCALAR"
    }
  ],
  "asset": {
    "extras": {
      "author": "Zuo Modern (https://sketchfab.com/zuo)",
      "license": "CC-BY-NC-ND-4.0 (http://creativecommons.org/licenses/by-nc-nd/4.0/)",
      "source": "https://sketchfab.com/3d-models/round-mirror-black-a10321-017708fc9a0940a99eeead19664648c8",
      "title": "Round Mirror Black - A10321"
    },
    "generator": "Sketchfab-12.68.0",
    "version": "2.0"
  },
  "bufferViews": [
    {
      "buffer": 0,
      "byteLength": 2374236,
      "name": "floatBufferViews",
      "target": 34963
    },
    {
      "buffer": 0,
      "byteLength": 3019872,
      "byteOffset": 2374236,
      "byteStride": 8,
      "name": "floatBufferViews",
      "target": 34962
    },
    {
      "buffer": 0,
      "byteLength": 4529808,
      "byteOffset": 5394108,
      "byteStride": 12,
      "name": "floatBufferViews",
      "target": 34962
    }
  ],
  "buffers": [
    {
      "byteLength": 9923916,
      "uri": "scene.bin"
    }
  ],
  "images": [
    {
      "uri": "textures/Object001_mtl_baseColor.jpeg"
    },
    {
      "uri": "textures/Object002_mtl_baseColor.jpeg"
    },
    {
      "uri": "textures/Object003_mtl_baseColor.jpeg"
    }
  ],
  "materials": [
    {
      "doubleSided": true,
      "name": "Object001_mtl",
      "pbrMetallicRoughness": {
        "baseColorTexture": {
          "index": 0
        },
        "metallicFactor": 0.0,
        "roughnessFactor": 0.8929713596
      }
    },
    {
      "doubleSided": true,
      "name": "Object002_mtl",
      "pbrMetallicRoughness": {
        "baseColorTexture": {
          "index": 1
        },
        "metallicFactor": 0.0,
        "roughnessFactor": 0.8929713596
      }
    },
    {
      "doubleSided": true,
      "name": "Object003_mtl",
      "pbrMetallicRoughness": {
        "baseColorTexture": {
          "index": 2
        },
        "metallicFactor": 0.0,
        "roughnessFactor": 0.8929713596
      }
    }
  ],
  "meshes": [
    {
      "name": "Object001_Object001_mtl_0",
      "primitives": [
        {
          "attributes": {
            "NORMAL": 1,
            "POSITION": 0,
            "TEXCOORD_0": 2,
            "TEXCOORD_1": 3
          },
          "indices": 4,
          "material": 0,
          "mode": 4
        }
      ]
    },
    {
      "name": "Object002_Object002_mtl_0",
      "primitives": [
        {
          "attributes": {
            "NORMAL": 6,
            "POSITION": 5,
            "TEXCOORD_0": 7,
            "TEXCOORD_1": 8
          },
          "indices": 9,
          "material": 1,
          "mode": 4
        }
      ]
    },
    {
      "name": "Object002_Object002_mtl_0",
      "primitives": [
        {
          "attributes": {
            "NORMAL": 11,
            "POSITION": 10,
            "TEXCOORD_0": 12,
            "TEXCOORD_1": 13
          },
          "indices": 14,
          "material": 1,
          "mode": 4
        }
      ]
    },
    {
      "name": "Object003_Object003_mtl_0",
      "primitives": [
        {
          "attributes": {
            "NORMAL": 16,
            "POSITION": 15,
            "TEXCOORD_0": 17,
            "TEXCOORD_1": 18
          },
          "indices": 19,
          "material": 2,
          "mode": 4
        }
      ]
    },
    {
      "name": "Object003_Object003_mtl_0",
      "primitives": [
        {
          "attributes": {
            "NORMAL": 21,
            "POSITION": 20,
            "TEXCOORD_0": 22,
            "TEXCOORD_1": 23
          },
          "indices": 24,
          "material": 2,
          "mode": 4
        }
      ]
    }
  ],
  "nodes": [
    {
      "children": [
        1
      ],
      "matrix": [
        1.0,
        0.0,
        0.0,
        0.0,
        0.0,
        2.220446049250313e-16,
        -1.0,
        0.0,
        0.0,
        1.0,
        2.220446049250313e-16,
        0.0,
        0.0,
        0.0,
        0.0,
        1.0
      ],
      "name": "Sketchfab_model"
    },
    {
      "children": [
        2
      ],
      "matrix": [
        1.0,
        0.0,
        0.0,
        0.0,
        0.0,
        0.0,
        1.0,
        0.0,
        0.0,
        -1.0,
        0.0,
        0.0,
        0.0,
        0.0,
        0.0,
        1.0
      ],
      "name": "A10321.fbx"
    },
    {
      "children": [
        3,
        6,
        10
      ],
      "name": "RootNode"
    },
    {
      "children": [
        4
      ],
      "matrix": [
        1.0,
        0.0,
        0.0,
        0.0,
        0.0,
        2.220446049250313e-16,
        -1.0,
        0.0,
        0.0,
        1.0,
        2.220446049250313e-16,
        0.0,
        35.231170654296875,
        0.46612548828125,
        -4.293224334716797,
        1.0
      ],
      "name": "Object001"
    },
    {
      "children": [
        5
      ],
      "matrix": [
        1.0,
        0.0,
        -0.0,
        0.0,
        0.0,
        1.0,
        0.0,
        0.0,
        0.0,
        0.0,
        1.0,
        0.0,
        -35.231170654296875,
        -4.293224334716797,
        -0.46612548828125,
        1.0
      ],
      "name": "Object_4"
    },
    {
      "mesh": 0,
      "name": "Object001_Object001_mtl_0"
    },
    {
      "children": [
        7
      ],
      "matrix": [
        1.0,
        0.0,
        0.0,
        0.0,
        0.0,
        2.220446049250313e-16,
        -1.0,
        0.0,
        0.0,
        1.0,
        2.220446049250313e-16,
        0.0,
        35.231170654296875,
        0.46612548828125,
        -4.293224334716797,
        1.0
      ],
      "name": "Object002"
    },
    {
      "children": [
        8,
        9
      ],
      "matrix": [
        1.0,
        0.0,
        -0.0,
        0.0,
        0.0,
        1.0,
        0.0,
        0.0,
        0.0,
        0.0,
        1.0,
        0.0,
        -35.231170654296875,
        -4.293224334716797,
        -0.46612548828125,
        1.0
      ],
      "name": "Object_7"
    },
    {
      "mesh": 1,
      "name": "Object002_Object002_mtl_0"
    },
    {
      "mesh": 2,
      "name": "Object002_Object002_mtl_0"
    },
    {
      "children": [
        11
      ],
      "matrix": [
        1.0,
        0.0,
        0.0,
        0.0,
        0.0,
        2.220446049250313e-16,
        -1.0,
        0.0,
        0.0,
        1.0,
        2.220446049250313e-16,
        0.0,
        35.231170654296875,
        0.46612548828125,
        -4.293224334716797,
        1.0
      ],
      "name": "Object003"
    },
    {
      "children": [
        12,
        13
      ],
      "matrix": [
        1.0,
        0.0,
        -0.0,
        0.0,
        0.0,
        1.0,
        0.0,
        0.0,
        0.0,
        0.0,
        1.0,
        0.0,
        -35.231170654296875,
        -4.293224334716797,
        -0.46612548828125,
        1.0
      ],
      "name": "Object_11"
    },
    {
      "mesh": 3,
      "name": "Object003_Object003_mtl_0"
    },
    {
      "mesh": 4,
      "name": "Object003_Object003_mtl_0"
    }
  ],
  "samplers": [
    {
      "magFilter": 9729,
      "minFilter": 9987,
      "wrapS": 10497,
      "wrapT": 10497
    }
  ],
  "scene": 0,
  "scenes": [
    {
      "name": "Sketchfab_Scene",
      "nodes": [
        0
      ]
    }
  ],
  "textures": [
    {
      "sampler": 0,
      "source": 0
    },
    {
      "sampler": 0,
      "source": 1
    },
    {
      "sampler": 0,
      "source": 2
    }
  ]
}
