{
  "accessors": [
    {
      "bufferView": 2,
      "componentType": 5126,
      "count": 41986,
      "max": [
        386.0126037597656,
        98.30239868164063,
        143.02870178222656
      ],
      "min": [
        -386.0126037597656,
        -98.30239868164063,
        -143.02859497070313
      ],
      "type": "VEC3"
    },
    {
      "bufferView": 2,
      "byteOffset": 503832,
      "componentType": 5126,
      "count": 41986,
      "max": [
        1.0,
        1.0,
        1.0
      ],
      "min": [
        -1.0,
        -1.0,
        -1.0
      ],
      "type": "VEC3"
    },
    {
      "bufferView": 1,
      "componentType": 5126,
      "count": 41986,
      "max": [
        0.998046875,
        0.998046875
      ],
      "min": [
        0.001953125,
        0.02262091636657715
      ],
      "type": "VEC2"
    },
    {
      "bufferView": 1,
      "byteOffset": 335888,
      "componentType": 5126,
      "count": 41986,
      "max": [
        0.998046875,
        0.998046875
      ],
      "min": [
        0.001953125,
        0.02262091636657715
      ],
      "type": "VEC2"
    },
    {
      "bufferView": 1,
      "byteOffset": 671776,
      "componentType": 5126,
      "count": 41986,
      "max": [
        0.998046875,
        0.998046875
      ],
      "min": [
        0.001953125,
        0.02262091636657715
      ],
      "type": "VEC2"
    },
    {
      "bufferView": 0,
      "componentType": 5125,
      "count": 139755,
      "type": "SCALAR"
    }
  ],
  "asset": {
    "extras": {
      "author": "maxsbond.work (https://sketchfab.com/maxsbond.work)",
      "license": "CC-BY-4.0 (http://creativecommons.org/licenses/by/4.0/)",
      "source": "https://sketchfab.com/3d-models/air-condition-daikin-26b0f7c8472741f4b85b889cf3b1d870",
      "title": "Air condition Daikin"
    },
    "generator": "Sketchfab-12.66.0",
    "version": "2.0"
  },
  "bufferViews": [
    {
      "buffer": 0,
      "byteLength": 559020,
      "name": "floatBufferViews",
      "target": 34963
    },
    {
      "buffer": 0,
      "byteLength": 1007664,
      "byteOffset": 559020,
      "byteStride": 8,
      "name": "floatBufferViews",
      "target": 34962
    },
    {
      "buffer": 0,
      "byteLength": 1007664,
      "byteOffset": 1566684,
      "byteStride": 12,
      "name": "floatBufferViews",
      "target": 34962
    }
  ],
  "buffers": [
    {
      "byteLength": 2574348,
      "uri": "scene.bin"
    }
  ],
  "images": [
    {
      "uri": "textures/wire_000000000_baseColor.png"
    },
    {
      "uri": "textures/wire_000000000_metallicRoughness.png"
    }
  ],
  "materials": [
    {
      "doubleSided": true,
      "name": "wire_000000000",
      "pbrMetallicRoughness": {
        "baseColorTexture": {
          "index": 0
        },
        "metallicFactor": 0.0,
        "metallicRoughnessTexture": {
          "index": 1,
          "texCoord": 1
        }
      }
    }
  ],
  "meshes": [
    {
      "name": "Object_0",
      "primitives": [
        {
          "attributes": {
            "NORMAL": 1,
            "POSITION": 0,
            "TEXCOORD_0": 2,
            "TEXCOORD_1": 3,
            "TEXCOORD_2": 4
          },
          "indices": 5,
          "material": 0,
          "mode": 4
        }
      ]
    }
  ],
  "nodes": [
    {
      "children": [
        1
      ],
      "matrix": [
        0.002656400902196765,
        0.0,
        0.0,
        0.0,
        0.0,
        5.898394888507774e-19,
        -0.002656400902196765,
        0.0,
        0.0,
        0.002656400902196765,
        5.898394888507774e-19,
        0.0,
        0.0,
        0.0,
        0.0,
        1.0
      ],
      "name": "Sketchfab_model"
    },
    {
      "children": [
        2
      ],
      "name": "root"
    },
    {
      "children": [
        3
      ],
      "matrix": [
        1.0,
        0.0,
        0.0,
        0.0,
        0.0,
        2.220446049250313e-16,
        1.0,
        0.0,
        0.0,
        -1.0,
        2.220446049250313e-16,
        0.0,
        0.0,
        0.0,
        0.0,
        1.0
      ],
      "name": "GLTF_SceneRootNode"
    },
    {
      "children": [
        4
      ],
      "matrix": [
        1.0,
        0.0,
        0.0,
        0.0,
        0.0,
        -1.685873969314855e-07,
        0.9999999999999858,
        0.0,
        0.0,
        -0.9999999999999858,
        -1.685873969314855e-07,
        0.0,
        0.0,
        0.0,
        0.0,
        1.0
      ],
      "name": "Daikin FTXN25KEV1B_0"
    },
    {
      "mesh": 0,
      "name": "Object_4"
    }
  ],
  "samplers": [
    {
      "magFilter": 9729,
      "minFilter": 9987,
      "wrapS": 10497,
      "wrapT": 10497
    }
  ],
  "scene": 0,
  "scenes": [
    {
      "name": "Sketchfab_Scene",
      "nodes": [
        0
      ]
    }
  ],
  "textures": [
    {
      "sampler": 0,
      "source": 0
    },
    {
      "sampler": 0,
      "source": 1
    }
  ]
}
