{
  "accessors": [
    {
      "bufferView": 2,
      "componentType": 5126,
      "count": 488,
      "max": [
        16.331096649169922,
        0.21959398686885834,
        20.331729888916016
      ],
      "min": [
        -16.331096649169922,
        -2.4712605476379395,
        -0.07350863516330719
      ],
      "type": "VEC3"
    },
    {
      "bufferView": 2,
      "byteOffset": 5856,
      "componentType": 5126,
      "count": 488,
      "max": [
        1.0,
        1.0,
        0.9999526143074036
      ],
      "min": [
        -1.0,
        -1.0,
        -0.9999933242797852
      ],
      "type": "VEC3"
    },
    {
      "bufferView": 3,
      "componentType": 5126,
      "count": 488,
      "max": [
        0.9999762177467346,
        0.9999990463256836,
        1.0,
        1.0
      ],
      "min": [
        -0.9999915361404419,
        -0.9999990463256836,
        -0.9999969601631165,
        1.0
      ],
      "type": "VEC4"
    },
    {
      "bufferView": 1,
      "componentType": 5126,
      "count": 488,
      "max": [
        1.0,
        0.9077839851379395
      ],
      "min": [
        0.0,
        0.0
      ],
      "type": "VEC2"
    },
    {
      "bufferView": 0,
      "componentType": 5125,
      "count": 1182,
      "type": "SCALAR"
    },
    {
      "bufferView": 2,
      "byteOffset": 11712,
      "componentType": 5126,
      "count": 1271,
      "max": [
        16.00124740600586,
        11.60521125793457,
        9.95028305053711
      ],
      "min": [
        -15.998954772949219,
        -2.6069119485327974e-06,
        -9.932368278503418
      ],
      "type": "VEC3"
    },
    {
      "bufferView": 2,
      "byteOffset": 26964,
      "componentType": 5126,
      "count": 1271,
      "max": [
        0.999987781047821,
        1.0,
        1.0
      ],
      "min": [
        -0.999987781047821,
        -1.0,
        -1.0
      ],
      "type": "VEC3"
    },
    {
      "bufferView": 3,
      "byteOffset": 7808,
      "componentType": 5126,
      "count": 1271,
      "max": [
        0.9999905824661255,
        1.0,
        1.0,
        1.0
      ],
      "min": [
        -0.999987781047821,
        -1.0,
        -0.999785304069519,
        -1.0
      ],
      "type": "VEC4"
    },
    {
      "bufferView": 1,
      "byteOffset": 3904,
      "componentType": 5126,
      "count": 1271,
      "max": [
        0.942978024482727,
        0.903365969657898
      ],
      "min": [
        0.0,
        0.0
      ],
      "type": "VEC2"
    },
    {
      "bufferView": 0,
      "byteOffset": 4728,
      "componentType": 5125,
      "count": 2958,
      "type": "SCALAR"
    },
    {
      "bufferView": 4,
      "componentType": 5126,
      "count": 399,
      "max": [
        13.300000190734863
      ],
      "min": [
        0.03333333507180214
      ],
      "type": "SCALAR"
    },
    {
      "bufferView": 5,
      "componentType": 5126,
      "count": 399,
      "max": [
        0.894934356212616,
        0.0,
        0.0,
        1.0
      ],
      "min": [
        -0.8629202246665955,
        0.0,
        0.0,
        -0.49844396114349365
      ],
      "type": "VEC4"
    }
  ],
  "animations": [
    {
      "channels": [
        {
          "sampler": 0,
          "target": {
            "node": 5,
            "path": "rotation"
          }
        }
      ],
      "name": "CINEMA_4D_Main",
      "samplers": [
        {
          "input": 10,
          "interpolation": "LINEAR",
          "output": 11
        }
      ]
    }
  ],
  "asset": {
    "extras": {
      "author": "samplemem (https://sketchfab.com/duts2024)",
      "license": "CC-BY-4.0 (http://creativecommons.org/licenses/by/4.0/)",
      "source": "https://sketchfab.com/3d-models/nike-shoe-box-6eb4190c3ca847c8853226c90d1ea37a",
      "title": "Nike Shoe Box"
    },
    "generator": "Sketchfab-13.40.0",
    "version": "2.0"
  },
  "bufferViews": [
    {
      "buffer": 0,
      "byteLength": 16560,
      "name": "floatBufferViews",
      "target": 34963
    },
    {
      "buffer": 0,
      "byteLength": 14072,
      "byteOffset": 16560,
      "byteStride": 8,
      "name": "floatBufferViews",
      "target": 34962
    },
    {
      "buffer": 0,
      "byteLength": 42216,
      "byteOffset": 30632,
      "byteStride": 12,
      "name": "floatBufferViews",
      "target": 34962
    },
    {
      "buffer": 0,
      "byteLength": 28144,
      "byteOffset": 72848,
      "byteStride": 16,
      "name": "floatBufferViews",
      "target": 34962
    },
    {
      "buffer": 0,
      "byteLength": 1596,
      "byteOffset": 100992,
      "name": "floatBufferViews"
    },
    {
      "buffer": 0,
      "byteLength": 6384,
      "byteOffset": 102588,
      "byteStride": 16,
      "name": "floatBufferViews"
    }
  ],
  "buffers": [
    {
      "byteLength": 108972,
      "uri": "scene.bin"
    }
  ],
  "images": [
    {
      "uri": "textures/material_baseColor.png"
    },
    {
      "uri": "textures/material_metallicRoughness.png"
    },
    {
      "uri": "textures/material_normal.png"
    },
    {
      "uri": "textures/BOTTOM_baseColor.png"
    },
    {
      "uri": "textures/BOTTOM_metallicRoughness.png"
    },
    {
      "uri": "textures/BOTTOM_normal.png"
    }
  ],
  "materials": [
    {
      "doubleSided": true,
      "name": "material",
      "normalTexture": {
        "index": 2
      },
      "pbrMetallicRoughness": {
        "baseColorTexture": {
          "index": 0
        },
        "metallicFactor": 0.0,
        "metallicRoughnessTexture": {
          "index": 1
        }
      }
    },
    {
      "doubleSided": true,
      "name": "BOTTOM",
      "normalTexture": {
        "index": 5
      },
      "pbrMetallicRoughness": {
        "baseColorTexture": {
          "index": 3
        },
        "metallicFactor": 0.0,
        "metallicRoughnessTexture": {
          "index": 4
        }
      }
    }
  ],
  "meshes": [
    {
      "name": "Plane_Plane_002_Material_001_TOP_0",
      "primitives": [
        {
          "attributes": {
            "NORMAL": 1,
            "POSITION": 0,
            "TANGENT": 2,
            "TEXCOORD_0": 3
          },
          "indices": 4,
          "material": 0,
          "mode": 4
        }
      ]
    },
    {
      "name": "Plane_Plane_002_carton_BOTTOM_0",
      "primitives": [
        {
          "attributes": {
            "NORMAL": 6,
            "POSITION": 5,
            "TANGENT": 7,
            "TEXCOORD_0": 8
          },
          "indices": 9,
          "material": 1,
          "mode": 4
        }
      ]
    }
  ],
  "nodes": [
    {
      "children": [
        1
      ],
      "matrix": [
        1.5210131406784058,
        0.0,
        0.0,
        0.0,
        0.0,
        3.3773276190771767e-16,
        -1.5210131406784058,
        0.0,
        0.0,
        1.5210131406784058,
        3.3773276190771767e-16,
        0.0,
        0.0,
        0.0,
        0.0,
        1.0
      ],
      "name": "Sketchfab_model"
    },
    {
      "children": [
        2
      ],
      "matrix": [
        0.009999999776482582,
        0.0,
        0.0,
        0.0,
        0.0,
        0.0,
        0.009999999776482582,
        0.0,
        0.0,
        -0.009999999776482582,
        0.0,
        0.0,
        0.0,
        0.0,
        0.0,
        1.0
      ],
      "name": "BOX nike.fbx"
    },
    {
      "children": [
        3
      ],
      "name": "Object_2"
    },
    {
      "children": [
        4
      ],
      "name": "RootNode"
    },
    {
      "children": [
        5,
        7
      ],
      "name": "BOX",
      "translation": [
        0.0,
        0.05046120658516884,
        0.0
      ]
    },
    {
      "children": [
        6
      ],
      "name": "Plane_Plane_002_Material_001",
      "translation": [
        0.0,
        11.550604820251465,
        -9.85886001586914
      ]
    },
    {
      "mesh": 0,
      "name": "Plane_Plane_002_Material_001_TOP_0"
    },
    {
      "children": [
        8
      ],
      "name": "Plane_Plane_002_carton",
      "translation": [
        0.0,
        0.05046120658516884,
        0.0
      ]
    },
    {
      "mesh": 1,
      "name": "Plane_Plane_002_carton_BOTTOM_0"
    }
  ],
  "samplers": [
    {
      "magFilter": 9729,
      "minFilter": 9987,
      "wrapS": 10497,
      "wrapT": 10497
    }
  ],
  "scene": 0,
  "scenes": [
    {
      "name": "Sketchfab_Scene",
      "nodes": [
        0
      ]
    }
  ],
  "textures": [
    {
      "sampler": 0,
      "source": 0
    },
    {
      "sampler": 0,
      "source": 1
    },
    {
      "sampler": 0,
      "source": 2
    },
    {
      "sampler": 0,
      "source": 3
    },
    {
      "sampler": 0,
      "source": 4
    },
    {
      "sampler": 0,
      "source": 5
    }
  ]
}
