{
  "accessors": [
    {
      "bufferView": 2,
      "componentType": 5126,
      "count": 3766,
      "max": [
        0.9902966618537903,
        1.142051100730896,
        3.01464581489563
      ],
      "min": [
        -0.9902967214584351,
        -1.1420512199401855,
        -1.894668459892273
      ],
      "type": "VEC3"
    },
    {
      "bufferView": 2,
      "byteOffset": 45192,
      "componentType": 5126,
      "count": 3766,
      "max": [
        1.0,
        1.0,
        1.0
      ],
      "min": [
        -1.0,
        -1.0,
        -1.0
      ],
      "type": "VEC3"
    },
    {
      "bufferView": 1,
      "componentType": 5126,
      "count": 3766,
      "max": [
        1.2357771396636963,
        2.288224697113037
      ],
      "min": [
        -0.22384333610534668,
        -0.43126338720321655
      ],
      "type": "VEC2"
    },
    {
      "bufferView": 0,
      "componentType": 5125,
      "count": 18708,
      "type": "SCALAR"
    },
    {
      "bufferView": 2,
      "byteOffset": 90384,
      "componentType": 5126,
      "count": 129,
      "max": [
        0.5434901714324951,
        -0.13909058272838593,
        2.814955711364746
      ],
      "min": [
        -0.5434903502464294,
        -0.7667390704154968,
        -0.03203073889017105
      ],
      "type": "VEC3"
    },
    {
      "bufferView": 2,
      "byteOffset": 91932,
      "componentType": 5126,
      "count": 129,
      "max": [
        0.5166589617729187,
        -0.8395516872406006,
        0.3139195740222931
      ],
      "min": [
        -0.5166589617729187,
        -0.9812279343605042,
        0.14893275499343872
      ],
      "type": "VEC3"
    },
    {
      "bufferView": 1,
      "byteOffset": 30128,
      "componentType": 5126,
      "count": 129,
      "max": [
        0.9987972974777222,
        0.989162802696228
      ],
      "min": [
        0.0008028089068830013,
        0.0300790686160326
      ],
      "type": "VEC2"
    },
    {
      "bufferView": 0,
      "byteOffset": 74832,
      "componentType": 5125,
      "count": 576,
      "type": "SCALAR"
    },
    {
      "bufferView": 2,
      "byteOffset": 93480,
      "componentType": 5126,
      "count": 6,
      "max": [
        0.7391745448112488,
        0.2056381106376648,
        2.579636335372925
      ],
      "min": [
        0.5365898013114929,
        0.12811720371246338,
        2.3996288776397705
      ],
      "type": "VEC3"
    },
    {
      "bufferView": 2,
      "byteOffset": 93552,
      "componentType": 5126,
      "count": 6,
      "max": [
        0.36176881194114685,
        0.9732716679573059,
        0.15708084404468536
      ],
      "min": [
        0.16898201406002045,
        0.9257241487503052,
        0.10959326475858688
      ],
      "type": "VEC3"
    },
    {
      "bufferView": 1,
      "byteOffset": 31160,
      "componentType": 5126,
      "count": 6,
      "max": [
        0.9990851283073425,
        1.000007152557373
      ],
      "min": [
        0.0068798367865383625,
        0.0006732898764312267
      ],
      "type": "VEC2"
    },
    {
      "bufferView": 0,
      "byteOffset": 77136,
      "componentType": 5125,
      "count": 12,
      "type": "SCALAR"
    },
    {
      "bufferView": 2,
      "byteOffset": 93624,
      "componentType": 5126,
      "count": 81,
      "max": [
        0.5370811223983765,
        1.142051100730896,
        0.9819952845573425
      ],
      "min": [
        -0.5370809435844421,
        0.27911263704299927,
        -1.2887413501739502
      ],
      "type": "VEC3"
    },
    {
      "bufferView": 2,
      "byteOffset": 94596,
      "componentType": 5126,
      "count": 81,
      "max": [
        0.6501221656799316,
        0.9824604988098145,
        0.41798633337020874
      ],
      "min": [
        -0.6501221656799316,
        0.6504539251327515,
        -0.46889570355415344
      ],
      "type": "VEC3"
    },
    {
      "bufferView": 1,
      "byteOffset": 31208,
      "componentType": 5126,
      "count": 81,
      "max": [
        0.9212328791618347,
        0.7120824456214905
      ],
      "min": [
        0.08060676604509354,
        0.2896627187728882
      ],
      "type": "VEC2"
    },
    {
      "bufferView": 0,
      "byteOffset": 77184,
      "componentType": 5125,
      "count": 384,
      "type": "SCALAR"
    },
    {
      "bufferView": 2,
      "byteOffset": 95568,
      "componentType": 5126,
      "count": 3546,
      "max": [
        0.8648259043693542,
        0.8652128577232361,
        1.0000001192092896
      ],
      "min": [
        -0.8648259043693542,
        -0.8652127981185913,
        -1.1523373126983643
      ],
      "type": "VEC3"
    },
    {
      "bufferView": 2,
      "byteOffset": 138120,
      "componentType": 5126,
      "count": 3546,
      "max": [
        1.0,
        1.0,
        1.0
      ],
      "min": [
        -1.0,
        -1.0,
        -1.0
      ],
      "type": "VEC3"
    },
    {
      "bufferView": 1,
      "byteOffset": 31856,
      "componentType": 5126,
      "count": 3546,
      "max": [
        1.0000001192092896,
        1.0000001192092896
      ],
      "min": [
        -7.4505820180093e-08,
        0.025278644636273384
      ],
      "type": "VEC2"
    },
    {
      "bufferView": 0,
      "byteOffset": 78720,
      "componentType": 5125,
      "count": 17232,
      "type": "SCALAR"
    }
  ],
  "asset": {
    "extras": {
      "author": "Starkster (https://sketchfab.com/parmaryash2599)",
      "license": "CC-BY-4.0 (http://creativecommons.org/licenses/by/4.0/)",
      "source": "https://sketchfab.com/3d-models/colgate-toothpaste-tube-3a77c506eaea4e08a10f1d288d2ce45d",
      "title": "colgate toothpaste tube"
    },
    "generator": "Sketchfab-12.68.0",
    "version": "2.0"
  },
  "bufferViews": [
    {
      "buffer": 0,
      "byteLength": 147648,
      "name": "floatBufferViews",
      "target": 34963
    },
    {
      "buffer": 0,
      "byteLength": 60224,
      "byteOffset": 147648,
      "byteStride": 8,
      "name": "floatBufferViews",
      "target": 34962
    },
    {
      "buffer": 0,
      "byteLength": 180672,
      "byteOffset": 207872,
      "byteStride": 12,
      "name": "floatBufferViews",
      "target": 34962
    }
  ],
  "buffers": [
    {
      "byteLength": 388544,
      "uri": "scene.bin"
    }
  ],
  "images": [
    {
      "uri": "textures/Material.004_baseColor.png"
    },
    {
      "uri": "textures/VEG_LOGO_baseColor.jpeg"
    },
    {
      "uri": "textures/Material.002_baseColor.png"
    }
  ],
  "materials": [
    {
      "doubleSided": true,
      "name": "Material.001",
      "pbrMetallicRoughness": {
        "baseColorFactor": [
          0.6358071275813759,
          0.6358071275813759,
          0.6358071275813759,
          1.0
        ],
        "metallicFactor": 0.0,
        "roughnessFactor": 0.6
      }
    },
    {
      "doubleSided": true,
      "name": "Material.004",
      "pbrMetallicRoughness": {
        "baseColorTexture": {
          "index": 0
        },
        "metallicFactor": 0.0,
        "roughnessFactor": 0.6
      }
    },
    {
      "doubleSided": true,
      "name": "VEG_LOGO",
      "pbrMetallicRoughness": {
        "baseColorTexture": {
          "index": 1
        },
        "metallicFactor": 0.0,
        "roughnessFactor": 0.6
      }
    },
    {
      "doubleSided": true,
      "name": "Material.002",
      "pbrMetallicRoughness": {
        "baseColorTexture": {
          "index": 2
        },
        "metallicFactor": 0.0,
        "roughnessFactor": 0.6
      }
    },
    {
      "doubleSided": true,
      "name": "Material.003",
      "pbrMetallicRoughness": {
        "baseColorFactor": [
          1.0,
          0.008959033215757944,
          0.008959033215757944,
          1.0
        ],
        "metallicFactor": 0.0,
        "roughnessFactor": 0.6
      }
    }
  ],
  "meshes": [
    {
      "name": "Cylinder_Material.001_0",
      "primitives": [
        {
          "attributes": {
            "NORMAL": 1,
            "POSITION": 0,
            "TEXCOORD_0": 2
          },
          "indices": 3,
          "material": 0,
          "mode": 4
        }
      ]
    },
    {
      "name": "Cylinder_Material.004_0",
      "primitives": [
        {
          "attributes": {
            "NORMAL": 5,
            "POSITION": 4,
            "TEXCOORD_0": 6
          },
          "indices": 7,
          "material": 1,
          "mode": 4
        }
      ]
    },
    {
      "name": "Cylinder_VEG LOGO_0",
      "primitives": [
        {
          "attributes": {
            "NORMAL": 9,
            "POSITION": 8,
            "TEXCOORD_0": 10
          },
          "indices": 11,
          "material": 2,
          "mode": 4
        }
      ]
    },
    {
      "name": "Cylinder_Material.002_0",
      "primitives": [
        {
          "attributes": {
            "NORMAL": 13,
            "POSITION": 12,
            "TEXCOORD_0": 14
          },
          "indices": 15,
          "material": 3,
          "mode": 4
        }
      ]
    },
    {
      "name": "Cylinder.001_Material.003_0",
      "primitives": [
        {
          "attributes": {
            "NORMAL": 17,
            "POSITION": 16,
            "TEXCOORD_0": 18
          },
          "indices": 19,
          "material": 4,
          "mode": 4
        }
      ]
    }
  ],
  "nodes": [
    {
      "children": [
        1
      ],
      "matrix": [
        1.0,
        0.0,
        0.0,
        0.0,
        0.0,
        2.220446049250313e-16,
        -1.0,
        0.0,
        0.0,
        1.0,
        2.220446049250313e-16,
        0.0,
        0.0,
        0.0,
        0.0,
        1.0
      ],
      "name": "Sketchfab_model"
    },
    {
      "children": [
        2
      ],
      "matrix": [
        1.0,
        0.0,
        0.0,
        0.0,
        0.0,
        0.0,
        1.0,
        0.0,
        0.0,
        -1.0,
        0.0,
        0.0,
        0.0,
        0.0,
        0.0,
        1.0
      ],
      "name": "31bc6168e4014a1e960e3f035c50b0b1.fbx"
    },
    {
      "children": [
        3,
        8
      ],
      "name": "RootNode"
    },
    {
      "children": [
        4,
        5,
        6,
        7
      ],
      "matrix": [
        100.0,
        0.0,
        0.0,
        0.0,
        0.0,
        58.80902481079096,
        2.5706241182688902e-06,
        0.0,
        0.0,
        -5.303851319408806e-06,
        121.33797454833972,
        0.0,
        0.0,
        0.0,
        0.0,
        1.0
      ],
      "name": "Cylinder"
    },
    {
      "mesh": 0,
      "name": "Cylinder_Material.001_0"
    },
    {
      "mesh": 1,
      "name": "Cylinder_Material.004_0"
    },
    {
      "mesh": 2,
      "name": "Cylinder_VEG LOGO_0"
    },
    {
      "mesh": 3,
      "name": "Cylinder_Material.002_0"
    },
    {
      "children": [
        9
      ],
      "matrix": [
        40.405906677246094,
        0.0,
        0.0,
        0.0,
        0.0,
        40.40590667724605,
        1.7661981322961834e-06,
        0.0,
        0.0,
        -1.7661981322961834e-06,
        40.40590667724605,
        0.0,
        0.0,
        0.0,
        -227.32379150390625,
        1.0
      ],
      "name": "Cylinder.001"
    },
    {
      "mesh": 4,
      "name": "Cylinder.001_Material.003_0"
    }
  ],
  "samplers": [
    {
      "magFilter": 9729,
      "minFilter": 9987,
      "wrapS": 10497,
      "wrapT": 10497
    }
  ],
  "scene": 0,
  "scenes": [
    {
      "name": "Sketchfab_Scene",
      "nodes": [
        0
      ]
    }
  ],
  "textures": [
    {
      "sampler": 0,
      "source": 0
    },
    {
      "sampler": 0,
      "source": 1
    },
    {
      "sampler": 0,
      "source": 2
    }
  ]
}
