{
  "accessors": [
    {
      "bufferView": 2,
      "componentType": 5126,
      "count": 252,
      "max": [
        0.6449441909790039,
        0.5987276434898376,
        1.223433256149292
      ],
      "min": [
        -0.5116814374923706,
        -0.5431711077690125,
        0.21468240022659302
      ],
      "type": "VEC3"
    },
    {
      "bufferView": 2,
      "byteOffset": 3024,
      "componentType": 5126,
      "count": 252,
      "max": [
        0.9904468059539795,
        0.9829941987991333,
        0.9998936653137207
      ],
      "min": [
        -0.9902989268302917,
        -0.9959983825683594,
        -0.040559668093919754
      ],
      "type": "VEC3"
    },
    {
      "bufferView": 1,
      "componentType": 5126,
      "count": 252,
      "max": [
        1.010480284690857,
        1.0023568868637085
      ],
      "min": [
        0.011764626950025558,
        0.0027224405203014612
      ],
      "type": "VEC2"
    },
    {
      "bufferView": 0,
      "componentType": 5125,
      "count": 936,
      "type": "SCALAR"
    },
    {
      "bufferView": 2,
      "byteOffset": 6048,
      "componentType": 5126,
      "count": 181,
      "max": [
        0.2066311240196228,
        0.22296693921089172,
        0.353013813495636
      ],
      "min": [
        -0.20314016938209534,
        -0.18680426478385925,
        0.006615638732910156
      ],
      "type": "VEC3"
    },
    {
      "bufferView": 2,
      "byteOffset": 8220,
      "componentType": 5126,
      "count": 181,
      "max": [
        0.990431010723114,
        0.990431010723114,
        0.7537752389907837
      ],
      "min": [
        -0.990431010723114,
        -0.990431010723114,
        -0.9896066784858704
      ],
      "type": "VEC3"
    },
    {
      "bufferView": 1,
      "byteOffset": 2016,
      "componentType": 5126,
      "count": 181,
      "max": [
        0.6281594038009644,
        0.9720782041549683
      ],
      "min": [
        0.031087219715118408,
        0.01962113380432129
      ],
      "type": "VEC2"
    },
    {
      "bufferView": 0,
      "byteOffset": 3744,
      "componentType": 5125,
      "count": 660,
      "type": "SCALAR"
    }
  ],
  "asset": {
    "extras": {
      "author": "Benji Labs (https://sketchfab.com/benjilabs)",
      "license": "CC-BY-4.0 (http://creativecommons.org/licenses/by/4.0/)",
      "source": "https://sketchfab.com/3d-models/stylised-large-house-plant-73068e8f47c049ea953c1aea9b317a02",
      "title": "Stylised Large House Plant"
    },
    "generator": "Sketchfab-12.87.0",
    "version": "2.0"
  },
  "bufferViews": [
    {
      "buffer": 0,
      "byteLength": 6384,
      "name": "floatBufferViews",
      "target": 34963
    },
    {
      "buffer": 0,
      "byteLength": 3464,
      "byteOffset": 6384,
      "byteStride": 8,
      "name": "floatBufferViews",
      "target": 34962
    },
    {
      "buffer": 0,
      "byteLength": 10392,
      "byteOffset": 9848,
      "byteStride": 12,
      "name": "floatBufferViews",
      "target": 34962
    }
  ],
  "buffers": [
    {
      "byteLength": 20240,
      "uri": "scene.bin"
    }
  ],
  "images": [
    {
      "uri": "textures/Plant_Leaf_Shader_baseColor.png"
    },
    {
      "uri": "textures/Pot_Shader_baseColor.png"
    }
  ],
  "materials": [
    {
      "doubleSided": true,
      "name": "Plant_Leaf_Shader",
      "pbrMetallicRoughness": {
        "baseColorTexture": {
          "index": 0
        },
        "roughnessFactor": 0.9771428571428571
      }
    },
    {
      "doubleSided": true,
      "name": "Pot_Shader",
      "pbrMetallicRoughness": {
        "baseColorTexture": {
          "index": 1
        },
        "metallicFactor": 0.0
      }
    }
  ],
  "meshes": [
    {
      "name": "Large Plant.001_Plant Leaf Shader_0",
      "primitives": [
        {
          "attributes": {
            "NORMAL": 1,
            "POSITION": 0,
            "TEXCOORD_0": 2
          },
          "indices": 3,
          "material": 0,
          "mode": 4
        }
      ]
    },
    {
      "name": "Large Plant.001_Pot Shader_0",
      "primitives": [
        {
          "attributes": {
            "NORMAL": 5,
            "POSITION": 4,
            "TEXCOORD_0": 6
          },
          "indices": 7,
          "material": 1,
          "mode": 4
        }
      ]
    }
  ],
  "nodes": [
    {
      "children": [
        1
      ],
      "matrix": [
        1.0,
        0.0,
        0.0,
        0.0,
        0.0,
        2.220446049250313e-16,
        -1.0,
        0.0,
        0.0,
        1.0,
        2.220446049250313e-16,
        0.0,
        0.0,
        0.0,
        0.0,
        1.0
      ],
      "name": "Sketchfab_model"
    },
    {
      "children": [
        2
      ],
      "matrix": [
        0.009999999776482582,
        0.0,
        0.0,
        0.0,
        0.0,
        0.0,
        0.009999999776482582,
        0.0,
        0.0,
        -0.009999999776482582,
        0.0,
        0.0,
        0.0,
        0.0,
        0.0,
        1.0
      ],
      "name": "e153be1f0da84ba8a6460e4d87fad088.fbx"
    },
    {
      "children": [
        3
      ],
      "name": "RootNode"
    },
    {
      "children": [
        4,
        5
      ],
      "matrix": [
        63.90830993652344,
        0.0,
        0.0,
        0.0,
        0.0,
        -1.04119858951352e-05,
        -63.90831375121986,
        0.0,
        0.0,
        63.90830993652259,
        -1.0411985273642129e-05,
        0.0,
        0.0,
        0.0,
        0.0,
        1.0
      ],
      "name": "Large Plant.001"
    },
    {
      "mesh": 0,
      "name": "Large Plant.001_Plant Leaf Shader_0"
    },
    {
      "mesh": 1,
      "name": "Large Plant.001_Pot Shader_0"
    }
  ],
  "samplers": [
    {
      "magFilter": 9729,
      "minFilter": 9987,
      "wrapS": 10497,
      "wrapT": 10497
    }
  ],
  "scene": 0,
  "scenes": [
    {
      "name": "Sketchfab_Scene",
      "nodes": [
        0
      ]
    }
  ],
  "textures": [
    {
      "sampler": 0,
      "source": 0
    },
    {
      "sampler": 0,
      "source": 1
    }
  ]
}
